<?xml version="1.0" standalone="no"?>
<!DOCTYPE svg PUBLIC "-//W3C//DTD SVG 1.1//EN" "http://www.w3.org/Graphics/SVG/1.1/DTD/svg11.dtd" >
<svg xmlns="http://www.w3.org/2000/svg">
<metadata>
Created by FontPrep 20130207 at Thu Jan  5 16:23:59 2017
 By Matteo Montolli
Copyright (c)2013 Commercial Type.
</metadata>
<defs>
<font id="87b78ae1f2cadda2256f32ef3f82b045" horiz-adv-x='1024' >
  <font-face 
    font-family="PortraitTextWeb-Bold"
    font-weight="700"
    font-stretch="normal"
    units-per-em="2048"
    panose-1="0 0 0 0 0 0 0 0 0 0"
    ascent="1534"
    descent="-514"
    x-height="915"
    cap-height="1356"
    bbox="-104 -573 2652 2189"
    underline-thickness="92"
    underline-position="260"
    unicode-range="U+000D-FB04"
  />
<missing-glyph horiz-adv-x="397" 
 />
    <glyph glyph-name="f_b" unicode="fb" horiz-adv-x="1738" 
d="M1153 760q-66 0 -109 -33v-563q49 -49 117 -49q92 0 155 94q62 94 62 239t-62 229q-63 83 -163 83zM748 0v1309q-45 29 -121 29t-132 -72t-57 -213v-138h258l-102 -155h-156v-633l205 -100v-27h-623v27l125 96v637h-159v26l159 117v41q0 219 166 374t414 155
q190 0 319 -43v-615q152 131 289 131t246 -110t109 -316q0 -135 -50 -241q-87 -185 -299 -261q-90 -31 -182 -30l-399 12h-10z" />
    <glyph glyph-name="f_f_b" unicode="ffb" horiz-adv-x="2320" 
d="M727 944q0 168 98 297q-156 98 -218 98q-62 1 -115 -73t-54 -207v-144h289v29zM1735 760q-66 0 -109 -33v-563q49 -49 117 -49q92 0 154 94q63 94 63 239q0 144 -62 228t-163 84zM1329 0v1309q-45 29 -121 29t-132 -72t-56 -213v-138h256l-105 -155h-151v-633l213 -100
v-27h-625v27l119 96v637h-289v-637l119 -96v-27h-537v27l125 96v637h-159v26l159 117v45q0 217 158 371t389 154q141 0 305 -78q139 78 319 78t310 -43v-615q152 131 289 131t246 -110t108 -316q0 -135 -49 -241q-86 -185 -299 -261q-90 -31 -182 -30l-400 12h-10z" />
    <glyph glyph-name="f_f_h" unicode="ffh" horiz-adv-x="2379" 
d="M438 915h289v29q0 168 98 297q-156 98 -218 98q-62 1 -115 -73t-54 -207v-144zM145 948q0 217 158 371t389 154q141 0 305 -78q139 78 321 78t310 -43v-646q164 158 304 158t221 -80t81 -141v-598l125 -96v-27h-542v27l125 96v506q0 43 -42 79t-127 36t-145 -54v-567
l119 -96v-27h-539v27l123 96v1186q-45 29 -121 29t-133 -72t-57 -213v-138h258l-102 -155h-156v-637l137 -96v-27h-549v27l119 96v637h-289v-637l119 -96v-27h-537v27l125 96v637h-159v26l159 117v45z" />
    <glyph glyph-name="f_f_j" unicode="ffj" horiz-adv-x="1710" 
d="M438 915h289v29q0 168 98 297q-156 98 -218 98q-62 1 -115 -73t-54 -207v-144zM145 948q0 217 158 371t389 154q139 0 303 -78q139 78 287 78t277 -37l-101 -248q-223 147 -293 147q-47 -1 -96 -75t-49 -207v-138h450l123 33v-850q0 -94 -91 -253t-292 -318l-32 24
q119 262 118 539v670h-276v-633l186 -100v-27h-598v27l119 96v637h-289v-637l119 -96v-27h-537v27l125 96v637h-159v26l159 117v45z" />
    <glyph glyph-name="f_f_k" unicode="ffk" horiz-adv-x="2328" 
d="M727 944q0 168 98 297q-156 98 -218 98q-62 1 -115 -73t-54 -207v-144h289v29zM1741 915h551v-26l-236 -119l-166 -174l267 -367q84 -119 176 -202v-27q-98 -23 -193 -23q-96 0 -150 29t-89 82l-248 361v20l241 317l-153 103v26zM145 948q0 217 158 371t389 154
q141 0 305 -78q139 78 321 78t310 -43v-1307l123 -96v-27h-545v27l125 96v1186q-45 29 -121 29t-133 -72t-57 -213v-138h258l-102 -155h-156v-637l145 -96v-27h-557v27l119 96v637h-289v-637l119 -96v-27h-537v27l125 96v637h-159v26l159 117v45z" />
    <glyph glyph-name="f_h" unicode="fh" horiz-adv-x="1798" 
d="M438 915h258l-102 -155h-156v-637l140 -96v-27h-558v27l125 96v637h-159v26l159 117v41q0 219 166 374t416 155q190 0 320 -43v-646q164 158 304 158t221 -80t81 -141v-598l125 -96v-27h-541v27l123 96v506q0 43 -41 79t-127 36t-145 -54v-567l118 -96v-27h-538v27
l125 96v1186q-45 29 -122 29t-134 -72t-58 -213v-138z" />
    <glyph glyph-name="f_j" unicode="fj" horiz-adv-x="1128" 
d="M1012 98q0 -94 -91 -253t-292 -318l-33 24q119 262 119 539v670h-277v-633l172 -100v-27h-590v27l125 96v637h-159v26l159 117v41q0 217 164 373t400 156q141 0 268 -37l-100 -248q-223 147 -293 147q-47 0 -97 -74q-49 -75 -49 -208v-138h451l123 33v-850z" />
    <glyph glyph-name="f_k" unicode="fk" horiz-adv-x="1746" 
d="M1159 915h551v-26l-235 -119l-166 -174l266 -367q90 -125 176 -202v-27q-91 -23 -189 -23t-153 29t-90 82l-248 361v20l242 317l-154 103v26zM1169 0h-544v27l127 96v1186q-45 29 -122 29t-134 -72t-58 -213v-138h258l-102 -155h-156v-637l140 -96v-27h-558v27l125 96
v637h-159v26l159 117v41q0 219 166 374t416 155q190 0 320 -43v-1307l122 -96v-27z" />
    <glyph glyph-name="g_g" unicode="gg" horiz-adv-x="1972" 
d="M340 649q0 -82 42 -136t89 -54t87 53t40 137t-40 137q-40 54 -87 54t-89 -54t-42 -137zM1300 649q0 -82 41 -136t89 -54t89 53q40 53 40 137t-40 137q-40 54 -87 54q-48 0 -90 -54t-42 -137zM256 -180q0 -53 57 -93t173 -40t191 57t75 135q0 43 -29 66t-66 22h-333
q-68 -68 -68 -147zM1460 -313q117 0 192 57t74 135q0 43 -29 66q-30 23 -65 22h-342q-68 -68 -68 -134t61 -106q60 -40 177 -40zM68 643q0 123 110 212q111 89 289 89q94 0 192 -31h312v-133h-176q77 -50 77 -154t-105 -190t-300 -86q-74 0 -129 15q-33 -37 -33 -66
q1 -29 17 -47t38 -19h369q70 -1 153 -73t83 -207q0 -174 -156 -308t-399 -134q-168 0 -270 63q-101 63 -101 147q0 61 60 135t139 124q-68 20 -112 76t-44 118t14 95q14 34 29 42l133 80q-88 37 -139 103t-51 149zM1028 643q0 123 111 212t288 89q94 0 193 -31h326v-133
h-193q80 -46 80 -152q1 -106 -105 -192t-301 -86q-68 0 -124 12q-31 -34 -31 -64t15 -47t38 -18h379q105 0 186 -117q47 -69 47 -163q1 -174 -155 -308t-402 -134q-168 0 -271 63t-103 147q0 61 60 135t138 124q-70 20 -114 76t-43 118q0 62 14 95q14 34 29 42l131 78
q-193 82 -193 254z" />
    <glyph glyph-name="f_f" unicode="ff" horiz-adv-x="1302" 
d="M438 915h289v23q0 164 100 303q-164 98 -223 98q-59 1 -112 -73t-54 -207v-144zM145 948q0 217 158 371t389 154q141 0 305 -78q139 78 275 78t250 -27l-88 -221q-194 111 -254 111t-110 -76q-50 -74 -50 -207v-138h299l-105 -155h-194v-633l213 -100v-27h-625v27l119 96
v637h-289v-637l119 -96v-27h-537v27l125 96v637h-159v26l159 117v45z" />
    <glyph glyph-name="f_i" unicode="fi" horiz-adv-x="1171" 
d="M20 0v27l125 96v637h-159v26l159 117v41q0 217 165 373t403 156q164 0 276 -39l-100 -248q-72 53 -162 101t-139 48t-100 -74q-50 -75 -50 -208v-138h461l125 33v-825l121 -96v-27h-537v27l119 96v637h-289v-637l119 -96v-27h-537z" />
    <glyph glyph-name="f_l" unicode="fl" horiz-adv-x="1196" 
d="M578 0h-558v27l125 96v637h-159v26l159 117v41q0 219 166 374t416 155q190 0 320 -43v-1307l124 -96v-27h-544v27l125 96v1186q-45 29 -122 29t-134 -72t-58 -213v-138h258l-102 -155h-156v-637l140 -96v-27z" />
    <glyph glyph-name="f_f_i" unicode="ffi" horiz-adv-x="1753" 
d="M438 915h289v29q0 168 98 297q-156 98 -218 98q-62 1 -115 -73t-54 -207v-144zM145 948q0 217 158 371t389 154q141 0 305 -78q139 78 300 78t274 -39l-101 -248q-72 53 -162 101t-138 48q-50 -1 -100 -75t-50 -207v-138h459l125 33v-825l122 -96v-27h-536v27l119 96v637
h-289v-637l125 -96v-27h-537v27l119 96v637h-289v-637l119 -96v-27h-537v27l125 96v637h-159v26l159 117v45z" />
    <glyph glyph-name="f_f_l" unicode="ffl" horiz-adv-x="1777" 
d="M438 915h289v29q0 168 98 297q-156 98 -218 98q-62 1 -115 -73t-54 -207v-144zM145 948q0 217 158 371t389 154q141 0 305 -78q139 78 321 78t310 -43v-1307l125 -96v-27h-545v27l123 96v1186q-45 29 -121 29t-133 -72t-57 -213v-138h258l-102 -155h-156v-637l137 -96
v-27h-549v27l119 96v637h-289v-637l119 -96v-27h-537v27l125 96v637h-159v26l159 117v45z" />
    <glyph glyph-name=".notdef" horiz-adv-x="397" 
 />
    <glyph glyph-name=".null" horiz-adv-x="0" 
 />
    <glyph glyph-name=".null" horiz-adv-x="0" 
 />
    <glyph glyph-name="nonmarkingreturn" horiz-adv-x="681" 
 />
    <glyph glyph-name="CR" unicode="&#xd;" horiz-adv-x="397" 
 />
    <glyph glyph-name="space" unicode=" " horiz-adv-x="397" 
 />
    <glyph glyph-name="exclam" unicode="!" horiz-adv-x="536" 
d="M442 143q0 -71 -50 -121t-126 -50t-124 48q-48 49 -48 123t48 124t123 50t126 -51t51 -123zM446 1356q-14 -76 -73 -469t-74 -451h-61q-12 58 -72 450t-76 470h356z" />
    <glyph glyph-name="quotedbl" unicode="&#x22;" horiz-adv-x="894" 
d="M247 1450q60 0 96 -46t36 -126t-105 -467h-53q-106 391 -106 469t36 124t96 46zM648 1450q60 0 96 -46t36 -126t-104 -467h-53q-107 391 -107 469t36 124t96 46z" />
    <glyph glyph-name="numbersign" unicode="#" horiz-adv-x="1034" 
d="M381 578h194l74 290h-194zM891 578v-121h-211l-113 -457h-133l113 457h-195l-112 -457h-134l113 457h-172v121h201l74 290h-175v123h205l90 365h133l-90 -365h195l90 365h133l-90 -365h174v-123h-205l-73 -290h182z" />
    <glyph glyph-name="dollar" unicode="$" horiz-adv-x="1005" 
d="M487 1253q-71 0 -113 -39t-42 -96t32 -99t101 -93l37 327h-15zM672 278q0 68 -34 114t-108 102l-43 -373h2q84 0 134 45q49 44 49 112zM840 1020h-29q-121 164 -199 205l-41 -371l33 -23q172 -121 253 -220t81 -251t-127 -265q-127 -112 -338 -115l-20 -185h-115l20 191
q-156 16 -270 69q-10 68 -16 213t0 250h26q63 -152 128 -245t151 -132l47 426l-23 15q-173 115 -249 216q-76 100 -76 246t122 238t318 96l16 152h115l-18 -156q133 -8 211 -28v-326z" />
    <glyph glyph-name="percent" unicode="%" horiz-adv-x="1538" 
d="M199 1052q0 -80 50 -136t126 -56t126 55t50 137t-49 136q-49 55 -126 55t-127 -55t-50 -136zM49 1047q0 137 94 231q93 94 235 94t234 -90t92 -228t-92 -232q-94 -94 -236 -93q-142 0 -235 90q-92 91 -92 228zM1214 1405l113 -80l-997 -1370l-115 76zM1159 496
q-78 0 -127 -56t-49 -136q0 -81 50 -136t126 -55t126 55t50 136q0 80 -49 136t-127 56zM1489 307q0 -137 -93 -230q-94 -93 -238 -93t-234 89t-90 227t93 231t234 93t235 -89q93 -91 93 -228z" />
    <glyph glyph-name="ampersand" unicode="&#x26;" horiz-adv-x="1566" 
d="M611 1233q-51 0 -85 -33q-34 -32 -34 -64t10 -60t45 -64q36 -35 66 -63t46 -44q82 82 82 165t-39 123t-91 40zM638 160q132 0 232 76q-184 240 -413 460q-117 -102 -117 -236t83 -217t215 -83zM233 1050q0 126 112 212q113 86 269 86t255 -70t99 -161t-69 -159
q-70 -68 -176 -114q205 -205 336 -377q74 117 147 299l-153 125v24h510v-24q-137 -91 -187 -153t-178 -294l-51 -90q73 -92 147 -132t168 -40t125 8l4 -26q-63 -74 -160 -128t-196 -54q-160 0 -274 135q-167 -147 -403 -147t-378 112q-141 113 -141 268q0 154 98 258
t246 160q-150 156 -150 282z" />
    <glyph glyph-name="quotesingle" unicode="'" horiz-adv-x="493" 
d="M247 1450q60 0 96 -46t36 -126t-105 -467h-53q-106 391 -106 469t36 124t96 46z" />
    <glyph glyph-name="parenleft" unicode="(" horiz-adv-x="700" 
d="M100 591q0 165 50 319t132 274q156 227 357 375l53 -21q-330 -426 -330 -944q0 -471 332 -950l-55 -21q-205 157 -358 377q-181 261 -181 591z" />
    <glyph glyph-name="parenright" unicode=")" horiz-adv-x="700" 
d="M598 591q0 -333 -180 -591q-155 -222 -359 -377l-55 21q332 479 332 950q0 518 -330 944l53 21q98 -72 187 -163q352 -364 352 -805z" />
    <glyph glyph-name="asterisk" unicode="*" horiz-adv-x="743" 
d="M182 817l-22 14l86 240l-232 68v24l244 35l-65 244l20 12l174 -192l182 172l21 -13l-94 -233l233 -66v-24l-237 -41l61 -234l-23 -12l-163 188z" />
    <glyph glyph-name="plus" unicode="+" horiz-adv-x="993" 
d="M86 578h344v350h133v-350h342v-125h-342v-355h-133v355h-344v125z" />
    <glyph glyph-name="comma" unicode="," horiz-adv-x="520" 
d="M227 27q-67 0 -111 41q-44 42 -44 110t50 112t129 44t136 -60t57 -161q0 -156 -102 -272t-240 -173l-39 27q164 188 205 338q-18 -6 -41 -6z" />
    <glyph glyph-name="hyphen" unicode="-" horiz-adv-x="632" 
d="M94 627h445v-238h-445v238z" />
    <glyph glyph-name="period" unicode="." horiz-adv-x="514" 
d="M430 143q0 -71 -49 -121t-125 -50t-125 48q-49 49 -49 123t49 124t124 50t125 -51t50 -123z" />
    <glyph glyph-name="slash" unicode="/" horiz-adv-x="743" 
d="M700 1518l-606 -2007l-133 36l606 2007z" />
    <glyph glyph-name="zero" unicode="0" horiz-adv-x="1122" 
d="M852 481q0 137 -84 229t-209 93t-207 -91t-82 -230t83 -230t208 -92t208 92t83 229zM51 473q1 213 149 364t363 151t361 -144q146 -142 145 -356q0 -214 -146 -364q-147 -150 -365 -151t-362 143t-145 357z" />
    <glyph glyph-name="one" unicode="1" horiz-adv-x="622" 
d="M584 0h-545v27l125 96v711l-125 96v26h545v-26l-125 -96v-711l125 -96v-27z" />
    <glyph glyph-name="two" unicode="2" horiz-adv-x="946" 
d="M788 712q0 -118 -101 -230t-292 -230h531l-115 -252h-772v27q229 235 322 365t93 220t-44 132q-45 42 -137 42t-175 -81l-43 30q36 74 102 134q126 116 293 116q166 0 252 -78q86 -77 86 -195z" />
    <glyph glyph-name="three" unicode="3" horiz-adv-x="843" 
d="M442 78q0 82 -52 129t-130 47t-166 -29l-31 45q197 144 264 236t67 160t-37 101q-37 34 -101 34t-145 -60l-43 31q121 213 354 213q133 0 203 -60t69 -157q0 -184 -278 -332l39 2q151 0 243 -79t93 -216q0 -397 -758 -643l-31 39q229 168 335 292q105 124 105 247z" />
    <glyph glyph-name="four" unicode="4" horiz-adv-x="1095" 
d="M578 199v403l-283 -403h283zM870 969v-770h205v-199h-205v-344l-292 -113v457h-564v29l670 940h186z" />
    <glyph glyph-name="five" unicode="5" horiz-adv-x="841" 
d="M420 30q0 106 -100 197q-100 92 -250 162q180 461 237 567h492l-121 -235h-367q-25 -55 -35 -86q453 -209 453 -498q0 -211 -207 -367t-524 -231l-25 43q207 126 327 234t120 214z" />
    <glyph glyph-name="six" unicode="6" horiz-adv-x="1142" 
d="M393 543q0 -193 73 -316t150 -123q59 0 110 85q50 85 50 200t-59 190t-158 74q-61 0 -90 -12l-12 35q121 135 276 135t253 -98t99 -293q0 -195 -146 -320t-343 -125q-196 0 -360 156t-164 434q0 195 87 361t230 276q276 213 635 291l14 -39q-332 -166 -488 -388
t-157 -523z" />
    <glyph glyph-name="seven" unicode="7" horiz-adv-x="987" 
d="M950 956v-26l-544 -1417l-154 36l442 1153h-676l111 254h821z" />
    <glyph glyph-name="eight" unicode="8" horiz-adv-x="1042" 
d="M367 1122q0 -59 47 -113t190 -167q86 109 86 210t-47 150t-118 49t-115 -35t-43 -94zM508 111q80 -1 129 45t49 116t-50 134t-202 176q-111 -133 -110 -273q0 -90 52 -144t132 -54zM530 1374q184 0 300 -83t116 -193q0 -176 -270 -316q168 -133 236 -226t69 -206
q0 -156 -132 -262t-337 -106t-328 83t-123 201t77 206q77 87 218 167q-145 113 -206 206t-62 193q0 152 129 244t313 92z" />
    <glyph glyph-name="nine" unicode="9" horiz-adv-x="1138" 
d="M367 594q0 -119 59 -196t158 -76q59 0 88 12l12 -35q-35 -45 -111 -90t-172 -45q-145 0 -244 105t-99 287t140 312t342 131q202 0 366 -148q165 -148 165 -423q0 -190 -80 -354q-138 -282 -483 -461q-141 -74 -293 -113l-18 37q276 185 413 401t138 490q0 203 -74 323
t-154 119q-57 0 -105 -78t-48 -198z" />
    <glyph glyph-name="colon" unicode=":" horiz-adv-x="528" 
d="M436 143q0 -71 -49 -121t-125 -50t-125 48q-49 49 -49 123t49 124t124 50t125 -51t50 -123zM436 768q0 -72 -49 -122t-125 -50t-125 49t-49 123t49 124t124 50t125 -51t50 -123z" />
    <glyph glyph-name="semicolon" unicode=";" horiz-adv-x="536" 
d="M438 768q0 -72 -49 -122t-125 -50t-125 49t-49 123t49 124t124 50t125 -51t50 -123zM242 27q-68 0 -112 41q-44 42 -44 110t50 112t129 44t136 -60t58 -161q-1 -156 -103 -272t-239 -173l-39 27q164 188 205 338q-19 -6 -41 -6z" />
    <glyph glyph-name="less" unicode="&#x3c;" horiz-adv-x="907" 
d="M88 449v131l725 284v-125l-577 -225l577 -219v-127z" />
    <glyph glyph-name="equal" unicode="=" horiz-adv-x="970" 
d="M102 573v119h766v-119h-766zM102 319v119h766v-119h-766z" />
    <glyph glyph-name="greater" unicode="&#x3e;" horiz-adv-x="907" 
d="M94 168v127l578 219l-578 225v125l725 -284v-131z" />
    <glyph glyph-name="question" unicode="?" horiz-adv-x="798" 
d="M526 143q0 -71 -50 -121t-126 -50t-125 48q-49 49 -49 123t49 124t124 50t126 -51t51 -123zM201 709q0 46 20 74t51 63l146 155q66 71 66 131q0 118 -124 118q-56 0 -135 -68q-78 -66 -137 -150h-27v311q154 31 277 31q202 0 312 -76t110 -214t-135 -259
q-29 -29 -107 -92l-78 -63q-59 -57 -59 -121l4 -113h-61q-123 199 -123 273z" />
    <glyph glyph-name="at" unicode="@" horiz-adv-x="1937" 
d="M823 213q29 0 95 47t137 133l71 346q-135 -12 -233 -155t-98 -308q-1 -63 28 -63zM1077 1188q-231 0 -417 -120t-281 -307q-96 -187 -96 -396q0 -319 190 -507t504 -190q369 0 631 236l41 -49q-95 -121 -275 -217t-436 -97q-381 0 -625 218t-243 573q0 268 138 490
t376 348t524 126q370 0 572 -178t202 -432q0 -334 -258 -516t-649 -158l53 260q-80 -110 -180 -186t-170 -76t-121 64t-51 166q0 244 191 422t458 186l289 90l-168 -829q168 43 286 175t118 362t-146 386q-145 156 -457 156z" />
    <glyph glyph-name="A" unicode="A" horiz-adv-x="1374" 
d="M440 477h316l-166 400zM481 0h-477v27l141 120l476 1213h90l518 -1213l141 -120v-27h-631v27l154 120l-80 195h-424l-70 -184l162 -131v-27z" />
    <glyph glyph-name="B" unicode="B" horiz-adv-x="1277" 
d="M530 1229v-436h158q39 0 85 61t46 162q0 100 -56 156t-153 57h-80zM530 670v-510q68 -31 155 -31t156 76q69 77 69 203t-76 194t-209 68h-95zM1243 430q0 -188 -148 -309t-397 -121h-647v27l152 120v1061l-154 121v27h613q196 0 328 -72t132 -225q0 -94 -64 -172
t-157 -113q147 -25 245 -118t97 -226z" />
    <glyph glyph-name="C" unicode="C" horiz-adv-x="1384" 
d="M844 -23q-342 0 -565 193t-224 498q0 135 54 262q115 276 403 390q154 60 362 60t394 -53v-364h-29q-70 102 -195 190t-237 88q-147 0 -272 -154q-125 -155 -125 -395t142 -404t316 -165q125 0 230 79q104 79 166 195h26v-327q-46 -31 -170 -62t-276 -31z" />
    <glyph glyph-name="D" unicode="D" horiz-adv-x="1558" 
d="M530 1214v-1052q92 -31 207 -31q168 0 294 152t126 403q0 138 -45 244q-78 184 -277 255q-85 30 -178 29h-127zM49 0v27l154 120v1061l-154 121v27h692q207 0 377 -71t279 -221t108 -353q-1 -303 -195 -507t-515 -204h-746z" />
    <glyph glyph-name="E" unicode="E" horiz-adv-x="1161" 
d="M47 0v27l154 120v1061l-154 121v27h987v-328h-26l-179 195h-301v-453h328l119 152h26v-435h-26l-119 150h-328v-498h340l183 240h28v-379h-1032z" />
    <glyph glyph-name="F" unicode="F" horiz-adv-x="1124" 
d="M1001 924v-443h-26l-121 154h-324v-488l207 -120v-27h-688v27l154 120v1061l-154 121v27h985v-336h-28l-183 203h-293v-455h324l121 156h26z" />
    <glyph glyph-name="G" unicode="G" horiz-adv-x="1515" 
d="M55 669q0 295 221 503t576 208q150 0 448 -47v-352h-28q-92 109 -209 185t-234 75q-163 0 -291 -154q-128 -153 -128 -393t135 -408t321 -167q115 0 181 43v387l-179 119v26h619v-26l-131 -119v-471q-279 -100 -522 -101q-342 0 -561 198q-218 198 -218 494z" />
    <glyph glyph-name="H" unicode="H" horiz-adv-x="1660" 
d="M530 768h600v440l-153 121v27h635v-27l-154 -121v-1061l154 -120v-27h-635v27l153 120v480h-600v-480l154 -120v-27h-635v27l154 120v1061l-154 121v27h635v-27l-154 -121v-440z" />
    <glyph glyph-name="I" unicode="I" horiz-adv-x="733" 
d="M49 0v27l154 120v1061l-154 121v27h635v-27l-154 -121v-1061l154 -120v-27h-635z" />
    <glyph glyph-name="J" unicode="J" horiz-adv-x="708" 
d="M35 1356h637v-25l-154 -123v-999q0 -156 -118 -334t-334 -319l-29 22q152 299 151 744v886l-153 123v25z" />
    <glyph glyph-name="K" unicode="K" horiz-adv-x="1511" 
d="M1509 0h-673v27l151 120l-338 500h-88l453 561l-156 121v27h557v-27l-213 -127l-303 -364l461 -691l149 -120v-27zM49 0v27l154 120v1061l-154 121v27h635v-27l-154 -121v-1061l154 -120v-27h-635z" />
    <glyph glyph-name="L" unicode="L" horiz-adv-x="1218" 
d="M1159 444v-444h-1110v27l152 120v1061l-152 121v27h631v-27l-154 -121v-1071h381l223 307h29z" />
    <glyph glyph-name="M" unicode="M" horiz-adv-x="1843" 
d="M1796 0h-637v27l156 123v808l-461 -862h-39l-453 862v-808l156 -123v-27h-471v27l154 123v1017q-6 14 -59 85q-52 71 -60 77v27h424l424 -809l416 809h448v-27l-154 -129v-1050l156 -123v-27z" />
    <glyph glyph-name="N" unicode="N" horiz-adv-x="1628" 
d="M1587 1356v-25l-155 -125v-1206h-172l-879 971v-821l211 -123v-27h-537v27l156 123v1003l-178 176v27h446l783 -875v725l-197 125v25h522z" />
    <glyph glyph-name="O" unicode="O" horiz-adv-x="1560" 
d="M412 674q0 -229 116 -388t262 -159t254 158q108 157 107 391q0 234 -113 396t-257 163q-145 0 -257 -166t-112 -395zM782 -23q-286 1 -504 189t-219 494q0 306 215 514t511 206q296 0 507 -189t211 -495t-217 -513q-218 -206 -504 -206z" />
    <glyph glyph-name="P" unicode="P" horiz-adv-x="1226" 
d="M1190 979q0 -115 -51 -202t-139 -139q-171 -102 -404 -114v51q266 104 266 371q0 135 -82 208t-200 73h-50v-1080l185 -120v-27h-666v27l152 120v1061l-152 117v31h594q263 0 405 -100t142 -277z" />
    <glyph glyph-name="Q" unicode="Q" horiz-adv-x="1560" 
d="M784 125q147 -1 256 149t109 400t-112 406t-258 155q-146 0 -257 -159q-110 -159 -110 -390t112 -396t260 -165zM1501 694q0 -229 -146 -407t-358 -240q247 -121 347 -168t250 -104t256 -75q108 -18 195 -17q87 0 153 8l6 -27q-47 -47 -198 -105q-150 -59 -302 -59
t-365 93t-543 271t-386 213q-176 111 -249 222q-102 153 -102 358q0 311 214 517t509 206t507 -192t212 -494z" />
    <glyph glyph-name="R" unicode="R" horiz-adv-x="1378" 
d="M528 1223v-467h213q29 0 73 66t44 145q0 131 -68 193q-69 62 -172 63h-90zM49 0v27l154 120v1061l-154 121v27h598q233 0 375 -79t143 -253q0 -209 -231 -326l217 -366q137 -229 244 -305v-27q-57 -14 -182 -14q-225 0 -332 192l-248 453h-105v-484l168 -120v-27h-647z
" />
    <glyph glyph-name="S" unicode="S" horiz-adv-x="1024" 
d="M575 1380q164 0 295 -34v-322h-26q-64 90 -148 158t-147 68t-101 -38q-38 -37 -38 -97q0 -59 48 -119t171 -150q88 -68 132 -106q140 -121 174 -219q22 -62 21 -136q0 -178 -130 -293t-353 -115q-158 0 -362 64q-27 111 -27 463h27q176 -381 362 -381q66 0 120 47t54 128
t-49 140q-50 59 -194 163t-217 205t-72 220q0 160 119 257q120 97 341 97z" />
    <glyph glyph-name="T" unicode="T" horiz-adv-x="1390" 
d="M1333 1356v-371h-26l-201 236h-244v-1067l178 -127v-27h-688v27l178 127v1067h-243l-201 -236h-29v371h1276z" />
    <glyph glyph-name="U" unicode="U" horiz-adv-x="1589" 
d="M1397 471q0 -157 -130 -313q-65 -78 -180 -129t-260 -52q-311 1 -473 143t-161 339v749l-154 121v27h657v-27l-176 -121v-733q0 -133 95 -216t282 -83q141 0 233 90t93 207v735l-176 121v27h505v-27l-155 -121v-737z" />
    <glyph glyph-name="V" unicode="V" horiz-adv-x="1366" 
d="M879 1356h481v-27l-137 -121l-463 -1216h-107l-512 1216l-137 121v27h664v-27l-162 -121l280 -700l256 690l-163 131v27z" />
    <glyph glyph-name="W" unicode="W" horiz-adv-x="2060" 
d="M1599 1356h457v-27l-137 -123l-393 -1214h-107l-358 932l-320 -932h-106l-496 1216l-135 121v27h633v-27l-145 -123l268 -694l217 635l-23 59l-143 123v27h606v-27l-145 -123l254 -692l219 692l-146 123v27z" />
    <glyph glyph-name="X" unicode="X" horiz-adv-x="1445" 
d="M8 0v27l176 120l369 515l-383 546l-147 121v27h690v-27l-144 -121l228 -338l223 328l-143 131v27h512v-27l-175 -121l-327 -471l401 -590l152 -120v-27h-686v27l161 120l-266 377l-264 -377l160 -120v-27h-537z" />
    <glyph glyph-name="Y" unicode="Y" horiz-adv-x="1290" 
d="M823 1356h463v-27l-131 -121l-326 -532v-522l154 -127v-27h-633v27l152 127v485l-365 569l-133 121v27h655v-27l-153 -121l242 -389l229 379l-154 131v27z" />
    <glyph glyph-name="Z" unicode="Z" horiz-adv-x="1286" 
d="M1223 461v-461h-1174v29l705 1192h-416l-209 -265h-27v400h1080v-27l-711 -1182h508l217 314h27z" />
    <glyph glyph-name="bracketleft" unicode="[" horiz-adv-x="641" 
d="M625 1440h-242v-1673h242v-105h-478v1884h478v-106z" />
    <glyph glyph-name="backslash" unicode="\" horiz-adv-x="745" 
d="M784 -453l-133 -36l-608 2007l135 36z" />
    <glyph glyph-name="bracketright" unicode="]" horiz-adv-x="641" 
d="M256 1440h-242v106h478v-1884h-478v105h242v1673z" />
    <glyph glyph-name="asciicircum" unicode="^" horiz-adv-x="894" 
d="M96 557l-37 23l373 802h29l373 -802l-37 -23l-351 375z" />
    <glyph glyph-name="underscore" unicode="_" horiz-adv-x="851" 
d="M-10 -270v123h872v-123h-872z" />
    <glyph glyph-name="grave" unicode="`" horiz-adv-x="819" 
d="M211 1317l221 168l205 -461l-23 -14z" />
    <glyph glyph-name="a" unicode="a" horiz-adv-x="985" 
d="M466 150q64 0 97 18q2 39 2 231q-178 -43 -221 -59q-22 -10 -22 -66t39 -91q41 -33 105 -33zM346 -27q-133 0 -217 74t-84 178q0 74 30 127t64 62q121 29 428 94v168q-1 38 -33 68t-92 30t-108 -35v-168l-260 78v23q41 63 126 135q167 139 328 139q160 0 243 -74t83 -143
l-6 -530q59 -33 147 -60v-28l-192 -154q-150 55 -225 139q-143 -123 -232 -123z" />
    <glyph glyph-name="b" unicode="b" horiz-adv-x="1099" 
d="M514 760q-66 0 -108 -33v-563q49 -49 116 -49q90 0 154 94q63 94 63 239t-62 229q-63 83 -163 83zM109 0v1229l-142 92v27q41 16 185 63t254 76v-672q152 131 288 131t246 -110q109 -110 109 -316q1 -135 -49 -241q-87 -186 -301 -261q-91 -31 -183 -30l-397 12h-10z" />
    <glyph glyph-name="c" unicode="c" horiz-adv-x="940" 
d="M600 944q115 0 256 -26v-300h-27q-201 188 -315 189q-60 0 -124 -78t-64 -214t91 -229t228 -93t240 43l18 -25q-51 -82 -161 -158t-234 -76q-193 0 -329 125t-136 338q-1 212 153 358t404 146z" />
    <glyph glyph-name="d" unicode="d" horiz-adv-x="1138" 
d="M608 172q41 0 88 21v546q-47 63 -132 63t-145 -84q-61 -84 -61 -226t72 -231t178 -89zM49 433q0 206 150 349t401 144q51 0 96 -4v307l-159 92v27q90 39 456 139v-1284l140 -88v-25q-53 -25 -428 -117v138q-150 -133 -259 -134q-160 0 -278 125t-119 331z" />
    <glyph glyph-name="e" unicode="e" horiz-adv-x="952" 
d="M482 815q-42 0 -89 -53t-63 -141h299q-13 98 -59 146t-88 48zM45 441q0 209 141 355q142 146 304 146q317 0 423 -407v-19h-591q4 -156 94 -240t238 -84t264 41l12 -22q-156 -233 -432 -234q-199 0 -326 127t-127 337z" />
    <glyph glyph-name="f" unicode="f" horiz-adv-x="720" 
d="M651 0h-631v27l125 96v637h-159v26l159 123v35q0 217 165 373t403 156q115 0 227 -27l-88 -221q-195 111 -254 111t-110 -75q-50 -75 -50 -208v-138h310l-105 -155h-205v-633l213 -100v-27z" />
    <glyph glyph-name="g" unicode="g" horiz-adv-x="1013" 
d="M340 649q0 -82 42 -136t89 -54t87 53t40 137t-40 137q-40 54 -87 54t-89 -54t-42 -137zM256 -180q0 -53 60 -93t180 -40t196 57t76 135q0 43 -30 66t-64 22h-350q-68 -68 -68 -147zM68 643q0 123 110 212q111 89 289 89q94 0 192 -31h328v-133h-192q77 -50 77 -154
t-105 -190t-300 -86q-74 0 -129 15q-33 -37 -33 -66q1 -29 17 -47t38 -19h385q106 0 187 -117q47 -69 47 -163q0 -174 -158 -308t-403 -134q-172 0 -276 63q-103 63 -103 147q0 61 60 135t139 124q-68 20 -112 76t-44 118t14 95q14 34 29 42l133 80q-88 37 -139 103t-51 149
z" />
    <glyph glyph-name="h" unicode="h" horiz-adv-x="1202" 
d="M764 629q0 43 -42 79t-124 36t-147 -54v-567l118 -96v-27h-538v27l123 96v1108l-140 90v27q186 74 437 139v-703q164 158 304 158t221 -80t81 -141v-598l125 -96v-27h-543v27l125 96v506z" />
    <glyph glyph-name="i" unicode="i" horiz-adv-x="600" 
d="M129 1202q0 68 48 113t118 45t117 -44t47 -113t-48 -116t-117 -47t-117 47t-48 115zM31 0v27l125 96v582l-125 92v26q184 68 422 125v-825l122 -96v-27h-544z" />
    <glyph glyph-name="j" unicode="j" horiz-adv-x="542" 
d="M424 98q0 -94 -90 -252t-291 -319l-33 24q119 270 119 539v615l-125 90v28q66 25 420 125v-850zM267 1040q-69 0 -117 47t-48 116t48 113t118 44t117 -44t47 -113t-48 -116t-117 -47z" />
    <glyph glyph-name="k" unicode="k" horiz-adv-x="1150" 
d="M561 915h553v-26l-235 -119l-166 -174l266 -367q84 -119 176 -202v-27q-99 -23 -193 -23t-149 29t-90 82l-248 361v20l242 317l-156 103v26zM573 0h-546v27l127 96v1108l-140 90v27q156 66 437 139v-1364l122 -96v-27z" />
    <glyph glyph-name="l" unicode="l" horiz-adv-x="600" 
d="M575 0h-544v27l123 96v1106l-140 92v27q156 66 437 139v-1364l124 -96v-27z" />
    <glyph glyph-name="m" unicode="m" horiz-adv-x="1748" 
d="M732 942q118 0 189 -53t95 -119q172 172 304 172t209 -78t77 -139v-602l123 -96v-27h-531v27l113 96v506q0 43 -36 77t-113 34t-132 -50v-567l111 -96v-27h-518v27l110 96v506q0 43 -36 77q-35 34 -105 34t-139 -52v-565l112 -96v-27h-534v27l125 96v582l-125 92v26
q33 15 173 57t249 68v-166q161 160 279 160z" />
    <glyph glyph-name="n" unicode="n" horiz-adv-x="1204" 
d="M643 0v27l121 96v506q0 43 -41 79t-126 36t-144 -54v-567l120 -96v-27h-542v27l125 96v582l-125 92v26q31 15 171 57t251 68v-164q168 158 306 158t219 -80t81 -141v-598l123 -96v-27h-539z" />
    <glyph glyph-name="o" unicode="o" horiz-adv-x="1107" 
d="M554 817q-73 -1 -130 -105t-57 -250t58 -252t130 -106t131 102t59 251q0 148 -59 254t-132 106zM43 446q0 224 161 360q162 136 356 136t350 -124t155 -349q0 -225 -161 -359t-355 -135q-275 0 -427 209q-80 110 -79 262z" />
    <glyph glyph-name="p" unicode="p" horiz-adv-x="1126" 
d="M526 754q-47 0 -98 -29v-551q49 -55 130 -55t142 95q62 96 62 240t-65 222t-171 78zM608 -469h-600v29l125 98v1047l-129 90v28q156 63 424 131v-149q158 137 296 137t244 -112q108 -112 107 -306q0 -240 -144 -386t-384 -146q-27 0 -119 6v-340l180 -98v-29z" />
    <glyph glyph-name="q" unicode="q" horiz-adv-x="1130" 
d="M623 172q51 0 92 18v558q-53 59 -141 59t-147 -84q-58 -84 -58 -228t73 -234q75 -89 181 -89zM1130 -469h-591v29l174 96v444q-141 -123 -250 -123q-170 0 -291 127t-121 336q-1 210 145 352t377 142q121 0 209 -35l224 107v-1350l124 -96v-29z" />
    <glyph glyph-name="r" unicode="r" horiz-adv-x="837" 
d="M649 946q68 0 170 -37l-94 -297q-121 64 -178 64t-94 -23v-520l188 -106v-27h-610v27l125 96v582l-125 92v26q39 17 176 59t246 66v-219q133 217 196 217z" />
    <glyph glyph-name="s" unicode="s" horiz-adv-x="788" 
d="M426 827q-88 0 -86 -77q0 -37 31 -65t115 -79t126 -85q43 -34 80 -97t37 -143q0 -137 -104 -221q-105 -84 -269 -83q-164 0 -276 60q-16 119 -17 330h29q57 -109 127 -181t127 -72t84 28q27 26 27 68t-30 74t-108 80q-79 48 -121 82t-79 94t-37 132q0 130 95 200t256 70
t241 -27v-245h-27q-53 72 -115 114t-106 43z" />
    <glyph glyph-name="t" unicode="t" horiz-adv-x="796" 
d="M430 760v-465q0 -41 41 -75t117 -34t149 23l15 -25q-58 -78 -148 -142t-204 -65q-114 0 -191 75q-78 75 -78 149v559h-121v35l402 327h18v-207h375l-94 -155h-281z" />
    <glyph glyph-name="u" unicode="u" horiz-adv-x="1155" 
d="M423 -23q-138 0 -215 80t-77 144v504l-123 90v28q121 51 418 127v-663q0 -43 38 -77t112 -34t147 53v476l-141 90v28q82 37 436 127v-745l133 -88v-27q-252 -80 -428 -115v162q-162 -160 -300 -160z" />
    <glyph glyph-name="v" unicode="v" horiz-adv-x="1005" 
d="M-4 915h547v-26l-113 -94l162 -394l158 394l-113 94v26h373v-26l-111 -94l-301 -732l-35 -77h-98q-2 14 -11 29t-32 69l-316 711l-110 94v26z" />
    <glyph glyph-name="w" unicode="w" horiz-adv-x="1460" 
d="M-2 915h545v-26l-109 -98l144 -381l196 524h96l209 -508l127 369l-114 94v26h370v-26l-110 -96q-16 -45 -49 -141t-57 -164q-24 -66 -82 -236t-72 -206q-15 -37 -19 -54h-96l-51 123q-61 129 -174 415l-164 -428q-22 -43 -43 -110h-96q-33 65 -56 131q-75 165 -143 329
t-141 339l-111 98v26z" />
    <glyph glyph-name="x" unicode="x" horiz-adv-x="1052" 
d="M1044 0h-540v27l114 92l-157 211l-154 -211l115 -92v-27h-412v27l131 94l238 319l-264 357l-103 94v24h553v-24l-102 -94l139 -197l137 197l-104 94v24h397v-24l-131 -96l-221 -306l264 -370l100 -92v-27z" />
    <glyph glyph-name="y" unicode="y" horiz-adv-x="1003" 
d="M162 -469v27q178 199 289 454l-345 783l-110 94v26h549v-26l-113 -96l160 -404l156 404l-113 96v26h375v-26l-111 -94l-289 -709q-125 -299 -147 -555h-301z" />
    <glyph glyph-name="z" unicode="z" horiz-adv-x="903" 
d="M852 356v-356h-825v35l454 768h-229l-162 -213h-24v325h776v-30l-449 -760h256l176 231h27z" />
    <glyph glyph-name="braceleft" unicode="{" horiz-adv-x="669" 
d="M285 422q0 131 -244 139v78q133 6 189 40t56 95q0 60 -85 234q-86 174 -86 254q0 262 510 288l22 -51q-293 -31 -293 -215q0 -82 68 -249t68 -237t-66 -123q-66 -54 -207 -73q143 -18 208 -76t65 -126t-68 -242t-68 -255t69 -146t224 -81l-22 -51q-281 6 -396 91
t-114 208q0 80 85 258t85 240z" />
    <glyph glyph-name="bar" unicode="|" horiz-adv-x="514" 
d="M190 1536h134v-1894h-134v1894z" />
    <glyph glyph-name="braceright" unicode="}" horiz-adv-x="669" 
d="M178 400q0 68 65 126q65 57 208 76q-141 18 -207 72t-66 125t68 237t67 248q0 184 -293 215l23 51q510 -27 510 -288q0 -80 -86 -253t-86 -235t56 -95q56 -34 190 -40v-78q-244 -8 -244 -139q0 -62 85 -240t85 -258q-1 -123 -115 -208t-395 -91l-23 51q156 16 225 81
t69 146t-68 255t-68 242z" />
    <glyph glyph-name="asciitilde" unicode="~" horiz-adv-x="1058" 
d="M750 647q86 0 202 191l27 -9q-23 -207 -97 -321t-171 -113q-68 0 -212 71t-196 71q-88 0 -197 -195l-28 8q25 199 100 320q76 121 166 121q66 0 214 -72t192 -72z" />
    <glyph glyph-name="exclamdown" unicode="&#xa1;" horiz-adv-x="534" 
d="M92 770q0 72 50 122t126 50t124 -49t48 -123t-48 -124t-123 -50t-126 51t-51 123zM88 -442q14 76 74 469q59 393 74 450h61q13 -57 73 -449t74 -470h-356z" />
    <glyph glyph-name="cent" unicode="&#xa2;" horiz-adv-x="952" 
d="M322 522q0 -205 143 -286l67 577h-2q-78 0 -143 -79t-65 -212zM39 448q0 194 137 334q137 141 371 162l20 170h111l-21 -170q147 -10 213 -22v-301h-28q-123 117 -203 159l-70 -583q35 -8 88 -9q135 0 242 43l19 -24q-54 -76 -152 -146t-221 -79l-21 -179h-108l20 183
q-168 28 -282 148t-115 314z" />
    <glyph glyph-name="sterling" unicode="&#xa3;" horiz-adv-x="1101" 
d="M35 578v120h186l6 242q4 198 158 318t350 120q147 0 258 -35v-321h-28q-170 227 -269 227q-106 0 -125 -178q-8 -61 -21 -189t-20 -184h295v-120h-311l-6 -41q-31 -147 -193 -265q70 25 130 25q59 0 179 -30t177 -29q129 0 260 176l24 -8q-33 -193 -123 -311t-210 -118
q-72 0 -223 65t-228 64q-135 0 -291 -145l-26 16q43 86 96 169q53 84 79 136q46 93 58 296h-182z" />
    <glyph glyph-name="yen" unicode="&#xa5;" horiz-adv-x="1259" 
d="M795 1356h460v-27l-133 -121l-268 -436h291v-117h-334v-120h334v-117h-334v-264l152 -127v-27h-627v27l151 127v264h-333v117h333v120h-333v117h270l-287 436l-131 121v27h645v-27l-151 -121l225 -368l221 358l-151 131v27z" />
    <glyph glyph-name="brokenbar" unicode="&#xa6;" horiz-adv-x="514" 
d="M190 520h134v-878h-134v878zM190 1536h134v-829h-134v829z" />
    <glyph glyph-name="section" unicode="&#xa7;" horiz-adv-x="1038" 
d="M745 305q0 61 -45 121t-179 181q-134 120 -183 169q-53 -45 -53 -106t50 -124q51 -62 177 -176t184 -171q49 45 49 106zM59 558q0 99 66 170t158 108q-97 118 -97 250t117 212t289 80q102 0 233 -24v-281h-26q-152 186 -264 187q-45 0 -78 -27t-33 -72q0 -68 87 -148
q29 -29 59 -55t62 -55t54 -47q166 -146 233 -240t66 -204q0 -193 -227 -277q106 -125 106 -250q0 -162 -116 -258t-302 -96q-184 0 -321 74q-20 201 -8 393h26q55 -137 139 -232t181 -96q69 0 109 37t40 91t-14 75t-21 33t-25 29t-30 29t-38 36q-26 23 -44 39l-54 48
q-36 32 -62 54q-156 131 -210 225t-55 192z" />
    <glyph glyph-name="dieresis" unicode="&#xa8;" horiz-adv-x="819" 
d="M602 1321q59 0 99 -41t40 -101q0 -59 -40 -99t-99 -40t-99 39t-40 99t40 102q40 41 99 41zM219 1321q59 0 99 -41t40 -101q0 -59 -40 -99t-99 -40t-100 39t-41 99t41 102q41 41 100 41z" />
    <glyph glyph-name="copyright" unicode="&#xa9;" horiz-adv-x="1533" 
d="M763 1380q291 0 495 -206t204 -497q0 -292 -200 -495q-200 -202 -497 -202q-296 0 -496 202q-199 202 -199 497q0 296 200 499q201 202 493 202zM770 92q236 0 396 170t161 415q-1 245 -163 418t-401 173t-397 -171t-159 -414q0 -243 164 -417q163 -174 399 -174z
M790 311q-172 -1 -294 103t-123 271q0 167 123 278t325 110q82 0 236 -31v-241h-25q-141 166 -235 166q-66 0 -119 -74q-53 -75 -53 -195t61 -199t141 -79q119 0 217 158h25v-213q-107 -54 -279 -54z" />
    <glyph glyph-name="ordfeminine" unicode="&#xaa;" horiz-adv-x="993" 
d="M338 894q0 -48 34 -78t92 -30q56 0 93 19q2 41 2 196q-63 -14 -205 -55q-16 -4 -16 -52zM836 1280q0 -330 -7 -449q16 -10 129 -63v-18l-192 -144q-46 14 -108 58t-91 75q-129 -121 -213 -121q-131 0 -209 66t-77 166q0 59 23 104q24 45 54 52l414 94v121q0 100 -121 100
q-51 0 -86 -25v-157l-254 86v12q50 64 124 124q146 120 307 120q159 0 233 -68t74 -133z" />
    <glyph glyph-name="guillemotleft" unicode="&#xab;" horiz-adv-x="1001" 
d="M90 479v19l342 360l53 -22l-135 -351l135 -344l-53 -20zM510 479v19l342 360l53 -22l-135 -351l135 -344l-53 -20z" />
    <glyph glyph-name="registered" unicode="&#xae;" horiz-adv-x="923" 
d="M430 1163v-119h64q10 0 19 16t9 40q0 63 -63 63h-29zM256 819v15l47 45v278l-47 47v17h246q70 0 106 -28t37 -79q0 -51 -65 -86l61 -108q41 -63 64 -82v-17q-37 -4 -64 -4q-86 0 -115 62l-59 112h-37v-112l51 -45v-15h-225zM778 999q0 139 -90 233t-227 95
q-137 0 -227 -93q-90 -94 -91 -234q1 -140 93 -233t227 -93t225 93t90 232zM877 999q0 -171 -119 -289t-296 -118t-296 118t-119 290t119 290q119 119 296 119t296 -119t119 -291z" />
    <glyph glyph-name="macron" unicode="&#xaf;" horiz-adv-x="819" 
d="M152 1253h516v-170h-516v170z" />
    <glyph glyph-name="degree" unicode="&#xb0;" horiz-adv-x="669" 
d="M334 1251q-66 0 -108 -47t-42 -118q0 -70 42 -116t106 -46t109 46q44 46 44 116q-1 70 -43 118q-42 47 -108 47zM334 803q-123 0 -207 81q-84 82 -84 202t84 203t207 83t208 -81t85 -203t-85 -203q-85 -82 -208 -82z" />
    <glyph glyph-name="twosuperior" unicode="&#xb2;" horiz-adv-x="737" 
d="M342 1168q0 134 -134 132q-64 0 -140 -55l-27 15q25 78 105 150t209 71q130 -1 202 -63t72 -169q0 -229 -391 -413h329l95 131h24v-320h-657v92q181 181 247 271t66 158z" />
    <glyph glyph-name="threesuperior" unicode="&#xb3;" horiz-adv-x="653" 
d="M266 1243q0 82 -102 82q-51 0 -105 -31l-24 21q96 166 293 166q100 0 152 -40t52 -112q0 -119 -194 -188h10q113 0 188 -50q74 -50 74 -161t-109 -197q-130 -102 -466 -104l-12 28q145 57 216 117t70 139q0 111 -166 111l-57 -4l-10 41q104 53 147 95t43 87z" />
    <glyph glyph-name="acute" unicode="&#xb4;" horiz-adv-x="819" 
d="M221 1008l-24 14l204 461l224 -168z" />
    <glyph glyph-name="paragraph" unicode="&#xb6;" horiz-adv-x="1120" 
d="M1071 1356v-27l-153 -121v-1061l153 -120v-27h-311v1356h311zM461 672q-197 0 -311 94t-115 251q0 157 102 248t287 91h199v-1356h-312v27l156 120v525h-6z" />
    <glyph glyph-name="periodcentered" unicode="&#xb7;" horiz-adv-x="514" 
d="M430 520q0 -72 -49 -122t-125 -50t-125 49t-49 123t49 124t124 50t125 -51t50 -123z" />
    <glyph glyph-name="cedilla" unicode="&#xb8;" horiz-adv-x="819" 
d="M639 -309q0 -95 -111 -155t-340 -71l-6 27q227 98 228 172q0 34 -40 56t-87 28l-9 10l58 119q57 111 57 123h96l-55 -115q90 -20 150 -72t59 -122z" />
    <glyph glyph-name="onesuperior" unicode="&#xb9;" horiz-adv-x="550" 
d="M524 647h-491v27l110 82v512l-114 67v27q143 57 387 127v-733l108 -82v-27z" />
    <glyph glyph-name="ordmasculine" unicode="&#xba;" horiz-adv-x="1069" 
d="M535 1481q181 0 321 -113q140 -114 139 -308q0 -194 -140 -318t-319 -124t-320 113q-140 113 -140 307t139 318q139 125 320 125zM538 739q62 0 112 85q50 86 50 226t-54 226t-116 86t-110 -86q-49 -86 -49 -227t52 -226q53 -84 115 -84z" />
    <glyph glyph-name="guillemotright" unicode="&#xbb;" horiz-adv-x="1001" 
d="M909 498v-19l-342 -358l-53 20l135 344l-135 351l53 22zM489 498v-19l-342 -358l-53 20l135 344l-135 351l53 22z" />
    <glyph glyph-name="onequarter" unicode="&#xbc;" horiz-adv-x="1701" 
d="M1217 1432l110 -76l-977 -1432l-110 76zM524 539h-491v26l110 82v512l-114 68v26q143 57 387 127v-733l108 -82v-26zM1255 362v281l-206 -281h206zM1620 0h-469v27l104 84v104h-370v88l385 518h243v-459h170l-73 -147h-97v-104l107 -84v-27z" />
    <glyph glyph-name="onehalf" unicode="&#xbd;" horiz-adv-x="1695" 
d="M1217 1432l110 -76l-977 -1432l-110 76zM524 539h-491v26l110 82v512l-114 68v26q143 57 387 127v-733l108 -82v-26zM1640 319v-319h-657v94q182 182 248 270q65 88 65 156q0 67 -35 102q-36 34 -103 34t-136 -58l-27 14q25 78 105 150t210 72t202 -62t71 -168
q0 -229 -395 -416h334l94 131h24z" />
    <glyph glyph-name="threequarters" unicode="&#xbe;" horiz-adv-x="1736" 
d="M1251 1432l111 -76l-977 -1432l-111 76zM266 1135q0 82 -102 82q-51 0 -105 -31l-24 20q96 166 293 166q100 0 152 -40t52 -111q0 -119 -194 -189h10q113 0 188 -50q74 -50 74 -161t-119 -204t-456 -97l-12 29q145 57 216 117t70 139q0 111 -166 110l-57 -4l-10 41
q104 54 147 96t43 87zM1290 362v281l-207 -281h207zM1655 0h-469v27l104 84v104h-370v88l385 518h243v-459h170l-73 -147h-97v-104l107 -84v-27z" />
    <glyph glyph-name="questiondown" unicode="&#xbf;" horiz-adv-x="798" 
d="M272 770q0 72 50 122t126 50t125 -49t49 -123t-48 -124q-50 -50 -125 -50t-126 51t-51 123zM598 205q0 -49 -31 -88q-10 -14 -41 -49l-145 -156q-66 -72 -66 -131t34 -88q35 -29 91 -29t134 67t137 150h26v-311q-154 -31 -276 -31q-201 0 -311 77q-110 76 -111 214
q0 138 135 258q43 43 107 94q63 50 77 62q59 57 60 121l-4 112h61q123 -199 123 -272z" />
    <glyph glyph-name="Agrave" unicode="&#xc0;" horiz-adv-x="1374" 
d="M387 1532l84 237l459 -286l-12 -27zM440 477h316l-166 400zM481 0h-477v27l141 120l476 1213h90l518 -1213l141 -120v-27h-631v27l154 120l-80 195h-424l-70 -184l162 -131v-27z" />
    <glyph glyph-name="Aacute" unicode="&#xc1;" horiz-adv-x="1374" 
d="M418 1456l-12 27l458 286l82 -237zM440 477h316l-166 400zM481 0h-477v27l141 120l476 1213h90l518 -1213l141 -120v-27h-631v27l154 120l-80 195h-424l-70 -184l162 -131v-27z" />
    <glyph glyph-name="Acircumflex" unicode="&#xc2;" horiz-adv-x="1374" 
d="M668 1776l321 -312l-14 -22l-307 96l-310 -96l-16 22zM440 477h316l-166 400zM481 0h-477v27l141 120l476 1213h90l518 -1213l141 -120v-27h-631v27l154 120l-80 195h-424l-70 -184l162 -131v-27z" />
    <glyph glyph-name="Atilde" unicode="&#xc3;" horiz-adv-x="1374" 
d="M561 1706q29 0 139 -23t140 -22q61 0 151 98l23 -10q-25 -117 -81 -197t-116 -79q-35 -1 -143 21t-135 22q-51 0 -152 -101l-25 10q30 115 88 198t111 83zM440 477h316l-166 400zM481 0h-477v27l141 120l476 1213h90l518 -1213l141 -120v-27h-631v27l154 120l-80 195
h-424l-70 -184l162 -131v-27z" />
    <glyph glyph-name="Adieresis" unicode="&#xc4;" horiz-adv-x="1374" 
d="M879 1731q59 0 99 -40q40 -41 40 -101t-40 -99t-99 -39t-100 39q-40 39 -40 99t40 101q41 40 100 40zM458 1731q58 0 99 -40q41 -41 41 -101t-41 -99t-99 -39t-100 39q-41 39 -41 99t41 101q42 40 100 40zM440 477h316l-166 400zM481 0h-477v27l141 120l476 1213h90
l518 -1213l141 -120v-27h-631v27l154 120l-80 195h-424l-70 -184l162 -131v-27z" />
    <glyph glyph-name="Aring" unicode="&#xc5;" horiz-adv-x="1374" 
d="M453 1643q0 88 64 149q65 61 151 61t148 -61t62 -148q0 -88 -62 -146t-150 -58t-151 57q-62 58 -62 146zM668 1536q48 0 76 31t28 79t-29 78t-75 31t-77 -31q-30 -32 -30 -78t30 -78t77 -32zM440 477h316l-166 400zM481 0h-477v27l141 120l476 1213h90l518 -1213
l141 -120v-27h-631v27l154 120l-80 195h-424l-70 -184l162 -131v-27z" />
    <glyph glyph-name="AE" unicode="&#xc6;" horiz-adv-x="1814" 
d="M870 664v544l-303 -544h303zM1733 379v-379h-1016v27l153 120v381h-378l-205 -370l162 -131v-27h-457v27l112 120l584 1061l-153 121v27h1153v-328h-27l-178 195h-287v-453h315l117 152h27v-435h-27l-117 150h-315v-498h328l180 240h29z" />
    <glyph glyph-name="Ccedilla" unicode="&#xc7;" horiz-adv-x="1384" 
d="M938 -309q0 -95 -111 -155t-340 -71l-6 27q227 98 228 172q0 34 -40 56t-87 28l-9 10l58 119q44 85 54 112q-237 35 -406 181q-223 193 -224 498q0 135 54 262q115 276 403 390q154 60 362 60t394 -53v-364h-29q-70 102 -195 190t-237 88q-147 0 -272 -154
q-125 -155 -125 -395t142 -404t316 -165q125 0 230 79q104 79 166 195h26v-327q-47 -31 -187 -66t-328 -24l-46 -95q89 -20 149 -72t60 -122z" />
    <glyph glyph-name="Egrave" unicode="&#xc8;" horiz-adv-x="1161" 
d="M319 1532l84 237l459 -286l-12 -27zM47 0v27l154 120v1061l-154 121v27h987v-328h-26l-179 195h-301v-453h328l119 152h26v-435h-26l-119 150h-328v-498h340l183 240h28v-379h-1032z" />
    <glyph glyph-name="Eacute" unicode="&#xc9;" horiz-adv-x="1161" 
d="M356 1456l-12 27l459 286l82 -237zM47 0v27l154 120v1061l-154 121v27h987v-328h-26l-179 195h-301v-453h328l119 152h26v-435h-26l-119 150h-328v-498h340l183 240h28v-379h-1032z" />
    <glyph glyph-name="Ecircumflex" unicode="&#xca;" horiz-adv-x="1161" 
d="M582 1776l321 -312l-14 -22l-307 96l-310 -96l-16 22zM47 0v27l154 120v1061l-154 121v27h987v-328h-26l-179 195h-301v-453h328l119 152h26v-435h-26l-119 150h-328v-498h340l183 240h28v-379h-1032z" />
    <glyph glyph-name="Edieresis" unicode="&#xcb;" horiz-adv-x="1161" 
d="M795 1731q59 0 99 -40q40 -41 40 -101t-40 -99t-99 -39t-100 39q-40 39 -40 99t40 101q41 40 100 40zM374 1731q58 0 99 -40q41 -41 41 -101t-41 -99t-99 -39t-100 39q-41 39 -41 99t41 101q42 40 100 40zM47 0v27l154 120v1061l-154 121v27h987v-328h-26l-179 195h-301
v-453h328l119 152h26v-435h-26l-119 150h-328v-498h340l183 240h28v-379h-1032z" />
    <glyph glyph-name="Igrave" unicode="&#xcc;" horiz-adv-x="733" 
d="M92 1532l84 237l459 -286l-12 -27zM49 0v27l154 120v1061l-154 121v27h635v-27l-154 -121v-1061l154 -120v-27h-635z" />
    <glyph glyph-name="Iacute" unicode="&#xcd;" horiz-adv-x="733" 
d="M117 1456l-13 27l459 286l82 -237zM49 0v27l154 120v1061l-154 121v27h635v-27l-154 -121v-1061l154 -120v-27h-635z" />
    <glyph glyph-name="Icircumflex" unicode="&#xce;" horiz-adv-x="733" 
d="M369 1776l321 -312l-14 -22l-307 96l-310 -96l-16 22zM49 0v27l154 120v1061l-154 121v27h635v-27l-154 -121v-1061l154 -120v-27h-635z" />
    <glyph glyph-name="Idieresis" unicode="&#xcf;" horiz-adv-x="733" 
d="M580 1731q59 0 99 -40q40 -41 40 -101t-40 -99t-99 -39t-100 39q-40 39 -40 99t40 101q41 40 100 40zM159 1731q58 0 99 -40q41 -41 41 -101t-41 -99t-99 -39t-100 39q-41 39 -41 99t41 101q42 40 100 40zM49 0v27l154 120v1061l-154 121v27h635v-27l-154 -121v-1061
l154 -120v-27h-635z" />
    <glyph glyph-name="Eth" unicode="&#xd0;" horiz-adv-x="1558" 
d="M530 618v-456q92 -31 207 -31q168 0 294 152t126 403q0 138 -45 244q-78 184 -277 255q-85 30 -178 29h-127v-462h349v-134h-349zM33 752h170v456l-154 121v27h692q207 0 377 -71t279 -221t108 -353q-1 -303 -195 -507t-515 -204h-746v27l154 120v471h-170v134z" />
    <glyph glyph-name="Ntilde" unicode="&#xd1;" horiz-adv-x="1628" 
d="M762 1706q30 0 140 -23t138 -22q61 0 152 98l22 -10q-24 -117 -80 -197t-116 -79q-35 -1 -144 21t-135 22q-51 0 -151 -101l-25 10q31 115 88 198q58 83 111 83zM1587 1356v-25l-155 -125v-1206h-172l-879 971v-821l211 -123v-27h-537v27l156 123v1003l-178 176v27h446
l783 -875v725l-197 125v25h522z" />
    <glyph glyph-name="Ograve" unicode="&#xd2;" horiz-adv-x="1560" 
d="M500 1532l84 237l458 -286l-12 -27zM412 674q0 -229 116 -388t262 -159t254 158q108 157 107 391q0 234 -113 396t-257 163q-145 0 -257 -166t-112 -395zM782 -23q-286 1 -504 189t-219 494q0 306 215 514t511 206q296 0 507 -189t211 -495t-217 -513
q-218 -206 -504 -206z" />
    <glyph glyph-name="Oacute" unicode="&#xd3;" horiz-adv-x="1560" 
d="M532 1456l-12 27l459 286l82 -237zM412 674q0 -229 116 -388t262 -159t254 158q108 157 107 391q0 234 -113 396t-257 163q-145 0 -257 -166t-112 -395zM782 -23q-286 1 -504 189t-219 494q0 306 215 514t511 206q296 0 507 -189t211 -495t-217 -513q-218 -206 -504 -206
z" />
    <glyph glyph-name="Ocircumflex" unicode="&#xd4;" horiz-adv-x="1560" 
d="M780 1776l322 -312l-15 -22l-307 96l-309 -96l-16 22zM412 674q0 -229 116 -388t262 -159t254 158q108 157 107 391q0 234 -113 396t-257 163q-145 0 -257 -166t-112 -395zM782 -23q-286 1 -504 189t-219 494q0 306 215 514t511 206q296 0 507 -189t211 -495t-217 -513
q-218 -206 -504 -206z" />
    <glyph glyph-name="Otilde" unicode="&#xd5;" horiz-adv-x="1560" 
d="M678 1706q32 0 140 -23t138 -22q61 0 152 98l22 -10q-24 -117 -80 -197t-116 -79q-36 -1 -144 21t-135 22q-51 0 -151 -101l-25 10q31 115 88 198q58 83 111 83zM412 674q0 -229 116 -388t262 -159t254 158q108 157 107 391q0 234 -113 396t-257 163q-145 0 -257 -166
t-112 -395zM782 -23q-286 1 -504 189t-219 494q0 306 215 514t511 206q296 0 507 -189t211 -495t-217 -513q-218 -206 -504 -206z" />
    <glyph glyph-name="Odieresis" unicode="&#xd6;" horiz-adv-x="1560" 
d="M991 1731q59 0 99 -40q40 -41 40 -101t-40 -99t-98 -39q-60 0 -100 39t-40 99t40 100t99 41zM430 1590q0 60 41 100t99 41q58 0 100 -40q42 -41 41 -101q0 -60 -41 -99q-42 -39 -100 -39t-99 39t-41 99zM412 674q0 -229 116 -388t262 -159t254 158q108 157 107 391
q0 234 -113 396t-257 163q-145 0 -257 -166t-112 -395zM782 -23q-286 1 -504 189t-219 494q0 306 215 514t511 206q296 0 507 -189t211 -495t-217 -513q-218 -206 -504 -206z" />
    <glyph glyph-name="multiply" unicode="&#xd7;" horiz-adv-x="827" 
d="M66 246l262 270l-260 270l90 88l256 -268l260 268l90 -86l-264 -272l260 -270l-88 -84l-258 266l-260 -266z" />
    <glyph glyph-name="Oslash" unicode="&#xd8;" horiz-adv-x="1560" 
d="M403 676q0 -178 70 -322l520 781q-96 100 -217 100q-145 0 -259 -165t-114 -394zM1153 659q0 214 -74 355l-524 -778q99 -106 239 -106t250 157q110 158 109 372zM55 646q0 322 215 528t510 206q172 0 330 -73l125 186l117 -74l-123 -182q127 -90 199 -227t71 -308
q0 -313 -216 -518t-492 -204q-186 0 -353 79l-143 -213l-115 72l142 211q-267 195 -267 517z" />
    <glyph glyph-name="Ugrave" unicode="&#xd9;" horiz-adv-x="1589" 
d="M578 1532l84 237l458 -286l-12 -27zM1397 471q0 -157 -130 -313q-65 -78 -180 -129t-260 -52q-311 1 -473 143t-161 339v749l-154 121v27h657v-27l-176 -121v-733q0 -133 95 -216t282 -83q141 0 233 90t93 207v735l-176 121v27h505v-27l-155 -121v-737z" />
    <glyph glyph-name="Uacute" unicode="&#xda;" horiz-adv-x="1589" 
d="M621 1456l-13 27l459 286l82 -237zM1397 471q0 -157 -130 -313q-65 -78 -180 -129t-260 -52q-311 1 -473 143t-161 339v749l-154 121v27h657v-27l-176 -121v-733q0 -133 95 -216t282 -83q141 0 233 90t93 207v735l-176 121v27h505v-27l-155 -121v-737z" />
    <glyph glyph-name="Ucircumflex" unicode="&#xdb;" horiz-adv-x="1589" 
d="M868 1776l322 -312l-14 -22l-308 96l-309 -96l-16 22zM1397 471q0 -157 -130 -313q-65 -78 -180 -129t-260 -52q-311 1 -473 143t-161 339v749l-154 121v27h657v-27l-176 -121v-733q0 -133 95 -216t282 -83q141 0 233 90t93 207v735l-176 121v27h505v-27l-155 -121v-737z
" />
    <glyph glyph-name="Udieresis" unicode="&#xdc;" horiz-adv-x="1589" 
d="M1071 1731q59 0 99 -40q40 -41 40 -101t-40 -99t-99 -39t-99 39t-40 99t40 100t99 41zM510 1590q0 60 41 100t99 41q58 0 100 -40q42 -41 41 -101q0 -60 -41 -99q-42 -39 -100 -39t-99 39t-41 99zM1397 471q0 -157 -130 -313q-65 -78 -180 -129t-260 -52q-311 1 -473 143
t-161 339v749l-154 121v27h657v-27l-176 -121v-733q0 -133 95 -216t282 -83q141 0 233 90t93 207v735l-176 121v27h505v-27l-155 -121v-737z" />
    <glyph glyph-name="Yacute" unicode="&#xdd;" horiz-adv-x="1290" 
d="M471 1456l-12 27l459 286l81 -237zM823 1356h463v-27l-131 -121l-326 -532v-522l154 -127v-27h-633v27l152 127v485l-365 569l-133 121v27h655v-27l-153 -121l242 -389l229 379l-154 131v27z" />
    <glyph glyph-name="Thorn" unicode="&#xde;" horiz-adv-x="1239" 
d="M684 0h-635v27l154 120v1061l-154 123v25h635v-25l-154 -123v-145h134q549 0 548 -326q0 -182 -181 -279t-433 -98v52q117 32 202 108t85 188t-80 168t-205 56h-70v-785l154 -120v-27z" />
    <glyph glyph-name="germandbls" unicode="&#xdf;" horiz-adv-x="1196" 
d="M707 1470q176 0 275 -80t99 -194q0 -68 -43 -130t-94 -101q-137 -105 -137 -162q-1 -33 23 -63t130 -110t163 -159t57 -197t-104 -207t-254 -89t-238 40q-16 152 -15 312h19q41 -88 98 -155t121 -66q41 -1 71 31t30 80t-29 87t-121 112t-137 132t-45 125t34 128
q35 60 78 104t78 113t35 149t-46 121q-46 42 -118 42q-72 -1 -135 -73t-64 -213v-924l94 -96v-27h-512v27l125 96v637h-159v26l159 117v47q0 223 164 372q165 148 398 148z" />
    <glyph glyph-name="agrave" unicode="&#xe0;" horiz-adv-x="985" 
d="M466 150q64 0 97 18q2 39 2 231q-178 -43 -221 -59q-22 -10 -22 -66t39 -91q41 -33 105 -33zM346 -27q-133 0 -217 74t-84 178q0 74 30 127t64 62q121 29 428 94v168q-1 38 -33 68t-92 30t-108 -35v-168l-260 78v23q41 63 126 135q167 139 328 139q160 0 243 -74t83 -143
l-6 -530q59 -33 147 -60v-28l-192 -154q-150 55 -225 139q-143 -123 -232 -123zM217 1317l221 168l205 -461l-22 -14z" />
    <glyph glyph-name="aacute" unicode="&#xe1;" horiz-adv-x="985" 
d="M466 150q64 0 97 18q2 39 2 231q-178 -43 -221 -59q-22 -10 -22 -66t39 -91q41 -33 105 -33zM346 -27q-133 0 -217 74t-84 178q0 74 30 127t64 62q121 29 428 94v168q-1 38 -33 68t-92 30t-108 -35v-168l-260 78v23q41 63 126 135q167 139 328 139q160 0 243 -74t83 -143
l-6 -530q59 -33 147 -60v-28l-192 -154q-150 55 -225 139q-143 -123 -232 -123zM348 1008l-24 14l204 461l224 -168z" />
    <glyph glyph-name="acircumflex" unicode="&#xe2;" horiz-adv-x="985" 
d="M466 150q64 0 97 18q2 39 2 231q-178 -43 -221 -59q-22 -10 -22 -66t39 -91q41 -33 105 -33zM346 -27q-133 0 -217 74t-84 178q0 74 30 127t64 62q121 29 428 94v168q-1 38 -33 68t-92 30t-108 -35v-168l-260 78v23q41 63 126 135q167 139 328 139q160 0 243 -74t83 -143
l-6 -530q59 -33 147 -60v-28l-192 -154q-150 55 -225 139q-143 -123 -232 -123zM461 1485h28l252 -463l-22 -18l-244 180l-244 -180l-22 18z" />
    <glyph glyph-name="atilde" unicode="&#xe3;" horiz-adv-x="985" 
d="M391 1309q25 0 126 -29t128 -29q47 0 139 119l23 -6q-13 -123 -63 -213t-109 -90q-33 0 -132 29t-126 28q-39 0 -139 -117l-23 7q13 113 67 207t109 94zM466 150q64 0 97 18q2 39 2 231q-178 -43 -221 -59q-22 -10 -22 -66t39 -91q41 -33 105 -33zM346 -27
q-133 0 -217 74t-84 178q0 74 30 127t64 62q121 29 428 94v168q-1 38 -33 68t-92 30t-108 -35v-168l-260 78v23q41 63 126 135q167 139 328 139q160 0 243 -74t83 -143l-6 -530q59 -33 147 -60v-28l-192 -154q-150 55 -225 139q-143 -123 -232 -123z" />
    <glyph glyph-name="adieresis" unicode="&#xe4;" horiz-adv-x="985" 
d="M682 1321q59 0 99 -41t40 -101q0 -59 -40 -99t-99 -40t-99 39t-40 99t40 102q40 41 99 41zM299 1321q59 0 99 -41t40 -101q0 -59 -40 -99t-99 -40t-100 39t-41 99t41 102q41 41 100 41zM466 150q64 0 97 18q2 39 2 231q-178 -43 -221 -59q-22 -10 -22 -66t39 -91
q41 -33 105 -33zM346 -27q-133 0 -217 74t-84 178q0 74 30 127t64 62q121 29 428 94v168q-1 38 -33 68t-92 30t-108 -35v-168l-260 78v23q41 63 126 135q167 139 328 139q160 0 243 -74t83 -143l-6 -530q59 -33 147 -60v-28l-192 -154q-150 55 -225 139q-143 -123 -232 -123
z" />
    <glyph glyph-name="aring" unicode="&#xe5;" horiz-adv-x="985" 
d="M466 150q64 0 97 18q2 39 2 231q-178 -43 -221 -59q-22 -10 -22 -66t39 -91q41 -33 105 -33zM346 -27q-133 0 -217 74t-84 178q0 74 30 127t64 62q121 29 428 94v168q-1 38 -33 68t-92 30t-108 -35v-168l-260 78v23q41 63 126 135q167 139 328 139q160 0 243 -74t83 -143
l-6 -530q59 -33 147 -60v-28l-192 -154q-150 55 -225 139q-143 -123 -232 -123zM266 1221q0 88 64 148q64 61 149 61t149 -60t64 -148q0 -86 -62 -146t-150 -60t-152 58q-62 58 -62 147zM479 1333q-47 -1 -77 -33t-29 -78q-1 -46 29 -78t77 -32t76 31t29 78t-29 79t-76 33z
" />
    <glyph glyph-name="ae" unicode="&#xe6;" horiz-adv-x="1445" 
d="M996 827q-45 0 -99 -71q-53 -72 -59 -185l292 78q-12 84 -50 131t-84 47zM478 150q83 0 136 49q-47 90 -55 204q-211 -63 -219 -67q-20 -16 -20 -68t37 -86q38 -32 121 -32zM561 674q0 44 -34 72q-33 28 -97 28t-98 -35v-168l-262 78v23q124 146 210 196q44 27 114 52
t143 24q147 0 221 -102q115 100 264 100q246 0 397 -317v-19l-577 -137q18 -131 104 -203t228 -72t253 44l13 -25q-53 -80 -166 -157t-266 -76q-213 0 -340 143q-62 -68 -148 -109t-172 -41q-137 0 -221 72t-84 178q0 76 29 126t63 59l426 102v164z" />
    <glyph glyph-name="ccedilla" unicode="&#xe7;" horiz-adv-x="940" 
d="M600 944q115 0 256 -26v-300h-27q-201 188 -315 189q-60 0 -124 -78t-64 -214t91 -229t228 -93t240 43l18 -25q-51 -83 -159 -157t-228 -76l-45 -93q89 -20 149 -72t60 -122q0 -95 -111 -155t-340 -71l-6 27q227 98 228 172q0 34 -40 56t-87 28l-9 10l58 119
q40 77 52 107q-140 22 -246 118q-136 125 -136 338q-1 212 153 358t404 146z" />
    <glyph glyph-name="egrave" unicode="&#xe8;" horiz-adv-x="952" 
d="M482 815q-42 0 -89 -53t-63 -141h299q-13 98 -59 146t-88 48zM45 441q0 209 141 355q142 146 304 146q317 0 423 -407v-19h-591q4 -156 94 -240t238 -84t264 41l12 -22q-156 -233 -432 -234q-199 0 -326 127t-127 337zM219 1317l221 168l205 -461l-22 -14z" />
    <glyph glyph-name="eacute" unicode="&#xe9;" horiz-adv-x="952" 
d="M482 815q-42 0 -89 -53t-63 -141h299q-13 98 -59 146t-88 48zM45 441q0 209 141 355q142 146 304 146q317 0 423 -407v-19h-591q4 -156 94 -240t238 -84t264 41l12 -22q-156 -233 -432 -234q-199 0 -326 127t-127 337zM352 1008l-24 14l204 461l224 -168z" />
    <glyph glyph-name="ecircumflex" unicode="&#xea;" horiz-adv-x="952" 
d="M467 1485h29l252 -463l-23 -18l-244 180l-243 -180l-23 18zM482 815q-42 0 -89 -53t-63 -141h299q-13 98 -59 146t-88 48zM45 441q0 209 141 355q142 146 304 146q317 0 423 -407v-19h-591q4 -156 94 -240t238 -84t264 41l12 -22q-156 -233 -432 -234q-199 0 -326 127
t-127 337z" />
    <glyph glyph-name="edieresis" unicode="&#xeb;" horiz-adv-x="952" 
d="M482 815q-42 0 -89 -53t-63 -141h299q-13 98 -59 146t-88 48zM45 441q0 209 141 355q142 146 304 146q317 0 423 -407v-19h-591q4 -156 94 -240t238 -84t264 41l12 -22q-156 -233 -432 -234q-199 0 -326 127t-127 337zM676 1321q59 0 99 -41t40 -101q0 -59 -40 -99
t-99 -40t-99 39t-40 99t40 102q40 41 99 41zM293 1321q59 0 99 -41t40 -101q0 -59 -40 -99t-99 -40t-100 39t-41 99t41 102q41 41 100 41z" />
    <glyph glyph-name="igrave" unicode="&#xec;" horiz-adv-x="600" 
d="M29 1317l221 168l205 -461l-23 -14zM31 0v27l125 96v582l-125 92v26q184 68 422 125v-825l120 -96v-27h-542z" />
    <glyph glyph-name="iacute" unicode="&#xed;" horiz-adv-x="600" 
d="M31 0v27l125 96v582l-125 92v26q184 68 422 125v-825l120 -96v-27h-542zM143 1008l-24 14l205 461l223 -168z" />
    <glyph glyph-name="icircumflex" unicode="&#xee;" horiz-adv-x="600" 
d="M31 0v27l125 96v582l-125 92v26q184 68 422 125v-825l120 -96v-27h-542zM274 1485h29l252 -463l-23 -18l-243 180l-244 -180l-22 18z" />
    <glyph glyph-name="idieresis" unicode="&#xef;" horiz-adv-x="600" 
d="M483 1321q59 0 99 -41t41 -101q0 -59 -40 -99q-39 -40 -99 -40t-101 39t-41 99t41 102q41 41 100 41zM108 1321q58 0 99 -41t41 -101q0 -59 -41 -99t-99 -40t-100 39q-41 39 -41 99t41 102q42 41 100 41zM31 0v27l125 96v582l-125 92v26q184 68 422 125v-825l120 -96v-27
h-542z" />
    <glyph glyph-name="eth" unicode="&#xf0;" horiz-adv-x="1112" 
d="M562 807q-87 0 -138 -84t-51 -242q0 -157 57 -267t129 -110t125 120t53 317q0 113 -28 223q-60 43 -147 43zM1057 573q0 -274 -152 -436q-151 -162 -359 -162q-208 1 -352 135t-144 354t121 343q122 123 302 123q113 0 199 -56q-59 137 -164 263l-289 -158l-53 100
l260 142q-115 113 -281 217l15 37q236 -53 434 -162l233 127l56 -101l-178 -96q352 -262 352 -670z" />
    <glyph glyph-name="ntilde" unicode="&#xf1;" horiz-adv-x="1204" 
d="M496 1309q25 0 126 -29t128 -29q47 0 139 119l22 -6q-12 -123 -62 -213t-110 -90q-33 0 -132 29t-126 28q-39 0 -139 -117l-23 7q12 113 67 207t110 94zM643 0v27l121 96v506q0 43 -41 79t-126 36t-144 -54v-567l120 -96v-27h-542v27l125 96v582l-125 92v26q31 15 171 57
t251 68v-164q168 158 306 158t219 -80t81 -141v-598l123 -96v-27h-539z" />
    <glyph glyph-name="ograve" unicode="&#xf2;" horiz-adv-x="1107" 
d="M266 1317l221 168l205 -461l-22 -14zM554 817q-73 -1 -130 -105t-57 -250t58 -252t130 -106t131 102t59 251q0 148 -59 254t-132 106zM43 446q0 224 161 360q162 136 356 136t350 -124t155 -349q0 -225 -161 -359t-355 -135q-275 0 -427 209q-80 110 -79 262z" />
    <glyph glyph-name="oacute" unicode="&#xf3;" horiz-adv-x="1107" 
d="M554 817q-73 -1 -130 -105t-57 -250t58 -252t130 -106t131 102t59 251q0 148 -59 254t-132 106zM43 446q0 224 161 360q162 136 356 136t350 -124t155 -349q0 -225 -161 -359t-355 -135q-275 0 -427 209q-80 110 -79 262zM436 1008l-24 14l204 461l224 -168z" />
    <glyph glyph-name="ocircumflex" unicode="&#xf4;" horiz-adv-x="1107" 
d="M539 1485h28l252 -463l-22 -18l-244 180l-244 -180l-22 18zM554 817q-73 -1 -130 -105t-57 -250t58 -252t130 -106t131 102t59 251q0 148 -59 254t-132 106zM43 446q0 224 161 360q162 136 356 136t350 -124t155 -349q0 -225 -161 -359t-355 -135q-275 0 -427 209
q-80 110 -79 262z" />
    <glyph glyph-name="otilde" unicode="&#xf5;" horiz-adv-x="1107" 
d="M554 817q-73 -1 -130 -105t-57 -250t58 -252t130 -106t131 102t59 251q0 148 -59 254t-132 106zM43 446q0 224 161 360q162 136 356 136t350 -124t155 -349q0 -225 -161 -359t-355 -135q-275 0 -427 209q-80 110 -79 262zM449 1309q25 0 125 -29t128 -29q47 0 140 119
l22 -6q-12 -123 -62 -213t-110 -90q-33 0 -132 29t-126 28q-39 0 -139 -117l-23 7q12 113 67 207t110 94z" />
    <glyph glyph-name="odieresis" unicode="&#xf6;" horiz-adv-x="1107" 
d="M554 817q-73 -1 -130 -105t-57 -250t58 -252t130 -106t131 102t59 251q0 148 -59 254t-132 106zM43 446q0 224 161 360q162 136 356 136t350 -124t155 -349q0 -225 -161 -359t-355 -135q-275 0 -427 209q-80 110 -79 262zM745 1321q59 0 99 -41t41 -101q0 -59 -40 -99
q-39 -40 -99 -40t-100 39t-40 99t40 102q40 41 99 41zM362 1321q60 0 100 -41t40 -101q0 -59 -40 -99t-100 -40t-100 39q-41 39 -41 99t41 102q41 41 100 41z" />
    <glyph glyph-name="divide" unicode="&#xf7;" horiz-adv-x="991" 
d="M86 580h819v-127h-819v127zM496 999q68 0 112 -42t43 -107q0 -66 -45 -110q-44 -44 -110 -44t-112 44t-46 110t45 108t113 41zM496 328q68 0 112 -42t43 -109q0 -67 -45 -111q-44 -44 -110 -43q-66 -1 -112 43t-46 111t45 109t113 42z" />
    <glyph glyph-name="oslash" unicode="&#xf8;" horiz-adv-x="1107" 
d="M549 819q-71 0 -135 -103t-64 -231t25 -204l295 483q-49 55 -121 55zM764 438q0 128 -29 213l-297 -483q53 -62 125 -62q73 0 137 102t64 230zM45 436q0 236 159 372t353 136q102 0 201 -37l90 148l98 -60l-86 -139q207 -130 207 -370t-161 -374t-355 -135
q-102 0 -207 39l-96 -159l-98 53l96 158q-201 132 -201 368z" />
    <glyph glyph-name="ugrave" unicode="&#xf9;" horiz-adv-x="1155" 
d="M423 -23q-138 0 -215 80t-77 144v504l-123 90v28q121 51 418 127v-663q0 -43 38 -77t112 -34t147 53v476l-141 90v28q82 37 436 127v-745l133 -88v-27q-252 -80 -428 -115v162q-162 -160 -300 -160zM285 1317l221 168l205 -461l-23 -14z" />
    <glyph glyph-name="uacute" unicode="&#xfa;" horiz-adv-x="1155" 
d="M423 -23q-138 0 -215 80t-77 144v504l-123 90v28q121 51 418 127v-663q0 -43 38 -77t112 -34t147 53v476l-141 90v28q82 37 436 127v-745l133 -88v-27q-252 -80 -428 -115v162q-162 -160 -300 -160zM467 1008l-25 14l205 461l223 -168z" />
    <glyph glyph-name="ucircumflex" unicode="&#xfb;" horiz-adv-x="1155" 
d="M423 -23q-138 0 -215 80t-77 144v504l-123 90v28q121 51 418 127v-663q0 -43 38 -77t112 -34t147 53v476l-141 90v28q82 37 436 127v-745l133 -88v-27q-252 -80 -428 -115v162q-162 -160 -300 -160zM559 1485h29l252 -463l-23 -18l-244 180l-243 -180l-23 18z" />
    <glyph glyph-name="udieresis" unicode="&#xfc;" horiz-adv-x="1155" 
d="M756 1321q59 0 99 -41t40 -101q0 -59 -40 -99t-99 -40t-100 39q-40 39 -40 99t40 102q41 41 100 41zM373 1321q59 0 99 -41t40 -101q0 -59 -40 -99t-99 -40t-101 39q-41 39 -41 99t41 102q42 41 101 41zM423 -23q-138 0 -215 80t-77 144v504l-123 90v28q121 51 418 127
v-663q0 -43 38 -77t112 -34t147 53v476l-141 90v28q82 37 436 127v-745l133 -88v-27q-252 -80 -428 -115v162q-162 -160 -300 -160z" />
    <glyph glyph-name="yacute" unicode="&#xfd;" horiz-adv-x="1003" 
d="M162 -469v27q178 199 289 454l-345 783l-110 94v26h549v-26l-113 -96l160 -404l156 404l-113 96v26h375v-26l-111 -94l-289 -709q-125 -299 -147 -555h-301zM465 1008l-25 14l205 461l223 -168z" />
    <glyph glyph-name="thorn" unicode="&#xfe;" horiz-adv-x="1101" 
d="M508 754q-72 0 -102 -31v-549q43 -55 126 -55t144 95q61 96 61 240t-61 222q-62 78 -168 78zM700 942q138 0 244 -113t107 -305q-1 -240 -145 -386t-384 -146q-37 0 -116 6v-340l178 -98v-29h-600v29l125 98v1571l-142 92v27q41 16 185 63t254 76v-682q156 137 294 137z
" />
    <glyph glyph-name="ydieresis" unicode="&#xff;" horiz-adv-x="1003" 
d="M162 -469v27q178 199 289 454l-345 783l-110 94v26h549v-26l-113 -96l160 -404l156 404l-113 96v26h375v-26l-111 -94l-289 -709q-125 -299 -147 -555h-301zM743 1321q59 0 99 -41t41 -101q0 -59 -40 -99q-39 -40 -99 -40t-100 39t-40 99t40 102q40 41 99 41zM360 1321
q60 0 100 -41t40 -101q0 -59 -40 -99t-100 -40t-100 39q-41 39 -41 99t41 102q41 41 100 41z" />
    <glyph glyph-name="Amacron" unicode="&#x100;" horiz-adv-x="1374" 
d="M379 1657h577v-172h-577v172zM440 477h316l-166 400zM481 0h-477v27l141 120l476 1213h90l518 -1213l141 -120v-27h-631v27l154 120l-80 195h-424l-70 -184l162 -131v-27z" />
    <glyph glyph-name="amacron" unicode="&#x101;" horiz-adv-x="985" 
d="M229 1253h516v-170h-516v170zM466 150q64 0 97 18q2 39 2 231q-178 -43 -221 -59q-22 -10 -22 -66t39 -91q41 -33 105 -33zM346 -27q-133 0 -217 74t-84 178q0 74 30 127t64 62q121 29 428 94v168q-1 38 -33 68t-92 30t-108 -35v-168l-260 78v23q41 63 126 135
q167 139 328 139q160 0 243 -74t83 -143l-6 -530q59 -33 147 -60v-28l-192 -154q-150 55 -225 139q-143 -123 -232 -123z" />
    <glyph glyph-name="Abreve" unicode="&#x102;" horiz-adv-x="1374" 
d="M663 1626q157 0 244 117l27 -4q6 -101 -61 -197t-205 -96t-206 96q-67 96 -61 197l27 4q78 -117 235 -117zM440 477h316l-166 400zM481 0h-477v27l141 120l476 1213h90l518 -1213l141 -120v-27h-631v27l154 120l-80 195h-424l-70 -184l162 -131v-27z" />
    <glyph glyph-name="abreve" unicode="&#x103;" horiz-adv-x="985" 
d="M483 1036q-127 0 -182 92t-55 218l26 4q23 -48 78 -94t133 -46q133 0 211 140l27 -4q0 -172 -95 -259q-57 -51 -143 -51zM466 150q64 0 97 18q2 39 2 231q-178 -43 -221 -59q-22 -10 -22 -66t39 -91q41 -33 105 -33zM346 -27q-133 0 -217 74t-84 178q0 74 30 127t64 62
q121 29 428 94v168q-1 38 -33 68t-92 30t-108 -35v-168l-260 78v23q41 63 126 135q167 139 328 139q160 0 243 -74t83 -143l-6 -530q59 -33 147 -60v-28l-192 -154q-150 55 -225 139q-143 -123 -232 -123z" />
    <glyph glyph-name="Aogonek" unicode="&#x104;" horiz-adv-x="1374" 
d="M438 477h318l-166 402zM481 0h-477v27l141 120l476 1213h90l518 -1213l141 -120v-27h-342q-115 -154 -115 -242q0 -53 36 -83q62 -51 212 -11l15 -20q-115 -137 -289 -138q-98 0 -161 44q-62 44 -62 122q-1 162 290 328l-141 342h-426l-68 -184l162 -131v-27z" />
    <glyph glyph-name="aogonek" unicode="&#x105;" horiz-adv-x="985" 
d="M466 150q64 0 97 18q2 39 2 231q-178 -43 -221 -59q-22 -10 -22 -66t39 -91q41 -33 105 -33zM467 -330q0 156 285 310q-104 41 -174 116q-143 -123 -232 -123q-133 0 -217 74t-84 178q0 74 30 127t64 62q121 29 428 94v168q-1 38 -33 68t-92 30t-108 -35v-168l-260 78v23
q41 63 126 135q167 139 328 139q160 0 243 -74t83 -143l-6 -530q59 -33 147 -60v-28q-135 -103 -207 -187t-71 -168q0 -53 36 -83q61 -51 212 -11l14 -22q-115 -137 -289 -138q-98 0 -161 45q-62 45 -62 123z" />
    <glyph glyph-name="Cacute" unicode="&#x106;" horiz-adv-x="1384" 
d="M559 1456l-12 27l459 286l81 -237zM844 -23q-342 0 -565 193t-224 498q0 135 54 262q115 276 403 390q154 60 362 60t394 -53v-364h-29q-70 102 -195 190t-237 88q-147 0 -272 -154q-125 -155 -125 -395t142 -404t316 -165q125 0 230 79q104 79 166 195h26v-327
q-46 -31 -170 -62t-276 -31z" />
    <glyph glyph-name="cacute" unicode="&#x107;" horiz-adv-x="940" 
d="M600 944q115 0 256 -26v-300h-27q-201 188 -315 189q-60 0 -124 -78t-64 -214t91 -229t228 -93t240 43l18 -25q-51 -82 -161 -158t-234 -76q-193 0 -329 125t-136 338q-1 212 153 358t404 146zM387 1008l-25 14l205 461l224 -168z" />
    <glyph glyph-name="Ccircumflex" unicode="&#x108;" horiz-adv-x="1384" 
d="M788 1776l322 -312l-14 -22l-308 96l-309 -96l-16 22zM844 -23q-342 0 -565 193t-224 498q0 135 54 262q115 276 403 390q154 60 362 60t394 -53v-364h-29q-70 102 -195 190t-237 88q-147 0 -272 -154q-125 -155 -125 -395t142 -404t316 -165q125 0 230 79
q104 79 166 195h26v-327q-46 -31 -170 -62t-276 -31z" />
    <glyph glyph-name="ccircumflex" unicode="&#x109;" horiz-adv-x="940" 
d="M600 944q115 0 256 -26v-300h-27q-201 188 -315 189q-60 0 -124 -78t-64 -214t91 -229t228 -93t240 43l18 -25q-51 -82 -161 -158t-234 -76q-193 0 -329 125t-136 338q-1 212 153 358t404 146zM494 1485h28l252 -463l-22 -18l-244 180l-244 -180l-22 18z" />
    <glyph glyph-name="Cdotaccent" unicode="&#x10a;" horiz-adv-x="1384" 
d="M788 1454q-68 0 -114 43t-45 111q0 68 46 112q45 44 113 43q68 0 115 -44q47 -43 47 -111t-47 -111t-115 -43zM844 -23q-342 0 -565 193t-224 498q0 135 54 262q115 276 403 390q154 60 362 60t394 -53v-364h-29q-70 102 -195 190t-237 88q-147 0 -272 -154
q-125 -155 -125 -395t142 -404t316 -165q125 0 230 79q104 79 166 195h26v-327q-46 -31 -170 -62t-276 -31z" />
    <glyph glyph-name="cdotaccent" unicode="&#x10b;" horiz-adv-x="940" 
d="M348 1202q0 68 48 113t118 45t117 -44t47 -113t-48 -116t-117 -47t-117 47t-48 115zM600 944q115 0 256 -26v-300h-27q-201 188 -315 189q-60 0 -124 -78t-64 -214t91 -229t228 -93t240 43l18 -25q-51 -82 -161 -158t-234 -76q-193 0 -329 125t-136 338q-1 212 153 358
t404 146z" />
    <glyph glyph-name="Ccaron" unicode="&#x10c;" horiz-adv-x="1384" 
d="M473 1745l16 22l310 -96l307 96l14 -22l-321 -311zM844 -23q-342 0 -565 193t-224 498q0 135 54 262q115 276 403 390q154 60 362 60t394 -53v-364h-29q-70 102 -195 190t-237 88q-147 0 -272 -154q-125 -155 -125 -395t142 -404t316 -165q125 0 230 79q104 79 166 195
h26v-327q-46 -31 -170 -62t-276 -31z" />
    <glyph glyph-name="ccaron" unicode="&#x10d;" horiz-adv-x="940" 
d="M600 944q115 0 256 -26v-300h-27q-201 188 -315 189q-60 0 -124 -78t-64 -214t91 -229t228 -93t240 43l18 -25q-51 -82 -161 -158t-234 -76q-193 0 -329 125t-136 338q-1 212 153 358t404 146zM244 1470l22 19l244 -180l246 180l22 -19l-254 -462h-28z" />
    <glyph glyph-name="Dcaron" unicode="&#x10e;" horiz-adv-x="1558" 
d="M408 1745l16 22l309 -96l307 96l15 -22l-322 -311zM530 1214v-1052q92 -31 207 -31q168 0 294 152t126 403q0 138 -45 244q-78 184 -277 255q-85 30 -178 29h-127zM49 0v27l154 120v1061l-154 121v27h692q207 0 377 -71t279 -221t108 -353q-1 -303 -195 -507t-515 -204
h-746z" />
    <glyph glyph-name="dcaron" unicode="&#x10f;" horiz-adv-x="1138" 
d="M1085 1008l27 456h227l-229 -456h-25zM608 172q41 0 88 21v546q-47 63 -132 63t-145 -84q-61 -84 -61 -226t72 -231t178 -89zM49 433q0 206 150 349t401 144q51 0 96 -4v307l-159 92v27q90 39 456 139v-1284l140 -88v-25q-53 -25 -428 -117v138q-150 -133 -259 -134
q-160 0 -278 125t-119 331z" />
    <glyph glyph-name="Dcroat" unicode="&#x110;" horiz-adv-x="1558" 
d="M530 618v-456q92 -31 207 -31q168 0 294 152t126 403q0 138 -45 244q-78 184 -277 255q-85 30 -178 29h-127v-462h349v-134h-349zM33 752h170v456l-154 121v27h692q207 0 377 -71t279 -221t108 -353q-1 -303 -195 -507t-515 -204h-746v27l154 120v471h-170v134z" />
    <glyph glyph-name="dcroat" unicode="&#x111;" horiz-adv-x="1138" 
d="M608 172q41 0 88 21v546q-47 63 -132 63t-145 -84q-61 -84 -61 -226t72 -231t178 -89zM993 1161h146v-114h-146v-844l140 -88v-25q-53 -25 -428 -117v138q-150 -133 -259 -134q-160 0 -278 125t-119 331q0 206 150 349t401 144q51 0 96 -4v125h-336v114h336v68l-159 92
v27q90 39 456 139v-326z" />
    <glyph glyph-name="Emacron" unicode="&#x112;" horiz-adv-x="1161" 
d="M303 1657h578v-172h-578v172zM47 0v27l154 120v1061l-154 121v27h987v-328h-26l-179 195h-301v-453h328l119 152h26v-435h-26l-119 150h-328v-498h340l183 240h28v-379h-1032z" />
    <glyph glyph-name="emacron" unicode="&#x113;" horiz-adv-x="952" 
d="M227 1253h516v-170h-516v170zM482 815q-42 0 -89 -53t-63 -141h299q-13 98 -59 146t-88 48zM45 441q0 209 141 355q142 146 304 146q317 0 423 -407v-19h-591q4 -156 94 -240t238 -84t264 41l12 -22q-156 -233 -432 -234q-199 0 -326 127t-127 337z" />
    <glyph glyph-name="Ebreve" unicode="&#x114;" horiz-adv-x="1161" 
d="M581 1626q157 0 244 117l27 -4q6 -100 -60 -197q-67 -96 -206 -96t-206 96t-61 197l27 4q78 -117 235 -117zM47 0v27l154 120v1061l-154 121v27h987v-328h-26l-179 195h-301v-453h328l119 152h26v-435h-26l-119 150h-328v-498h340l183 240h28v-379h-1032z" />
    <glyph glyph-name="ebreve" unicode="&#x115;" horiz-adv-x="952" 
d="M473 1036q-127 0 -182 92t-55 218l26 4q23 -48 78 -94t133 -46q133 0 211 140l27 -4q0 -173 -96 -259q-56 -51 -142 -51zM482 815q-42 0 -89 -53t-63 -141h299q-13 98 -59 146t-88 48zM45 441q0 209 141 355q142 146 304 146q317 0 423 -407v-19h-591q4 -156 94 -240
t238 -84t264 41l12 -22q-156 -233 -432 -234q-199 0 -326 127t-127 337z" />
    <glyph glyph-name="Edotaccent" unicode="&#x116;" horiz-adv-x="1161" 
d="M600 1454q-68 0 -114 43t-46 111t46 112t114 43q68 0 115 -44q47 -43 47 -111t-47 -111t-115 -43zM47 0v27l154 120v1061l-154 121v27h987v-328h-26l-179 195h-301v-453h328l119 152h26v-435h-26l-119 150h-328v-498h340l183 240h28v-379h-1032z" />
    <glyph glyph-name="edotaccent" unicode="&#x117;" horiz-adv-x="952" 
d="M486 1040q-68 0 -116 47t-48 115t48 113t118 45t116 -44q47 -44 47 -113t-48 -116t-117 -47zM482 815q-42 0 -89 -53t-63 -141h299q-13 98 -59 146t-88 48zM45 441q0 209 141 355q142 146 304 146q317 0 423 -407v-19h-591q4 -156 94 -240t238 -84t264 41l12 -22
q-156 -233 -432 -234q-199 0 -326 127t-127 337z" />
    <glyph glyph-name="Eogonek" unicode="&#x118;" horiz-adv-x="1161" 
d="M47 0v27l154 120v1061l-154 121v27h987v-328h-26l-179 195h-301v-453h328l119 152h26v-435h-26l-119 150h-328v-498h340l183 240h28v-379h-178q-115 -154 -115 -242q0 -53 36 -83q62 -52 214 -11l13 -20q-115 -137 -289 -138q-98 0 -161 44q-62 44 -62 122q0 162 290 328
h-780z" />
    <glyph glyph-name="eogonek" unicode="&#x119;" horiz-adv-x="952" 
d="M482 815q-42 0 -89 -53t-63 -141h299q-13 98 -59 146t-88 48zM356 -328q0 152 275 322q-66 -16 -133 -17q-199 0 -326 127t-127 337q0 209 141 355q142 146 304 146q317 0 423 -407v-19h-591q4 -156 94 -240t238 -84t264 41l12 -22q-36 -58 -104 -119t-78 -72
q-141 -141 -142 -262q0 -53 36 -83q61 -51 212 -11l14 -20q-115 -137 -290 -138q-96 0 -159 45t-63 121z" />
    <glyph glyph-name="Ecaron" unicode="&#x11a;" horiz-adv-x="1161" 
d="M258 1745l16 22l310 -96l307 96l14 -22l-321 -311zM47 0v27l154 120v1061l-154 121v27h987v-328h-26l-179 195h-301v-453h328l119 152h26v-435h-26l-119 150h-328v-498h340l183 240h28v-379h-1032z" />
    <glyph glyph-name="ecaron" unicode="&#x11b;" horiz-adv-x="952" 
d="M482 815q-42 0 -89 -53t-63 -141h299q-13 98 -59 146t-88 48zM45 441q0 209 141 355q142 146 304 146q317 0 423 -407v-19h-591q4 -156 94 -240t238 -84t264 41l12 -22q-156 -233 -432 -234q-199 0 -326 127t-127 337zM215 1470l23 19l243 -180l246 180l23 -19l-254 -462
h-29z" />
    <glyph glyph-name="Gcircumflex" unicode="&#x11c;" horiz-adv-x="1515" 
d="M791 1776l321 -312l-14 -22l-307 96l-310 -96l-16 22zM55 669q0 295 221 503t576 208q150 0 448 -47v-352h-28q-92 109 -209 185t-234 75q-163 0 -291 -154q-128 -153 -128 -393t135 -408t321 -167q115 0 181 43v387l-179 119v26h619v-26l-131 -119v-471
q-279 -100 -522 -101q-342 0 -561 198q-218 198 -218 494z" />
    <glyph glyph-name="gcircumflex" unicode="&#x11d;" horiz-adv-x="1013" 
d="M459 1485h28l252 -463l-22 -18l-244 180l-244 -180l-22 18zM340 649q0 -82 42 -136t89 -54t87 53t40 137t-40 137q-40 54 -87 54t-89 -54t-42 -137zM256 -180q0 -53 60 -93t180 -40t196 57t76 135q0 43 -30 66t-64 22h-350q-68 -68 -68 -147zM68 643q0 123 110 212
q111 89 289 89q94 0 192 -31h328v-133h-192q77 -50 77 -154t-105 -190t-300 -86q-74 0 -129 15q-33 -37 -33 -66q1 -29 17 -47t38 -19h385q106 0 187 -117q47 -69 47 -163q0 -174 -158 -308t-403 -134q-172 0 -276 63q-103 63 -103 147q0 61 60 135t139 124q-68 20 -112 76
t-44 118t14 95q14 34 29 42l133 80q-88 37 -139 103t-51 149z" />
    <glyph glyph-name="Gbreve" unicode="&#x11e;" horiz-adv-x="1515" 
d="M781 1626q157 0 245 117l27 -4q6 -101 -61 -197t-206 -96q-140 0 -206 96t-60 197l27 4q77 -117 234 -117zM55 669q0 295 221 503t576 208q150 0 448 -47v-352h-28q-92 109 -209 185t-234 75q-163 0 -291 -154q-128 -153 -128 -393t135 -408t321 -167q115 0 181 43v387
l-179 119v26h619v-26l-131 -119v-471q-279 -100 -522 -101q-342 0 -561 198q-218 198 -218 494z" />
    <glyph glyph-name="gbreve" unicode="&#x11f;" horiz-adv-x="1013" 
d="M340 649q0 -82 42 -136t89 -54t87 53t40 137t-40 137q-40 54 -87 54t-89 -54t-42 -137zM256 -180q0 -53 60 -93t180 -40t196 57t76 135q0 43 -30 66t-64 22h-350q-68 -68 -68 -147zM68 643q0 123 110 212q111 89 289 89q94 0 192 -31h328v-133h-192q77 -50 77 -154
t-105 -190t-300 -86q-74 0 -129 15q-33 -37 -33 -66q1 -29 17 -47t38 -19h385q106 0 187 -117q47 -69 47 -163q0 -174 -158 -308t-403 -134q-172 0 -276 63q-103 63 -103 147q0 61 60 135t139 124q-68 20 -112 76t-44 118t14 95q14 34 29 42l133 80q-88 37 -139 103t-51 149
zM481 1036q-127 0 -182 92t-55 218l26 4q23 -48 78 -94t133 -46q133 0 211 140l27 -4q0 -172 -95 -259q-57 -51 -143 -51z" />
    <glyph glyph-name="Gdotaccent" unicode="&#x120;" horiz-adv-x="1515" 
d="M791 1454q-68 0 -114 43t-46 111t46 112t114 43q69 0 115 -44q46 -43 46 -111t-46 -111t-115 -43zM55 669q0 295 221 503t576 208q150 0 448 -47v-352h-28q-92 109 -209 185t-234 75q-163 0 -291 -154q-128 -153 -128 -393t135 -408t321 -167q115 0 181 43v387l-179 119
v26h619v-26l-131 -119v-471q-279 -100 -522 -101q-342 0 -561 198q-218 198 -218 494z" />
    <glyph glyph-name="gdotaccent" unicode="&#x121;" horiz-adv-x="1013" 
d="M311 1202q0 68 48 113t118 45t117 -44t47 -113t-48 -116t-117 -47t-117 47t-48 115zM340 649q0 -82 42 -136t89 -54t87 53t40 137t-40 137q-40 54 -87 54t-89 -54t-42 -137zM256 -180q0 -53 60 -93t180 -40t196 57t76 135q0 43 -30 66t-64 22h-350q-68 -68 -68 -147z
M68 643q0 123 110 212q111 89 289 89q94 0 192 -31h328v-133h-192q77 -50 77 -154t-105 -190t-300 -86q-74 0 -129 15q-33 -37 -33 -66q1 -29 17 -47t38 -19h385q106 0 187 -117q47 -69 47 -163q0 -174 -158 -308t-403 -134q-172 0 -276 63q-103 63 -103 147q0 61 60 135
t139 124q-68 20 -112 76t-44 118t14 95q14 34 29 42l133 80q-88 37 -139 103t-51 149z" />
    <glyph glyph-name="Gcommaaccent" unicode="&#x122;" horiz-adv-x="1515" 
d="M55 669q0 295 221 503t576 208q150 0 448 -47v-352h-28q-92 109 -209 185t-234 75q-163 0 -291 -154q-128 -153 -128 -393t135 -408t321 -167q115 0 181 43v387l-179 119v26h619v-26l-131 -119v-471q-279 -100 -522 -101q-342 0 -561 198q-218 198 -218 494zM800 -100
q68 0 112 -45t44 -133t-72 -173q-73 -84 -165 -122l-37 24q102 112 119 203q-1 -2 -8 -2q-53 -4 -97 27q-43 31 -43 91t40 95t107 35z" />
    <glyph glyph-name="gcommaaccent" unicode="&#x123;" horiz-adv-x="1013" 
d="M481 1018q-67 0 -111 45t-44 134t73 174q74 85 166 122l35 -25q-92 -106 -119 -202h8q57 4 99 -28t41 -90q0 -58 -41 -94t-107 -36zM340 649q0 -82 42 -136t89 -54t87 53t40 137t-40 137q-40 54 -87 54t-89 -54t-42 -137zM256 -180q0 -53 60 -93t180 -40t196 57t76 135
q0 43 -30 66t-64 22h-350q-68 -68 -68 -147zM68 643q0 123 110 212q111 89 289 89q94 0 192 -31h328v-133h-192q77 -50 77 -154t-105 -190t-300 -86q-74 0 -129 15q-33 -37 -33 -66q1 -29 17 -47t38 -19h385q106 0 187 -117q47 -69 47 -163q0 -174 -158 -308t-403 -134
q-172 0 -276 63q-103 63 -103 147q0 61 60 135t139 124q-68 20 -112 76t-44 118t14 95q14 34 29 42l133 80q-88 37 -139 103t-51 149z" />
    <glyph glyph-name="Hcircumflex" unicode="&#x124;" horiz-adv-x="1660" 
d="M829 1776l322 -312l-14 -22l-308 96l-309 -96l-16 22zM530 768h600v440l-153 121v27h635v-27l-154 -121v-1061l154 -120v-27h-635v27l153 120v480h-600v-480l154 -120v-27h-635v27l154 120v1061l-154 121v27h635v-27l-154 -121v-440z" />
    <glyph glyph-name="hcircumflex" unicode="&#x125;" horiz-adv-x="1202" 
d="M602 1880l322 -311l-15 -23l-307 96l-309 -96l-17 23zM764 629q0 43 -42 79t-124 36t-147 -54v-567l118 -96v-27h-538v27l123 96v1108l-140 90v27q186 74 437 139v-703q164 158 304 158t221 -80t81 -141v-598l125 -96v-27h-543v27l125 96v506z" />
    <glyph glyph-name="Hbar" unicode="&#x126;" horiz-adv-x="1660" 
d="M530 768h600v178h-600v-178zM31 946v127h172v135l-154 121v27h635v-27l-154 -121v-135h600v135l-153 121v27h635v-27l-154 -121v-135h176v-127h-176v-799l154 -120v-27h-635v27l153 120v480h-600v-480l154 -120v-27h-635v27l154 120v799h-172z" />
    <glyph glyph-name="hbar" unicode="&#x127;" horiz-adv-x="1202" 
d="M764 629q0 43 -42 79t-124 36t-147 -54v-567l118 -96v-27h-538v27l123 96v924h-148v114h148v70l-140 90v27q186 74 437 139v-326h307v-114h-307v-263q164 158 304 158t221 -80t81 -141v-598l125 -96v-27h-543v27l125 96v506z" />
    <glyph glyph-name="Itilde" unicode="&#x128;" horiz-adv-x="733" 
d="M268 1706q29 0 139 -23t140 -22q61 0 151 98l23 -10q-25 -117 -81 -197t-116 -79q-36 -1 -144 21t-134 22q-51 0 -152 -101l-24 10q31 115 88 198t110 83zM49 0v27l154 120v1061l-154 121v27h635v-27l-154 -121v-1061l154 -120v-27h-635z" />
    <glyph glyph-name="itilde" unicode="&#x129;" horiz-adv-x="600" 
d="M184 1309q25 0 126 -29t128 -29q47 0 140 119l22 -6q-12 -123 -62 -213t-110 -90q-33 0 -132 29t-126 28q-39 0 -139 -117l-23 7q12 113 66 207t110 94zM31 0v27l125 96v582l-125 92v26q184 68 422 125v-825l120 -96v-27h-542z" />
    <glyph glyph-name="Imacron" unicode="&#x12a;" horiz-adv-x="733" 
d="M80 1657h577v-172h-577v172zM49 0v27l154 120v1061l-154 121v27h635v-27l-154 -121v-1061l154 -120v-27h-635z" />
    <glyph glyph-name="imacron" unicode="&#x12b;" horiz-adv-x="600" 
d="M31 0v27l125 96v582l-125 92v26q184 68 422 125v-825l120 -96v-27h-542zM37 1253h516v-170h-516v170z" />
    <glyph glyph-name="Ibreve" unicode="&#x12c;" horiz-adv-x="733" 
d="M364 1626q157 0 244 117l27 -4q6 -101 -61 -197q-68 -96 -206 -96t-205 96t-61 197l27 4q78 -117 235 -117zM49 0v27l154 120v1061l-154 121v27h635v-27l-154 -121v-1061l154 -120v-27h-635z" />
    <glyph glyph-name="ibreve" unicode="&#x12d;" horiz-adv-x="600" 
d="M291 1036q-127 0 -182 92t-56 218l27 4q23 -48 78 -94t133 -46q133 0 211 140l26 -4q0 -174 -94 -259q-56 -51 -143 -51zM31 0v27l125 96v582l-125 92v26q184 68 422 125v-825l120 -96v-27h-542z" />
    <glyph glyph-name="Iogonek" unicode="&#x12e;" horiz-adv-x="733" 
d="M49 0v27l154 120v1061l-154 121v27h635v-27l-154 -121v-1061l154 -120v-27h-162q-90 -137 -90 -238q0 -55 36 -86q61 -52 212 -12l14 -20q-115 -137 -291 -138q-96 0 -158 46t-63 124q0 164 267 324h-400z" />
    <glyph glyph-name="iogonek" unicode="&#x12f;" horiz-adv-x="600" 
d="M129 1202q0 68 48 113t118 45t117 -44t47 -113t-48 -116t-117 -47t-117 47t-48 115zM31 0v27l125 96v582l-125 92v26q184 68 422 125v-825l122 -96v-27h-129q-90 -129 -90 -236q0 -55 37 -87q62 -54 213 -13l12 -20q-30 -45 -106 -91q-76 -47 -177 -47t-163 46t-63 124
q0 164 264 324h-342z" />
    <glyph glyph-name="Idotaccent" unicode="&#x130;" horiz-adv-x="733" 
d="M365 1454q-68 0 -114 43t-46 111t46 112t114 43q69 0 115 -44q46 -43 46 -111t-46 -111t-115 -43zM49 0v27l154 120v1061l-154 121v27h635v-27l-154 -121v-1061l154 -120v-27h-635z" />
    <glyph glyph-name="dotlessi" unicode="&#x131;" horiz-adv-x="600" 
d="M31 0v27l125 96v582l-125 92v26q184 68 422 125v-825l120 -96v-27h-542z" />
    <glyph glyph-name="IJ" unicode="&#x132;" horiz-adv-x="1443" 
d="M768 1356h637v-25l-154 -123v-999q1 -156 -117 -334t-335 -319l-29 22q152 299 152 744v886l-154 123v25zM49 0v27l154 120v1061l-154 121v27h635v-27l-154 -121v-1061l154 -120v-27h-635z" />
    <glyph glyph-name="ij" unicode="&#x133;" horiz-adv-x="1142" 
d="M1024 98q0 -94 -90 -252t-291 -319l-33 24q119 270 119 539v615l-125 90v28q66 25 420 125v-850zM867 1040q-69 0 -117 47t-48 116t48 113t118 44t117 -44t47 -113t-48 -116t-117 -47zM129 1202q0 68 48 113t118 45t117 -44t47 -113t-48 -116t-117 -47t-117 47t-48 115z
M31 0v27l125 96v582l-125 92v26q184 68 422 125v-825l122 -96v-27h-544z" />
    <glyph glyph-name="Jcircumflex" unicode="&#x134;" horiz-adv-x="708" 
d="M354 1776l322 -312l-14 -22l-308 96l-309 -96l-16 22zM35 1356h637v-25l-154 -123v-999q0 -156 -118 -334t-334 -319l-29 22q152 299 151 744v886l-153 123v25z" />
    <glyph glyph-name="jcircumflex" unicode="&#x135;" horiz-adv-x="542" 
d="M242 1485h28l252 -463l-22 -18l-244 180l-244 -180l-22 18zM129 74v637l-125 90v26q137 51 422 127l-2 -891q0 -93 -101 -245t-296 -291l-29 20q131 250 131 527z" />
    <glyph glyph-name="Kcommaaccent" unicode="&#x136;" horiz-adv-x="1511" 
d="M1509 0h-673v27l151 120l-338 500h-88l453 561l-156 121v27h557v-27l-213 -127l-303 -364l461 -691l149 -120v-27zM49 0v27l154 120v1061l-154 121v27h635v-27l-154 -121v-1061l154 -120v-27h-635zM934 -278q0 -88 -73 -172t-165 -123l-37 24q102 112 119 203
q-1 -2 -8 -2q-53 -4 -96 28t-43 90q0 60 40 95q41 35 107 35t111 -45t45 -133z" />
    <glyph glyph-name="kcommaaccent" unicode="&#x137;" horiz-adv-x="1150" 
d="M561 915h553v-26l-235 -119l-166 -174l266 -367q84 -119 176 -202v-27q-99 -23 -193 -23t-149 29t-90 82l-248 361v20l242 317l-156 103v26zM573 0h-546v27l127 96v1108l-140 90v27q156 66 437 139v-1364l122 -96v-27zM630 -100q68 0 112 -45t44 -133t-72 -173
q-73 -84 -165 -122l-37 24q102 112 119 203q-1 -2 -8 -2q-53 -4 -97 27q-43 31 -43 91t40 95t107 35z" />
    <glyph glyph-name="Lacute" unicode="&#x139;" horiz-adv-x="1218" 
d="M137 1456l-12 27l459 286l82 -237zM1159 444v-444h-1110v27l152 120v1061l-152 121v27h631v-27l-154 -121v-1071h381l223 307h29z" />
    <glyph glyph-name="lacute" unicode="&#x13a;" horiz-adv-x="600" 
d="M45 1528l-12 26l459 287l81 -237zM575 0h-544v27l123 96v1106l-140 92v27q156 66 437 139v-1364l124 -96v-27z" />
    <glyph glyph-name="Lcommaaccent" unicode="&#x13b;" horiz-adv-x="1218" 
d="M1159 444v-444h-1110v27l152 120v1061l-152 121v27h631v-27l-154 -121v-1071h381l223 307h29zM805 -278q0 -88 -73 -172t-165 -123l-37 24q102 112 119 203q-1 -2 -8 -2q-53 -4 -96 28t-43 90q0 60 40 95t106 35t112 -45q45 -45 45 -133z" />
    <glyph glyph-name="lcommaaccent" unicode="&#x13c;" horiz-adv-x="600" 
d="M575 0h-544v27l123 96v1106l-140 92v27q156 66 437 139v-1364l124 -96v-27zM463 -278q0 -88 -73 -172t-165 -123l-37 24q102 112 119 203q-1 -2 -8 -2q-53 -4 -96 28t-43 90q0 60 40 95t106 35t112 -45q45 -45 45 -133z" />
    <glyph glyph-name="Lcaron" unicode="&#x13d;" horiz-adv-x="1218" 
d="M735 1008l27 456h227l-229 -456h-25zM1159 444v-444h-1110v27l152 120v1061l-152 121v27h631v-27l-154 -121v-1071h381l223 307h29z" />
    <glyph glyph-name="lcaron" unicode="&#x13e;" horiz-adv-x="600" 
d="M543 1008l26 456h228l-230 -456h-24zM575 0h-544v27l123 96v1106l-140 92v27q156 66 437 139v-1364l124 -96v-27z" />
    <glyph glyph-name="Ldot" unicode="&#x13f;" horiz-adv-x="1218" 
d="M1159 444v-444h-1110v27l152 120v1061l-152 121v27h631v-27l-154 -121v-1071h381l223 307h29zM1200 762q0 -72 -50 -122t-126 -50t-125 49t-49 123t49 124t124 50t126 -51t51 -123z" />
    <glyph glyph-name="ldot" unicode="&#x140;" horiz-adv-x="937" 
d="M575 0h-544v27l123 96v1106l-140 92v27q156 66 437 139v-1364l124 -96v-27zM944 698q0 -72 -50 -122t-126 -50t-124 49t-48 123t48 123t123 49t126 -50t51 -122z" />
    <glyph glyph-name="Lslash" unicode="&#x141;" horiz-adv-x="1218" 
d="M1159 444v-444h-1110v27l152 120v265l-201 -105v135l201 107v659l-152 121v27h631v-27l-154 -121v-487l383 203v-144l-383 -200v-443h381l223 307h29z" />
    <glyph glyph-name="lslash" unicode="&#x142;" horiz-adv-x="604" 
d="M575 0h-542v27l123 96v430l-150 -86v125l150 88v549l-140 92v27q156 66 437 139v-631l149 88v-129l-149 -88v-604l122 -96v-27z" />
    <glyph glyph-name="Nacute" unicode="&#x143;" horiz-adv-x="1628" 
d="M608 1456l-12 27l459 286l82 -237zM1587 1356v-25l-155 -125v-1206h-172l-879 971v-821l211 -123v-27h-537v27l156 123v1003l-178 176v27h446l783 -875v725l-197 125v25h522z" />
    <glyph glyph-name="nacute" unicode="&#x144;" horiz-adv-x="1204" 
d="M643 0v27l121 96v506q0 43 -41 79t-126 36t-144 -54v-567l120 -96v-27h-542v27l125 96v582l-125 92v26q31 15 171 57t251 68v-164q168 158 306 158t219 -80t81 -141v-598l123 -96v-27h-539zM487 1008l-24 14l205 461l223 -168z" />
    <glyph glyph-name="Ncommaaccent" unicode="&#x145;" horiz-adv-x="1628" 
d="M1587 1356v-25l-155 -125v-1206h-172l-879 971v-821l211 -123v-27h-537v27l156 123v1003l-178 176v27h446l783 -875v725l-197 125v25h522zM979 -278q0 -88 -73 -172t-165 -123l-36 24q102 112 118 203q-1 -2 -8 -2q-53 -4 -96 28t-43 90q0 60 40 95t106 35t112 -45
q45 -45 45 -133z" />
    <glyph glyph-name="ncommaaccent" unicode="&#x146;" horiz-adv-x="1204" 
d="M643 0v27l121 96v506q0 43 -41 79t-126 36t-144 -54v-567l120 -96v-27h-542v27l125 96v582l-125 92v26q31 15 171 57t251 68v-164q168 158 306 158t219 -80t81 -141v-598l123 -96v-27h-539zM768 -278q0 -88 -73 -172t-165 -123l-36 24q102 112 118 203q-1 -2 -8 -2
q-53 -4 -96 28t-43 90q0 60 40 95q41 35 107 35t111 -45t45 -133z" />
    <glyph glyph-name="Ncaron" unicode="&#x147;" horiz-adv-x="1628" 
d="M510 1745l16 22l310 -96l307 96l14 -22l-321 -311zM1587 1356v-25l-155 -125v-1206h-172l-879 971v-821l211 -123v-27h-537v27l156 123v1003l-178 176v27h446l783 -875v725l-197 125v25h522z" />
    <glyph glyph-name="ncaron" unicode="&#x148;" horiz-adv-x="1204" 
d="M643 0v27l121 96v506q0 43 -41 79t-126 36t-144 -54v-567l120 -96v-27h-542v27l125 96v582l-125 92v26q31 15 171 57t251 68v-164q168 158 306 158t219 -80t81 -141v-598l123 -96v-27h-539zM340 1470l22 19l244 -180l246 180l22 -19l-253 -462h-29z" />
    <glyph glyph-name="napostrophe" unicode="&#x149;" horiz-adv-x="1308" 
d="M82 1169q-8 -4 -56 -4t-90 37q-40 37 -40 102q0 66 48 106t124 40t132 -56t56 -155q0 -139 -96 -249t-215 -159l-37 21q143 176 174 317zM748 0v27l120 96v506q0 43 -41 79t-125 36t-145 -54v-567l121 -96v-27h-543v27l125 96v582l-125 92v26q31 15 171 57t251 68v-164
q168 158 306 158t219 -80t81 -141v-598l123 -96v-27h-538z" />
    <glyph glyph-name="Eng" unicode="&#x14a;" horiz-adv-x="1630" 
d="M33 1356h452l617 -692q137 -158 166 -218v760l-199 125v25h522v-25l-155 -125v-1046q0 -125 -110 -301t-306 -303l-25 18q143 223 144 408q0 90 -49 177t-179 228q-2 4 -526 584v-821l211 -123v-27h-537v27l156 123v1001l-182 178v27z" />
    <glyph glyph-name="eng" unicode="&#x14b;" horiz-adv-x="1165" 
d="M31 0v27l125 96v582l-125 92v26q31 15 171 57t251 68v-164q168 158 306 158t219 -80t81 -141v-623q0 -94 -90 -253t-289 -318l-33 24q117 266 117 539v539q0 43 -41 79t-126 36t-144 -54v-567l120 -96v-27h-542z" />
    <glyph glyph-name="Omacron" unicode="&#x14c;" horiz-adv-x="1560" 
d="M492 1657h577v-172h-577v172zM412 674q0 -229 116 -388t262 -159t254 158q108 157 107 391q0 234 -113 396t-257 163q-145 0 -257 -166t-112 -395zM782 -23q-286 1 -504 189t-219 494q0 306 215 514t511 206q296 0 507 -189t211 -495t-217 -513q-218 -206 -504 -206z" />
    <glyph glyph-name="omacron" unicode="&#x14d;" horiz-adv-x="1107" 
d="M295 1253h516v-170h-516v170zM554 817q-73 -1 -130 -105t-57 -250t58 -252t130 -106t131 102t59 251q0 148 -59 254t-132 106zM43 446q0 224 161 360q162 136 356 136t350 -124t155 -349q0 -225 -161 -359t-355 -135q-275 0 -427 209q-80 110 -79 262z" />
    <glyph glyph-name="Obreve" unicode="&#x14e;" horiz-adv-x="1560" 
d="M775 1626q157 0 245 117l27 -4q6 -101 -61 -197t-206 -96t-206 96t-60 197l27 4q77 -117 234 -117zM412 674q0 -229 116 -388t262 -159t254 158q108 157 107 391q0 234 -113 396t-257 163q-145 0 -257 -166t-112 -395zM782 -23q-286 1 -504 189t-219 494q0 306 215 514
t511 206q296 0 507 -189t211 -495t-217 -513q-218 -206 -504 -206z" />
    <glyph glyph-name="obreve" unicode="&#x14f;" horiz-adv-x="1107" 
d="M554 817q-73 -1 -130 -105t-57 -250t58 -252t130 -106t131 102t59 251q0 148 -59 254t-132 106zM43 446q0 224 161 360q162 136 356 136t350 -124t155 -349q0 -225 -161 -359t-355 -135q-275 0 -427 209q-80 110 -79 262zM553 1036q-127 0 -182 92t-56 218l27 4
q23 -48 78 -94t133 -46q133 0 211 140l27 -4q0 -173 -96 -259q-56 -51 -142 -51z" />
    <glyph glyph-name="Ohungarumlaut" unicode="&#x150;" horiz-adv-x="1560" 
d="M479 1448l-16 20l287 344l139 -196zM864 1448l-16 20l287 344l137 -196zM412 674q0 -229 116 -388t262 -159t254 158q108 157 107 391q0 234 -113 396t-257 163q-145 0 -257 -166t-112 -395zM782 -23q-286 1 -504 189t-219 494q0 306 215 514t511 206q296 0 507 -189
t211 -495t-217 -513q-218 -206 -504 -206z" />
    <glyph glyph-name="ohungarumlaut" unicode="&#x151;" horiz-adv-x="1107" 
d="M554 817q-73 -1 -130 -105t-57 -250t58 -252t130 -106t131 102t59 251q0 148 -59 254t-132 106zM43 446q0 224 161 360q162 136 356 136t350 -124t155 -349q0 -225 -161 -359t-355 -135q-275 0 -427 209q-80 110 -79 262zM371 1004l-27 10l98 461l222 -107zM668 1014
l98 461l221 -107l-293 -364z" />
    <glyph glyph-name="OE" unicode="&#x152;" horiz-adv-x="1886" 
d="M856 1229q-186 0 -316 -152q-130 -151 -130 -395t133 -396t323 -153h88v1096h-98zM1726 922v-435h-26l-119 150h-313v-498h325l183 240h28v-379h-954q-342 0 -567 177t-225 478t226 501t558 200h917v-328h-26l-179 195h-286v-453h313l119 152h26z" />
    <glyph glyph-name="oe" unicode="&#x153;" horiz-adv-x="1681" 
d="M1209 815q-42 0 -89 -52t-63 -140h299q-14 98 -60 145t-87 47zM727 458q0 148 -55 254q-55 105 -126 105t-125 -104q-54 -103 -54 -251t55 -252t124 -106q69 0 125 103t56 251zM881 137q-123 -162 -351 -162q-112 -1 -222 49t-188 160t-77 262q0 224 157 360t347 136
q231 0 354 -172q129 172 322 172q156 0 261 -106t156 -297v-19h-591q4 -158 93 -242q88 -84 240 -83q152 0 263 43l12 -25q-166 -233 -432 -233q-223 0 -344 157z" />
    <glyph glyph-name="Racute" unicode="&#x154;" horiz-adv-x="1378" 
d="M412 1456l-13 27l459 286l82 -237zM528 1223v-467h213q29 0 73 66t44 145q0 131 -68 193q-69 62 -172 63h-90zM49 0v27l154 120v1061l-154 121v27h598q233 0 375 -79t143 -253q0 -209 -231 -326l217 -366q137 -229 244 -305v-27q-57 -14 -182 -14q-225 0 -332 192
l-248 453h-105v-484l168 -120v-27h-647z" />
    <glyph glyph-name="racute" unicode="&#x155;" horiz-adv-x="837" 
d="M649 946q68 0 170 -37l-94 -297q-121 64 -178 64t-94 -23v-520l188 -106v-27h-610v27l125 96v582l-125 92v26q39 17 176 59t246 66v-219q133 217 196 217zM344 1008l-25 14l205 461l224 -168z" />
    <glyph glyph-name="Rcommaaccent" unicode="&#x156;" horiz-adv-x="1378" 
d="M528 1223v-467h213q29 0 73 66t44 145q0 131 -68 193q-69 62 -172 63h-90zM49 0v27l154 120v1061l-154 121v27h598q233 0 375 -79t143 -253q0 -209 -231 -326l217 -366q137 -229 244 -305v-27q-57 -14 -182 -14q-225 0 -332 192l-248 453h-105v-484l168 -120v-27h-647z
M757 -100q67 0 111 -45t45 -133q0 -88 -72 -173q-73 -84 -165 -122l-37 24q102 112 119 203q-1 -2 -8 -2q-53 -4 -97 27q-43 31 -43 91t40 95t107 35z" />
    <glyph glyph-name="rcommaaccent" unicode="&#x157;" horiz-adv-x="837" 
d="M649 946q68 0 170 -37l-94 -297q-121 64 -178 64t-94 -23v-520l188 -106v-27h-610v27l125 96v582l-125 92v26q39 17 176 59t246 66v-219q133 217 196 217zM471 -278q0 -88 -73 -172t-165 -123l-36 24q102 112 118 203q-1 -2 -8 -2q-53 -4 -96 28t-43 90q0 60 40 95
t106 35t112 -45q45 -45 45 -133z" />
    <glyph glyph-name="Rcaron" unicode="&#x158;" horiz-adv-x="1378" 
d="M311 1745l17 22l309 -96l307 96l14 -22l-321 -311zM528 1223v-467h213q29 0 73 66t44 145q0 131 -68 193q-69 62 -172 63h-90zM49 0v27l154 120v1061l-154 121v27h598q233 0 375 -79t143 -253q0 -209 -231 -326l217 -366q137 -229 244 -305v-27q-57 -14 -182 -14
q-225 0 -332 192l-248 453h-105v-484l168 -120v-27h-647z" />
    <glyph glyph-name="rcaron" unicode="&#x159;" horiz-adv-x="837" 
d="M221 1470l23 19l243 -180l246 180l23 -19l-254 -462h-29zM649 946q68 0 170 -37l-94 -297q-121 64 -178 64t-94 -23v-520l188 -106v-27h-610v27l125 96v582l-125 92v26q39 17 176 59t246 66v-219q133 217 196 217z" />
    <glyph glyph-name="Sacute" unicode="&#x15a;" horiz-adv-x="1024" 
d="M266 1456l-12 27l459 286l82 -237zM575 1380q164 0 295 -34v-322h-26q-64 90 -148 158t-147 68t-101 -38q-38 -37 -38 -97q0 -59 48 -119t171 -150q88 -68 132 -106q140 -121 174 -219q22 -62 21 -136q0 -178 -130 -293t-353 -115q-158 0 -362 64q-27 111 -27 463h27
q176 -381 362 -381q66 0 120 47t54 128t-49 140q-50 59 -194 163t-217 205t-72 220q0 160 119 257q120 97 341 97z" />
    <glyph glyph-name="sacute" unicode="&#x15b;" horiz-adv-x="788" 
d="M256 1008l-25 14l205 461l223 -168zM426 827q-88 0 -86 -77q0 -37 31 -65t115 -79t126 -85q43 -34 80 -97t37 -143q0 -137 -104 -221q-105 -84 -269 -83q-164 0 -276 60q-16 119 -17 330h29q57 -109 127 -181t127 -72t84 28q27 26 27 68t-30 74t-108 80q-79 48 -121 82
t-79 94t-37 132q0 130 95 200t256 70t241 -27v-245h-27q-53 72 -115 114t-106 43z" />
    <glyph glyph-name="Scircumflex" unicode="&#x15c;" horiz-adv-x="1024" 
d="M516 1776l322 -312l-15 -22l-307 96l-309 -96l-17 22zM575 1380q164 0 295 -34v-322h-26q-64 90 -148 158t-147 68t-101 -38q-38 -37 -38 -97q0 -59 48 -119t171 -150q88 -68 132 -106q140 -121 174 -219q22 -62 21 -136q0 -178 -130 -293t-353 -115q-158 0 -362 64
q-27 111 -27 463h27q176 -381 362 -381q66 0 120 47t54 128t-49 140q-50 59 -194 163t-217 205t-72 220q0 160 119 257q120 97 341 97z" />
    <glyph glyph-name="scircumflex" unicode="&#x15d;" horiz-adv-x="788" 
d="M426 827q-88 0 -86 -77q0 -37 31 -65t115 -79t126 -85q43 -34 80 -97t37 -143q0 -137 -104 -221q-105 -84 -269 -83q-164 0 -276 60q-16 119 -17 330h29q57 -109 127 -181t127 -72t84 28q27 26 27 68t-30 74t-108 80q-79 48 -121 82t-79 94t-37 132q0 130 95 200t256 70
t241 -27v-245h-27q-53 72 -115 114t-106 43zM377 1485h29l251 -463l-22 -18l-244 180l-244 -180l-22 18z" />
    <glyph glyph-name="Scedilla" unicode="&#x15e;" horiz-adv-x="1024" 
d="M575 1380q164 0 295 -34v-322h-26q-64 90 -148 158t-147 68t-101 -38q-38 -37 -38 -97q0 -59 48 -119t171 -150q88 -68 132 -106q140 -121 174 -219q22 -62 21 -136q0 -177 -122 -285t-305 -121l-46 -94q89 -20 149 -72t60 -122q0 -94 -110 -155q-111 -60 -340 -71l-6 27
q227 98 227 172q0 34 -40 56t-87 28l-8 10l57 119q37 71 50 101q-144 7 -324 63q-27 111 -27 463h27q176 -381 362 -381q66 0 120 47t54 128t-49 140q-50 59 -194 163t-217 205t-72 220q0 160 119 257q120 97 341 97z" />
    <glyph glyph-name="scedilla" unicode="&#x15f;" horiz-adv-x="788" 
d="M426 827q-88 0 -86 -77q0 -37 31 -65t115 -79t126 -85q43 -34 80 -97t37 -143q0 -137 -104 -221q-81 -65 -202 -78l-46 -97q90 -20 149 -72t60 -122q0 -95 -111 -155t-340 -71l-6 27q227 98 227 172q0 34 -40 56t-87 28l-8 10l58 119q36 70 49 101q-144 4 -248 59
q-16 119 -17 330h29q57 -109 127 -181t127 -72t84 28q27 26 27 68t-30 74t-108 80q-79 48 -121 82t-79 94t-37 132q0 130 95 200t256 70t241 -27v-245h-27q-53 72 -115 114t-106 43z" />
    <glyph glyph-name="Scaron" unicode="&#x160;" horiz-adv-x="1024" 
d="M199 1745l16 22l309 -96l307 96l15 -22l-322 -311zM575 1380q164 0 295 -34v-322h-26q-64 90 -148 158t-147 68t-101 -38q-38 -37 -38 -97q0 -59 48 -119t171 -150q88 -68 132 -106q140 -121 174 -219q22 -62 21 -136q0 -178 -130 -293t-353 -115q-158 0 -362 64
q-27 111 -27 463h27q176 -381 362 -381q66 0 120 47t54 128t-49 140q-50 59 -194 163t-217 205t-72 220q0 160 119 257q120 97 341 97z" />
    <glyph glyph-name="scaron" unicode="&#x161;" horiz-adv-x="788" 
d="M426 827q-88 0 -86 -77q0 -37 31 -65t115 -79t126 -85q43 -34 80 -97t37 -143q0 -137 -104 -221q-105 -84 -269 -83q-164 0 -276 60q-16 119 -17 330h29q57 -109 127 -181t127 -72t84 28q27 26 27 68t-30 74t-108 80q-79 48 -121 82t-79 94t-37 132q0 130 95 200t256 70
t241 -27v-245h-27q-53 72 -115 114t-106 43zM127 1470l23 19l243 -180l246 180l23 -19l-254 -462h-29z" />
    <glyph glyph-name="Tcommaaccent" unicode="&#x162;" horiz-adv-x="1390" 
d="M1333 1356v-371h-26l-201 236h-244v-1067l178 -127v-27h-688v27l178 127v1067h-243l-201 -236h-29v371h1276zM860 -278q0 -88 -73 -172t-164 -123l-37 24q102 112 118 203q-1 -2 -8 -2q-53 -4 -96 28t-43 90q0 60 40 95q41 35 107 35t111 -45t45 -133z" />
    <glyph glyph-name="tcommaaccent" unicode="&#x163;" horiz-adv-x="796" 
d="M430 760v-465q0 -41 41 -75t117 -34t149 23l15 -25q-58 -78 -148 -142t-204 -65q-114 0 -191 75q-78 75 -78 149v559h-121v35l402 327h18v-207h375l-94 -155h-281zM563 -278q0 -88 -73 -172t-164 -123l-37 24q102 112 118 203q-1 -2 -8 -2q-53 -4 -96 28t-43 90
q0 60 40 95t106 35t112 -45q45 -45 45 -133z" />
    <glyph glyph-name="Tcaron" unicode="&#x164;" horiz-adv-x="1390" 
d="M373 1745l16 22l309 -96l308 96l14 -22l-322 -311zM1333 1356v-371h-26l-201 236h-244v-1067l178 -127v-27h-688v27l178 127v1067h-243l-201 -236h-29v371h1276z" />
    <glyph glyph-name="tcaron" unicode="&#x165;" horiz-adv-x="796" 
d="M522 1008l27 456h227l-229 -456h-25zM430 760v-465q0 -41 41 -75t117 -34t149 23l15 -25q-58 -78 -148 -142t-204 -65q-114 0 -191 75q-78 75 -78 149v559h-121v35l402 327h18v-207h375l-94 -155h-281z" />
    <glyph glyph-name="Tbar" unicode="&#x166;" horiz-adv-x="1390" 
d="M1333 1356v-371h-26l-201 236h-244v-408h316v-133h-316v-526l178 -127v-27h-688v27l178 127v526h-317v133h317v408h-243l-201 -236h-29v371h1276z" />
    <glyph glyph-name="tbar" unicode="&#x167;" horiz-adv-x="796" 
d="M6 483v113h125v164h-121v35l402 327h18v-207h375l-94 -155h-281v-164h293v-113h-293v-188q0 -41 41 -75t117 -34t149 23l15 -25q-58 -78 -148 -142t-204 -65q-114 0 -191 75q-78 75 -78 149v282h-125z" />
    <glyph glyph-name="Utilde" unicode="&#x168;" horiz-adv-x="1589" 
d="M770 1706q30 0 140 -23t139 -22q61 0 151 98l23 -10q-25 -117 -81 -197t-116 -79q-36 -1 -144 21t-134 22q-51 0 -152 -101l-25 10q31 115 88 198q58 83 111 83zM1397 471q0 -157 -130 -313q-65 -78 -180 -129t-260 -52q-311 1 -473 143t-161 339v749l-154 121v27h657
v-27l-176 -121v-733q0 -133 95 -216t282 -83q141 0 233 90t93 207v735l-176 121v27h505v-27l-155 -121v-737z" />
    <glyph glyph-name="utilde" unicode="&#x169;" horiz-adv-x="1155" 
d="M423 -23q-138 0 -215 80t-77 144v504l-123 90v28q121 51 418 127v-663q0 -43 38 -77t112 -34t147 53v476l-141 90v28q82 37 436 127v-745l133 -88v-27q-252 -80 -428 -115v162q-162 -160 -300 -160zM483 1309q25 0 126 -29t128 -29q47 0 140 119l22 -6q-12 -123 -62 -213
t-110 -90q-33 0 -132 29t-126 28q-39 0 -139 -117l-23 7q13 113 67 207t109 94z" />
    <glyph glyph-name="Umacron" unicode="&#x16a;" horiz-adv-x="1589" 
d="M573 1657h578v-172h-578v172zM1397 471q0 -157 -130 -313q-65 -78 -180 -129t-260 -52q-311 1 -473 143t-161 339v749l-154 121v27h657v-27l-176 -121v-733q0 -133 95 -216t282 -83q141 0 233 90t93 207v735l-176 121v27h505v-27l-155 -121v-737z" />
    <glyph glyph-name="umacron" unicode="&#x16b;" horiz-adv-x="1155" 
d="M423 -23q-138 0 -215 80t-77 144v504l-123 90v28q121 51 418 127v-663q0 -43 38 -77t112 -34t147 53v476l-141 90v28q82 37 436 127v-745l133 -88v-27q-252 -80 -428 -115v162q-162 -160 -300 -160zM319 1253h517v-170h-517v170z" />
    <glyph glyph-name="Ubreve" unicode="&#x16c;" horiz-adv-x="1589" 
d="M867 1626q157 0 245 117l27 -4q6 -101 -61 -197t-206 -96q-140 0 -206 96t-60 197l27 4q77 -117 234 -117zM1397 471q0 -157 -130 -313q-65 -78 -180 -129t-260 -52q-311 1 -473 143t-161 339v749l-154 121v27h657v-27l-176 -121v-733q0 -133 95 -216t282 -83
q141 0 233 90t93 207v735l-176 121v27h505v-27l-155 -121v-737z" />
    <glyph glyph-name="ubreve" unicode="&#x16d;" horiz-adv-x="1155" 
d="M580 1036q-127 0 -183 92q-55 92 -55 218l27 4q23 -49 77 -95q55 -45 134 -45q133 0 211 140l26 -4q-1 -174 -95 -259q-56 -51 -142 -51zM423 -23q-138 0 -215 80t-77 144v504l-123 90v28q121 51 418 127v-663q0 -43 38 -77t112 -34t147 53v476l-141 90v28q82 37 436 127
v-745l133 -88v-27q-252 -80 -428 -115v162q-162 -160 -300 -160z" />
    <glyph glyph-name="Uring" unicode="&#x16e;" horiz-adv-x="1589" 
d="M651 1622q0 88 65 150q64 62 150 61q86 0 148 -61q62 -60 63 -148q0 -88 -62 -146q-63 -58 -151 -58t-150 56q-62 58 -63 146zM866 1735q-46 0 -76 -32t-30 -78t30 -78q30 -31 76 -31t76 30q29 30 29 79q0 48 -29 79t-76 31zM1397 471q0 -157 -130 -313
q-65 -78 -180 -129t-260 -52q-311 1 -473 143t-161 339v749l-154 121v27h657v-27l-176 -121v-733q0 -133 95 -216t282 -83q141 0 233 90t93 207v735l-176 121v27h505v-27l-155 -121v-737z" />
    <glyph glyph-name="uring" unicode="&#x16f;" horiz-adv-x="1155" 
d="M369 1221q0 88 63 148q64 61 150 61t149 -60t63 -148q0 -86 -62 -146t-150 -60t-151 58q-62 59 -62 147zM582 1112q48 0 76 31t28 78t-29 79t-75 33q-46 -1 -77 -33q-30 -32 -30 -78t30 -78t77 -32zM423 -23q-138 0 -215 80t-77 144v504l-123 90v28q121 51 418 127v-663
q0 -43 38 -77t112 -34t147 53v476l-141 90v28q82 37 436 127v-745l133 -88v-27q-252 -80 -428 -115v162q-162 -160 -300 -160z" />
    <glyph glyph-name="Uhungarumlaut" unicode="&#x170;" horiz-adv-x="1589" 
d="M530 1448l-16 20l287 344l139 -196zM915 1448l-16 20l287 344l137 -196zM1397 471q0 -157 -130 -313q-65 -78 -180 -129t-260 -52q-311 1 -473 143t-161 339v749l-154 121v27h657v-27l-176 -121v-733q0 -133 95 -216t282 -83q141 0 233 90t93 207v735l-176 121v27h505
v-27l-155 -121v-737z" />
    <glyph glyph-name="uhungarumlaut" unicode="&#x171;" horiz-adv-x="1155" 
d="M369 1004l-27 10l98 461l222 -107zM666 1014l98 461l221 -107l-293 -364zM423 -23q-138 0 -215 80t-77 144v504l-123 90v28q121 51 418 127v-663q0 -43 38 -77t112 -34t147 53v476l-141 90v28q82 37 436 127v-745l133 -88v-27q-252 -80 -428 -115v162
q-162 -160 -300 -160z" />
    <glyph glyph-name="Uogonek" unicode="&#x172;" horiz-adv-x="1589" 
d="M741 -323q0 81 80 161t215 170q-90 -31 -209 -31q-311 1 -473 143t-161 339v749l-154 121v27h657v-27l-176 -121v-733q0 -133 95 -216t282 -83q141 0 233 90t93 207v735l-176 121v27h505v-27l-155 -121v-737q0 -209 -242 -432q-164 -154 -164 -281q0 -53 36 -83
q62 -51 214 -11l12 -20q-31 -45 -107 -91q-76 -47 -176 -47q-101 0 -165 45t-64 126z" />
    <glyph glyph-name="uogonek" unicode="&#x173;" horiz-adv-x="1155" 
d="M686 -494q-98 0 -161 44q-62 44 -62 122q0 160 260 320v145q-162 -160 -300 -160t-215 80t-77 144v504l-123 90v28q133 55 418 129v-665q0 -43 38 -76t110 -33t149 51v476l-141 90v28q92 41 436 129v-747l133 -88v-27q-68 -27 -348 -96q-90 -137 -90 -236q0 -53 36 -83
q61 -51 212 -11l14 -20q-115 -138 -289 -138z" />
    <glyph glyph-name="Wcircumflex" unicode="&#x174;" horiz-adv-x="2060" 
d="M1114 1776l322 -312l-15 -22l-307 96l-309 -96l-17 22zM1599 1356h457v-27l-137 -123l-393 -1214h-107l-358 932l-320 -932h-106l-496 1216l-135 121v27h633v-27l-145 -123l268 -694l217 635l-23 59l-143 123v27h606v-27l-145 -123l254 -692l219 692l-146 123v27z" />
    <glyph glyph-name="wcircumflex" unicode="&#x175;" horiz-adv-x="1460" 
d="M797 1485h28l252 -463l-22 -18l-244 180l-244 -180l-22 18zM-2 915h545v-26l-109 -98l144 -381l196 524h96l209 -508l127 369l-114 94v26h370v-26l-110 -96q-16 -45 -49 -141t-57 -164q-24 -66 -82 -236t-72 -206q-15 -37 -19 -54h-96l-51 123q-61 129 -174 415
l-164 -428q-22 -43 -43 -110h-96q-33 65 -56 131q-75 165 -143 329t-141 339l-111 98v26z" />
    <glyph glyph-name="Ycircumflex" unicode="&#x176;" horiz-adv-x="1290" 
d="M713 1776l321 -312l-14 -22l-307 96l-310 -96l-16 22zM823 1356h463v-27l-131 -121l-326 -532v-522l154 -127v-27h-633v27l152 127v485l-365 569l-133 121v27h655v-27l-153 -121l242 -389l229 379l-154 131v27z" />
    <glyph glyph-name="ycircumflex" unicode="&#x177;" horiz-adv-x="1003" 
d="M539 1485h28l252 -463l-22 -18l-244 180l-244 -180l-22 18zM162 -469v27q178 199 289 454l-345 783l-110 94v26h549v-26l-113 -96l160 -404l156 404l-113 96v26h375v-26l-111 -94l-289 -709q-125 -299 -147 -555h-301z" />
    <glyph glyph-name="Ydieresis" unicode="&#x178;" horiz-adv-x="1290" 
d="M924 1731q59 0 99 -40q40 -41 40 -101t-40 -99t-99 -39t-100 39q-40 39 -40 99t40 101q41 40 100 40zM503 1731q58 0 99 -40q41 -41 41 -101t-41 -99t-99 -39t-100 39q-41 39 -41 99t41 101q42 40 100 40zM823 1356h463v-27l-131 -121l-326 -532v-522l154 -127v-27h-633
v27l152 127v485l-365 569l-133 121v27h655v-27l-153 -121l242 -389l229 379l-154 131v27z" />
    <glyph glyph-name="Zacute" unicode="&#x179;" horiz-adv-x="1286" 
d="M420 1456l-12 27l458 286l82 -237zM1223 461v-461h-1174v29l705 1192h-416l-209 -265h-27v400h1080v-27l-711 -1182h508l217 314h27z" />
    <glyph glyph-name="zacute" unicode="&#x17a;" horiz-adv-x="903" 
d="M852 356v-356h-825v35l454 768h-229l-162 -213h-24v325h776v-30l-449 -760h256l176 231h27zM367 1008l-25 14l205 461l223 -168z" />
    <glyph glyph-name="Zdotaccent" unicode="&#x17b;" horiz-adv-x="1286" 
d="M649 1454q-67 0 -113 43t-46 111t46 112t114 43q68 0 114 -44q47 -43 47 -111t-47 -111t-115 -43zM1223 461v-461h-1174v29l705 1192h-416l-209 -265h-27v400h1080v-27l-711 -1182h508l217 314h27z" />
    <glyph glyph-name="zdotaccent" unicode="&#x17c;" horiz-adv-x="903" 
d="M295 1202q0 68 48 113t118 45t117 -44t47 -113t-48 -116t-117 -47t-117 47t-48 115zM852 356v-356h-825v35l454 768h-229l-162 -213h-24v325h776v-30l-449 -760h256l176 231h27z" />
    <glyph glyph-name="Zcaron" unicode="&#x17d;" horiz-adv-x="1286" 
d="M324 1745l16 22l309 -96l307 96l15 -22l-322 -311zM1223 461v-461h-1174v29l705 1192h-416l-209 -265h-27v400h1080v-27l-711 -1182h508l217 314h27z" />
    <glyph glyph-name="zcaron" unicode="&#x17e;" horiz-adv-x="903" 
d="M852 356v-356h-825v35l454 768h-229l-162 -213h-24v325h776v-30l-449 -760h256l176 231h27zM190 1470l23 19l244 -180l245 180l23 -19l-254 -462h-29z" />
    <glyph glyph-name="florin" unicode="&#x192;" horiz-adv-x="950" 
d="M799 1376q106 0 219 -26l-92 -203h-8q-150 104 -201 104q-27 0 -57 -47t-39 -109t-33 -276h286l-86 -155h-219q-14 -128 -43 -346q-30 -218 -36 -271t-30 -113t-78 -136q-54 -77 -165 -133t-262 -71l-27 207l4 2q88 -25 160 -24q43 0 70 62t49 249l65 574h-200v10l84 145
h133l18 144q27 177 154 295t334 118z" />
    <glyph glyph-name="Aringacute" unicode="&#x1fa;" horiz-adv-x="1374" 
d="M453 1638q0 88 64 150q65 61 151 61t148 -61q62 -60 62 -148t-62 -146t-150 -58t-151 57q-62 57 -62 145zM561 1641q0 -45 30 -77t77 -32q48 0 76 31t28 79t-29 78q-29 31 -75 31t-77 -32q-30 -32 -30 -78zM440 1876l-12 27l459 286l82 -237zM440 477h316l-166 400z
M481 0h-477v27l141 120l476 1213h90l518 -1213l141 -120v-27h-631v27l154 120l-80 195h-424l-70 -184l162 -131v-27z" />
    <glyph glyph-name="aringacute" unicode="&#x1fb;" horiz-adv-x="985" 
d="M477 1427q85 0 149 -60t64 -147q0 -86 -62 -146t-150 -60t-152 58q-62 58 -62 147q0 88 64 148t149 60zM477 1331q-47 -1 -77 -33t-29 -78q-1 -46 29 -78t77 -32t76 31t29 78t-29 79t-76 33zM319 1430l-24 14l205 461l223 -168zM466 150q64 0 97 18q2 39 2 231
q-178 -43 -221 -59q-22 -10 -22 -66t39 -91q41 -33 105 -33zM346 -27q-133 0 -217 74t-84 178q0 74 30 127t64 62q121 29 428 94v168q-1 38 -33 68t-92 30t-108 -35v-168l-260 78v23q41 63 126 135q167 139 328 139q160 0 243 -74t83 -143l-6 -530q59 -33 147 -60v-28
l-192 -154q-150 55 -225 139q-143 -123 -232 -123z" />
    <glyph glyph-name="AEacute" unicode="&#x1fc;" horiz-adv-x="1814" 
d="M870 664v544l-303 -544h303zM1733 379v-379h-1016v27l153 120v381h-378l-205 -370l162 -131v-27h-457v27l112 120l584 1061l-153 121v27h1153v-328h-27l-178 195h-287v-453h315l117 152h27v-435h-27l-117 150h-315v-498h328l180 240h29zM952 1456l-12 27l459 286l82 -237
z" />
    <glyph glyph-name="aeacute" unicode="&#x1fd;" horiz-adv-x="1445" 
d="M996 827q-45 0 -99 -71q-53 -72 -59 -185l292 78q-12 84 -50 131t-84 47zM478 150q83 0 136 49q-47 90 -55 204q-211 -63 -219 -67q-20 -16 -20 -68t37 -86q38 -32 121 -32zM561 674q0 44 -34 72q-33 28 -97 28t-98 -35v-168l-262 78v23q124 146 210 196q44 27 114 52
t143 24q147 0 221 -102q115 100 264 100q246 0 397 -317v-19l-577 -137q18 -131 104 -203t228 -72t253 44l13 -25q-53 -80 -166 -157t-266 -76q-213 0 -340 143q-62 -68 -148 -109t-172 -41q-137 0 -221 72t-84 178q0 76 29 126t63 59l426 102v164zM698 1008l-24 14l205 461
l223 -168z" />
    <glyph glyph-name="Oslashacute" unicode="&#x1fe;" horiz-adv-x="1560" 
d="M526 1456l-12 27l459 286l82 -237zM403 676q0 -178 70 -322l520 781q-96 100 -217 100q-145 0 -259 -165t-114 -394zM1153 659q0 214 -74 355l-524 -778q99 -106 239 -106t250 157q110 158 109 372zM55 646q0 322 215 528t510 206q172 0 330 -73l125 186l117 -74
l-123 -182q127 -90 199 -227t71 -308q0 -313 -216 -518t-492 -204q-186 0 -353 79l-143 -213l-115 72l142 211q-267 195 -267 517z" />
    <glyph glyph-name="oslashacute" unicode="&#x1ff;" horiz-adv-x="1107" 
d="M549 819q-71 0 -135 -103t-64 -231t25 -204l295 483q-49 55 -121 55zM764 438q0 128 -29 213l-297 -483q53 -62 125 -62q73 0 137 102t64 230zM45 436q0 236 159 372t353 136q102 0 201 -37l90 148l98 -60l-86 -139q207 -130 207 -370t-161 -374t-355 -135
q-102 0 -207 39l-96 -159l-98 53l96 158q-201 132 -201 368zM416 1008l-25 14l205 461l223 -168z" />
    <glyph glyph-name="Scommaaccent" unicode="&#x218;" horiz-adv-x="1024" 
d="M575 1380q164 0 295 -34v-322h-26q-64 90 -148 158t-147 68t-101 -38q-38 -37 -38 -97q0 -59 48 -119t171 -150q88 -68 132 -106q140 -121 174 -219q22 -62 21 -136q0 -178 -130 -293t-353 -115q-158 0 -362 64q-27 111 -27 463h27q176 -381 362 -381q66 0 120 47t54 128
t-49 140q-50 59 -194 163t-217 205t-72 220q0 160 119 257q120 97 341 97zM682 -278q0 -88 -73 -172t-165 -123l-36 24q102 112 118 203q-1 -2 -8 -2q-53 -4 -96 28t-43 90q0 60 40 95q41 35 107 35t111 -45t45 -133z" />
    <glyph glyph-name="scommaaccent" unicode="&#x219;" horiz-adv-x="788" 
d="M426 827q-88 0 -86 -77q0 -37 31 -65t115 -79t126 -85q43 -34 80 -97t37 -143q0 -137 -104 -221q-105 -84 -269 -83q-164 0 -276 60q-16 119 -17 330h29q57 -109 127 -181t127 -72t84 28q27 26 27 68t-30 74t-108 80q-79 48 -121 82t-79 94t-37 132q0 130 95 200t256 70
t241 -27v-245h-27q-53 72 -115 114t-106 43zM370 -100q68 0 112 -45t44 -133t-72 -173q-73 -84 -165 -122l-37 24q102 112 119 203q-1 -2 -9 -2q-53 -4 -96 28t-43 90q0 60 40 95t107 35z" />
    <glyph glyph-name="uni021A" unicode="&#x21a;" horiz-adv-x="1390" 
d="M1333 1356v-371h-26l-201 236h-244v-1067l178 -127v-27h-688v27l178 127v1067h-243l-201 -236h-29v371h1276zM860 -278q0 -88 -73 -172t-164 -123l-37 24q102 112 118 203q-1 -2 -8 -2q-53 -4 -96 28t-43 90q0 60 40 95q41 35 107 35t111 -45t45 -133z" />
    <glyph glyph-name="uni021B" unicode="&#x21b;" horiz-adv-x="796" 
d="M430 760v-465q0 -41 41 -75t117 -34t149 23l15 -25q-58 -78 -148 -142t-204 -65q-114 0 -191 75q-78 75 -78 149v559h-121v35l402 327h18v-207h375l-94 -155h-281zM563 -278q0 -88 -73 -172t-164 -123l-37 24q102 112 118 203q-1 -2 -8 -2q-53 -4 -96 28t-43 90
q0 60 40 95t106 35t112 -45q45 -45 45 -133z" />
    <glyph glyph-name="uni0237" unicode="&#x237;" horiz-adv-x="542" 
d="M129 74v637l-125 90v26q137 51 422 127l-2 -891q0 -93 -101 -245t-296 -291l-29 20q131 250 131 527z" />
    <glyph glyph-name="circumflex" unicode="&#x2c6;" horiz-adv-x="819" 
d="M395 1485h29l252 -463l-23 -18l-243 180l-244 -180l-23 18z" />
    <glyph glyph-name="caron" unicode="&#x2c7;" horiz-adv-x="819" 
d="M76 1470l22 19l244 -180l246 180l22 -19l-254 -462h-28z" />
    <glyph glyph-name="breve" unicode="&#x2d8;" horiz-adv-x="819" 
d="M410 1036q-127 0 -183 92q-55 92 -55 218l27 4q23 -49 77 -95q55 -45 134 -45q133 0 211 140l26 -4q-1 -174 -95 -259q-56 -51 -142 -51z" />
    <glyph glyph-name="dotaccent" unicode="&#x2d9;" horiz-adv-x="819" 
d="M244 1202q0 68 48 113t118 45t116 -44t47 -113q0 -69 -48 -116q-49 -47 -117 -47t-116 47t-48 115z" />
    <glyph glyph-name="ring" unicode="&#x2da;" horiz-adv-x="819" 
d="M199 1221q0 88 63 148q64 61 150 61t149 -60t63 -148q0 -86 -62 -146t-150 -60t-151 58q-62 59 -62 147zM412 1112q48 0 76 31t28 78t-29 79t-75 33q-46 -1 -77 -33q-30 -32 -30 -78t30 -78t77 -32z" />
    <glyph glyph-name="ogonek" unicode="&#x2db;" horiz-adv-x="819" 
d="M377 -494q-98 0 -161 44q-62 44 -62 122q0 162 290 328h74q-115 -154 -115 -242q0 -53 36 -83q62 -52 214 -11l13 -20q-115 -138 -289 -138z" />
    <glyph glyph-name="tilde" unicode="&#x2dc;" horiz-adv-x="819" 
d="M289 1309q25 0 126 -29t128 -29q47 0 139 119l23 -6q-13 -123 -63 -213t-110 -90q-33 0 -132 29t-126 28q-39 0 -139 -117l-22 7q13 113 67 207t109 94z" />
    <glyph glyph-name="hungarumlaut" unicode="&#x2dd;" horiz-adv-x="819" 
d="M115 1004l-27 10l98 461l222 -107zM412 1014l98 461l221 -107l-293 -364z" />
    <glyph glyph-name="Wgrave" unicode="&#x1e80;" horiz-adv-x="2060" 
d="M834 1532l84 237l458 -286l-12 -27zM1599 1356h457v-27l-137 -123l-393 -1214h-107l-358 932l-320 -932h-106l-496 1216l-135 121v27h633v-27l-145 -123l268 -694l217 635l-23 59l-143 123v27h606v-27l-145 -123l254 -692l219 692l-146 123v27z" />
    <glyph glyph-name="wgrave" unicode="&#x1e81;" horiz-adv-x="1460" 
d="M545 1317l221 168l205 -461l-23 -14zM-2 915h545v-26l-109 -98l144 -381l196 524h96l209 -508l127 369l-114 94v26h370v-26l-110 -96q-16 -45 -49 -141t-57 -164q-24 -66 -82 -236t-72 -206q-15 -37 -19 -54h-96l-51 123q-61 129 -174 415l-164 -428q-22 -43 -43 -110
h-96q-33 65 -56 131q-75 165 -143 329t-141 339l-111 98v26z" />
    <glyph glyph-name="Wacute" unicode="&#x1e82;" horiz-adv-x="2060" 
d="M858 1456l-12 27l459 286l81 -237zM1599 1356h457v-27l-137 -123l-393 -1214h-107l-358 932l-320 -932h-106l-496 1216l-135 121v27h633v-27l-145 -123l268 -694l217 635l-23 59l-143 123v27h606v-27l-145 -123l254 -692l219 692l-146 123v27z" />
    <glyph glyph-name="wacute" unicode="&#x1e83;" horiz-adv-x="1460" 
d="M-2 915h545v-26l-109 -98l144 -381l196 524h96l209 -508l127 369l-114 94v26h370v-26l-110 -96q-16 -45 -49 -141t-57 -164q-24 -66 -82 -236t-72 -206q-15 -37 -19 -54h-96l-51 123q-61 129 -174 415l-164 -428q-22 -43 -43 -110h-96q-33 65 -56 131q-75 165 -143 329
t-141 339l-111 98v26zM696 1008l-24 14l205 461l223 -168z" />
    <glyph glyph-name="Wdieresis" unicode="&#x1e84;" horiz-adv-x="2060" 
d="M1321 1731q59 0 99 -40q40 -41 40 -101t-40 -99t-99 -39t-99 39t-40 99t40 100t99 41zM760 1590q0 60 41 100t99 41q58 0 99 -40q41 -41 41 -101t-41 -99t-99 -39t-99 39t-41 99zM1599 1356h457v-27l-137 -123l-393 -1214h-107l-358 932l-320 -932h-106l-496 1216
l-135 121v27h633v-27l-145 -123l268 -694l217 635l-23 59l-143 123v27h606v-27l-145 -123l254 -692l219 692l-146 123v27z" />
    <glyph glyph-name="wdieresis" unicode="&#x1e85;" horiz-adv-x="1460" 
d="M-2 915h545v-26l-109 -98l144 -381l196 524h96l209 -508l127 369l-114 94v26h370v-26l-110 -96q-16 -45 -49 -141t-57 -164q-24 -66 -82 -236t-72 -206q-15 -37 -19 -54h-96l-51 123q-61 129 -174 415l-164 -428q-22 -43 -43 -110h-96q-33 65 -56 131q-75 165 -143 329
t-141 339l-111 98v26zM991 1321q59 0 99 -41t40 -101t-39 -100q-39 -39 -99 -39t-100 39t-40 99t40 102q40 41 99 41zM608 1321q60 0 100 -41t40 -101q0 -59 -40 -99t-100 -40t-100 39q-41 39 -41 99t41 102q41 41 100 41z" />
    <glyph glyph-name="Ygrave" unicode="&#x1ef2;" horiz-adv-x="1290" 
d="M418 1532l84 237l459 -286l-13 -27zM823 1356h463v-27l-131 -121l-326 -532v-522l154 -127v-27h-633v27l152 127v485l-365 569l-133 121v27h655v-27l-153 -121l242 -389l229 379l-154 131v27z" />
    <glyph glyph-name="ygrave" unicode="&#x1ef3;" horiz-adv-x="1003" 
d="M287 1317l221 168l205 -461l-23 -14zM162 -469v27q178 199 289 454l-345 783l-110 94v26h549v-26l-113 -96l160 -404l156 404l-113 96v26h375v-26l-111 -94l-289 -709q-125 -299 -147 -555h-301z" />
    <glyph glyph-name="uni2009" unicode="&#x2009;" horiz-adv-x="83" 
 />
    <glyph glyph-name="endash" unicode="&#x2013;" horiz-adv-x="1077" 
d="M94 578h889v-125h-889v125z" />
    <glyph glyph-name="emdash" unicode="&#x2014;" horiz-adv-x="1603" 
d="M94 578h1415v-125h-1415v125z" />
    <glyph glyph-name="quoteleft" unicode="&#x2018;" horiz-adv-x="499" 
d="M426 980q0 -64 -48 -106q-48 -40 -125 -40t-132 56t-55 154q0 139 96 250t215 160l37 -20q-143 -189 -172 -320l37 6q67 0 107 -38t40 -102z" />
    <glyph glyph-name="quoteright" unicode="&#x2019;" horiz-adv-x="499" 
d="M260 1169q-8 -4 -56 -4t-90 37q-40 37 -40 102q0 66 48 106t125 40t132 -56t55 -155q0 -139 -96 -249t-215 -159l-37 21q143 176 174 317z" />
    <glyph glyph-name="quotesinglbase" unicode="&#x201a;" horiz-adv-x="503" 
d="M74 186q0 64 48 104t125 40t132 -56t55 -153q0 -141 -96 -251t-215 -159l-37 21q143 176 174 319q-18 -6 -39 -6q-67 0 -107 38q-40 39 -40 103z" />
    <glyph glyph-name="quotedblleft" unicode="&#x201c;" horiz-adv-x="958" 
d="M426 976q0 -64 -48 -104q-48 -41 -125 -41q-77 1 -132 57t-55 154q0 139 96 249t215 159l37 -20q-143 -185 -172 -318q8 0 12 2l25 2q67 0 107 -38t40 -102zM885 976q0 -64 -47 -104q-47 -41 -125 -41q-78 1 -133 57t-56 154q0 139 96 249t216 159l36 -20
q-143 -177 -174 -318q6 0 13 2l26 2q66 0 107 -38t41 -102z" />
    <glyph glyph-name="quotedblright" unicode="&#x201d;" horiz-adv-x="958" 
d="M260 1169q-8 -4 -56 -4t-90 37q-40 37 -40 102q0 66 48 106t125 40t132 -56t55 -155q0 -139 -96 -249t-215 -159l-37 21q143 176 174 317zM717 1169q-3 -4 -53 -4t-91 37t-41 102q0 66 48 106t126 40q76 0 132 -56t55 -155q0 -139 -96 -249t-215 -159l-37 21
q139 172 172 317z" />
    <glyph glyph-name="quotedblbase" unicode="&#x201e;" horiz-adv-x="962" 
d="M74 186q0 64 48 104t125 40t132 -56t55 -153q0 -141 -96 -251t-215 -159l-37 21q143 176 174 319q-18 -6 -39 -6q-67 0 -107 38q-40 39 -40 103zM717 51q-7 -6 -55 -6t-89 38q-41 39 -41 103t48 104t126 40q76 0 132 -56t55 -153q0 -141 -96 -251t-215 -159l-37 21
q141 178 172 319z" />
    <glyph glyph-name="dagger" unicode="&#x2020;" horiz-adv-x="862" 
d="M328 -254v1131h-297v24l137 139h160v170l178 207h22v-377h306v-24l-138 -139h-168v-926l-176 -205h-24z" />
    <glyph glyph-name="daggerdbl" unicode="&#x2021;" horiz-adv-x="864" 
d="M528 864v-332h306v-24l-138 -139h-168v-236l-176 -207h-24v443h-297v22l137 141h160v332h-297v23l137 139h160v184l178 207h22v-391h306v-22l-138 -140h-168z" />
    <glyph glyph-name="bullet" unicode="&#x2022;" horiz-adv-x="819" 
d="M113 518q0 127 86 212t212 85t211 -85t85 -213t-85 -213t-211 -85t-212 86t-86 213z" />
    <glyph glyph-name="ellipsis" unicode="&#x2026;" horiz-adv-x="1470" 
d="M430 143q0 -71 -49 -121t-125 -50t-125 48q-49 49 -49 123t49 124t124 50t125 -51t50 -123zM907 143q0 -71 -49 -121t-125 -50t-125 48q-49 49 -49 123t49 124t124 50t125 -51t50 -123zM1386 143q0 -71 -49 -121t-125 -50t-125 48q-49 49 -49 123t49 124t124 50t125 -51
t50 -123z" />
    <glyph glyph-name="perthousand" unicode="&#x2030;" horiz-adv-x="2279" 
d="M199 1052q0 -80 50 -136t126 -56t126 55t50 137t-49 136q-49 55 -126 55t-127 -55t-50 -136zM49 1047q0 137 94 231q93 94 235 94t234 -90t92 -228t-92 -232q-94 -94 -236 -93q-142 0 -235 90q-92 91 -92 228zM1214 1405l113 -80l-997 -1370l-115 76zM1159 496
q-78 0 -127 -56t-49 -136q0 -81 50 -136t126 -55t126 55t50 136q0 80 -49 136t-127 56zM1489 307q0 -137 -93 -230q-94 -93 -238 -93t-234 89t-90 227t93 231t234 93t235 -89q93 -91 93 -228zM1904 113q75 0 125 54t50 136t-49 137q-49 56 -126 56t-126 -56t-49 -136
q0 -81 50 -136t125 -55zM1902 -16q-142 0 -233 89q-90 89 -90 226t93 231q94 94 234 94t232 -89q92 -91 92 -229t-93 -230t-235 -92z" />
    <glyph glyph-name="uni2032" unicode="&#x2032;" horiz-adv-x="425" 
d="M373 1376v-8l-221 -526h-64l12 534h273z" />
    <glyph glyph-name="uni2033" unicode="&#x2033;" horiz-adv-x="792" 
d="M373 1376v-8l-221 -526h-64l12 534h273zM737 1376v-8l-221 -526h-63l12 534h272z" />
    <glyph glyph-name="guilsinglleft" unicode="&#x2039;" horiz-adv-x="604" 
d="M90 479v19l367 360l53 -22l-152 -351l152 -344l-53 -20z" />
    <glyph glyph-name="guilsinglright" unicode="&#x203a;" horiz-adv-x="604" 
d="M514 498v-19l-367 -358l-53 20l152 344l-152 351l53 22z" />
    <glyph glyph-name="fraction" unicode="&#x2044;" horiz-adv-x="1087" 
d="M977 1432l110 -76l-976 -1432l-111 76z" />
    <glyph glyph-name="Euro" unicode="&#x20ac;" horiz-adv-x="1361" 
d="M1010 764h-449v-55q0 -43 2 -66h447v-117h-435q33 -203 133 -303t202 -100q103 0 195 82q91 82 136 166h27v-318q-166 -76 -367 -76q-258 -1 -447 145t-233 404h-168v117h156v31q0 29 4 90h-160v117h183q61 223 243 359t424 136q186 0 342 -39v-348h-26q-81 100 -179 174
t-180 74t-165 -94t-117 -262h432v-117z" />
    <glyph glyph-name="trademark" unicode="&#x2122;" horiz-adv-x="1601" 
d="M31 1356h622v-191h-18l-98 113h-99v-453l84 -61v-19h-360v19l84 61v453h-96l-99 -115h-20v193zM1550 745h-336v19l72 61v330l-199 -367h-38l-199 371v-334l76 -61v-19h-244v19l76 61v437l-60 75v19h254l174 -328l177 328h247v-19l-73 -63v-449l73 -61v-19z" />
    <glyph glyph-name="onethird" unicode="&#x2153;" horiz-adv-x="1640" 
d="M1217 1432l110 -76l-977 -1432l-110 76zM524 539h-491v26l110 82v512l-114 68v26q143 57 387 127v-733l108 -82v-26zM1251 598q0 80 -102 80q-51 0 -105 -31l-24 23q98 164 298 164t200 -152q0 -119 -195 -188h10q113 0 188 -50t75 -160q0 -111 -110 -196
q-130 -102 -466 -104l-12 28q287 109 286 254q0 111 -166 111q-45 0 -57 -4l-10 41q104 53 147 95t43 89z" />
    <glyph glyph-name="twothirds" unicode="&#x2154;" horiz-adv-x="1812" 
d="M1391 1432l110 -76l-977 -1432l-110 76zM342 1058q0 134 -134 134q-64 0 -140 -55l-27 14q25 77 105 149t209 72q130 0 202 -62t72 -169q0 -229 -391 -414h329l95 131h24v-319h-657v92q182 182 247 271q66 88 66 156zM1423 598q0 80 -102 80q-51 0 -104 -31l-25 23
q98 164 298 164t200 -152q0 -119 -195 -188h10q113 0 188 -50t75 -160q0 -111 -110 -196q-130 -102 -466 -104l-12 28q287 109 286 254q0 111 -166 111q-45 0 -57 -4l-10 41q104 53 147 95t43 89z" />
    <glyph glyph-name="oneeighth" unicode="&#x215b;" horiz-adv-x="1775" 
d="M1217 1432l110 -76l-977 -1432l-110 76zM524 539h-491v26l110 82v512l-114 68v26q143 57 387 127v-733l108 -82v-26zM1268 668q0 -37 34 -69t130 -85q53 58 53 114t-32 84t-81 27q-104 1 -104 -71zM1475 161q0 39 -34 71t-134 87q-76 -63 -76 -143q0 -45 33 -73
q33 -27 90 -27t89 24t32 61zM1376 829q158 0 245 -47t87 -125q0 -109 -209 -178q129 -70 182 -129t53 -148t-98 -158t-271 -69q-173 1 -268 51t-96 132q0 129 230 200q-203 111 -203 250q0 102 95 162t253 59z" />
    <glyph glyph-name="threeeighths" unicode="&#x215c;" horiz-adv-x="1810" 
d="M1251 1432l111 -76l-977 -1432l-111 76zM266 1135q0 82 -102 82q-51 0 -105 -31l-24 20q96 166 293 166q100 0 152 -40t52 -111q0 -119 -194 -189h10q113 0 188 -50q74 -50 74 -161t-119 -204t-456 -97l-12 29q145 57 216 117t70 139q0 111 -166 110l-57 -4l-10 41
q104 54 147 96t43 87zM1303 668q-1 -37 33 -69t130 -85q54 58 54 114t-32 84t-81 27q-104 1 -104 -71zM1509 161q1 39 -33 71t-135 87q-76 -63 -75 -143q0 -45 32 -73q32 -27 90 -27t90 23q31 24 31 62zM1411 829q158 0 245 -47t87 -125q0 -109 -209 -178q129 -70 182 -129
t53 -148t-98 -158t-271 -69q-173 1 -268 51t-96 132q0 129 230 200q-203 111 -203 250q0 102 95 162t253 59z" />
    <glyph glyph-name="fiveeighths" unicode="&#x215d;" horiz-adv-x="1804" 
d="M1247 1432l111 -76l-977 -1432l-111 76zM637 815q0 -127 -145 -209t-437 -94l-14 33q161 67 235 115t74 98q0 88 -291 102l140 496h456l-84 -201h-335l-27 -94q428 -31 428 -246zM1296 668q0 -37 34 -69t130 -85q53 58 53 114t-31 84q-32 28 -81 27q-105 1 -105 -71z
M1503 161q0 39 -34 71t-134 87q-76 -63 -75 -143q0 -45 32 -73q32 -27 90 -27q57 0 89 24t32 61zM1405 829q158 0 245 -47t87 -125q0 -109 -209 -178q129 -70 182 -129t53 -148t-98 -158q-97 -69 -271 -69q-174 1 -269 51t-95 132q0 129 230 200q-203 111 -203 250
q0 102 95 162t253 59z" />
    <glyph glyph-name="seveneighths" unicode="&#x215e;" horiz-adv-x="1710" 
d="M1151 1432l111 -76l-977 -1432l-111 76zM692 1356v-35l-379 -782h-157l297 616h-428l77 201h590zM1202 668q0 -37 34 -69t130 -85q53 58 53 114t-31 84q-32 28 -81 27q-105 1 -105 -71zM1409 161q0 39 -34 71t-134 87q-76 -63 -76 -143q0 -45 33 -73q33 -27 90 -27t89 24
t32 61zM1311 829q159 0 245 -47t86 -125q0 -109 -208 -178q129 -70 182 -129t53 -148t-98 -158q-97 -69 -271 -69q-174 1 -269 51t-95 132q0 129 229 200q-203 111 -202 250q0 102 95 162t253 59z" />
    <glyph glyph-name="minus" unicode="&#x2212;" horiz-adv-x="937" 
d="M86 453v127h766v-127h-766z" />
    <glyph glyph-name="uni24C5" unicode="&#x24c5;" horiz-adv-x="1533" 
d="M763 1380q291 0 495 -206t204 -497q0 -292 -200 -495q-200 -202 -497 -202q-296 0 -496 202q-199 202 -199 497q0 296 200 499q201 202 493 202zM842 1051q141 1 220 -53t79 -162q-1 -108 -103 -170q-102 -63 -241 -64v47q113 53 112 176q0 66 -38 100t-91 33h-20v-530
l102 -74v-22h-424v22l86 74v528l-86 72v23h404zM770 92q236 0 396 170t161 415q-1 245 -163 418t-401 173t-397 -171t-159 -414q0 -243 164 -417q163 -174 399 -174z" />
    <glyph glyph-name="zero.tab" unicode="&#xe44f;" 
d="M905 481q0 137 -84 229t-209 93q-124 1 -206 -91t-82 -230t83 -230t207 -92t208 92q83 92 83 229zM104 473q0 213 148 364t363 151t361 -144q146 -142 146 -356t-147 -364t-365 -151t-362 143t-144 357z" />
    <glyph glyph-name="one.tab" unicode="&#xe450;" 
d="M928 0h-625v31l164 96v702l-164 97v30h625v-30l-164 -97v-702l164 -96v-31z" />
    <glyph glyph-name="two.tab" unicode="&#xe451;" 
d="M942 711q0 -227 -424 -459h565l-116 -252h-803v27q246 233 346 362t100 220t-51 134t-125 43t-128 -28t-81 -53l-43 30q38 75 105 135q128 115 302 115q173 0 263 -78t90 -196z" />
    <glyph glyph-name="three.tab" unicode="&#xe452;" 
d="M598 666q0 134 -150 135q-74 0 -157 -60l-43 31q49 88 141 150t227 63q135 0 209 -61t74 -156q0 -184 -287 -332q10 2 35 2q154 0 251 -79t97 -216q0 -395 -782 -643l-31 39q242 172 355 295t112 244q0 82 -56 129q-57 47 -145 47t-174 -29l-30 45q206 152 280 241
t74 155z" />
    <glyph glyph-name="four.tab" unicode="&#xe453;" 
d="M645 199v405l-297 -405h297zM938 969v-770h205v-199h-205v-344l-293 -113v457h-582v29l689 940h186z" />
    <glyph glyph-name="five.tab" unicode="&#xe454;" 
d="M940 135q0 -143 -109 -265q-207 -231 -659 -331l-25 43q227 126 355 232t129 210q0 104 -113 194q-113 91 -278 163q29 78 118 294q90 216 121 281h533l-121 -235h-406l-39 -94q230 -97 362 -223t132 -269z" />
    <glyph glyph-name="six.tab" unicode="&#xe455;" 
d="M432 543q0 -193 75 -316t145 -123t123 85q52 85 52 201t-61 190t-164 73q-57 0 -90 -14l-10 35q116 137 274 137t258 -98t100 -293t-148 -320t-342 -125t-357 145q-80 70 -129 186t-49 266t58 290q104 250 376 423q226 144 524 208l14 -39q-333 -166 -491 -388t-158 -523
z" />
    <glyph glyph-name="seven.tab" unicode="&#xe456;" 
d="M1092 956v-26l-562 -1417l-151 36l457 1153h-707l109 254h854z" />
    <glyph glyph-name="eight.tab" unicode="&#xe457;" 
d="M451 1122q0 -57 50 -111t195 -171q94 115 94 215t-48 148q-50 48 -124 48t-120 -36t-47 -93zM600 111q82 -1 135 45t53 116t-51 130t-211 180q-119 -133 -118 -273q0 -90 55 -144t137 -54zM624 1374q187 0 306 -83t119 -187t-74 -179t-205 -143q174 -139 244 -229
t69 -203q0 -156 -135 -262t-343 -106t-334 80t-126 201q0 120 79 206t225 170q-147 111 -212 205t-65 194q0 150 132 243q133 93 320 93z" />
    <glyph glyph-name="nine.tab" unicode="&#xe458;" 
d="M563 877q-57 0 -107 -79t-50 -198t61 -196t162 -76q55 0 88 12l12 -35q-33 -45 -109 -90t-176 -45q-145 0 -246 106q-102 106 -102 287t142 311t341 132q198 0 362 -138q81 -68 130 -180t49 -260t-54 -285t-140 -237t-202 -184q-207 -149 -466 -216l-18 37
q278 185 418 401t141 490q0 207 -77 325t-159 118z" />
    <glyph glyph-name="dollar.tab" unicode="&#xe45a;" horiz-adv-x="1083" 
d="M526 1253q-72 0 -114 -39t-41 -96q-1 -57 31 -99t102 -93l37 327h-15zM711 278q0 68 -34 114t-108 102l-43 -373h2q84 0 134 45q49 44 49 112zM879 1020h-29q-121 164 -199 205l-41 -371l33 -23q172 -121 253 -220t81 -251t-127 -265q-127 -112 -338 -115l-20 -185h-115
l20 191q-156 16 -270 69q-10 68 -16 213t0 250h26q63 -152 128 -245t151 -132l47 426l-23 15q-172 115 -249 216t-76 232q0 160 122 252t318 96l16 152h115l-18 -156q133 -8 211 -28v-326z" />
    <glyph glyph-name="Euro.tab" unicode="&#xe45b;" horiz-adv-x="1341" 
d="M997 764h-442v-55q0 -43 2 -66h440v-117h-428q50 -292 237 -381q48 -23 93 -22q98 0 190 82q91 82 136 166h28v-318q-166 -76 -364 -76q-253 1 -443 147t-233 402h-168v117h156v31q0 29 4 90h-160v117h182q61 223 243 359t423 136q160 0 338 -39v-348h-29
q-82 100 -178 174t-174 74t-163 -95t-116 -261h426v-117z" />
    <glyph glyph-name="acute.uc" horiz-adv-x="819" 
d="M162 1456l-12 27l458 286l82 -237z" />
    <glyph glyph-name="breve.uc" horiz-adv-x="819" 
d="M405 1626q157 0 244 117l27 -4q6 -101 -61 -197t-205 -96t-206 96q-67 96 -61 197l27 4q78 -117 235 -117z" />
    <glyph glyph-name="circumflex.uc" horiz-adv-x="819" 
d="M412 1776l321 -312l-14 -22l-307 96l-310 -96l-16 22z" />
    <glyph glyph-name="dieresis.uc" horiz-adv-x="819" 
d="M621 1731q59 0 99 -40q40 -41 40 -101t-40 -99t-99 -39t-100 39q-40 39 -40 99t40 101q41 40 100 40zM200 1731q58 0 99 -40q41 -41 41 -101t-41 -99t-99 -39t-100 39q-41 39 -41 99t41 101q42 40 100 40z" />
    <glyph glyph-name="grave.uc" horiz-adv-x="819" 
d="M139 1532l84 237l459 -286l-12 -27z" />
    <glyph glyph-name="macron.uc" horiz-adv-x="819" 
d="M121 1657h577v-172h-577v172z" />
    <glyph glyph-name="ring.uc" horiz-adv-x="819" 
d="M117 1643q0 88 64 149q65 61 151 61t148 -61t62 -148q0 -88 -62 -146t-150 -58t-151 57q-62 58 -62 146zM332 1755q-47 1 -77 -31t-30 -78t30 -78t77 -32t76 31q28 31 28 79t-28 78t-76 31z" />
    <glyph glyph-name="tilde.uc" horiz-adv-x="819" 
d="M283 1706q29 0 139 -23t139 -22q61 0 152 98l22 -10q-25 -117 -81 -197t-115 -79q-35 -1 -144 21t-135 22q-51 0 -151 -101l-25 10q31 115 88 198q58 83 111 83z" />
    <glyph glyph-name="Cacute.pl" horiz-adv-x="1384" 
d="M762 1436l-27 6l4 391l287 -102zM844 -23q-342 0 -565 193t-224 498q0 135 54 262q115 276 403 390q154 60 362 60t394 -53v-364h-29q-70 102 -195 190t-237 88q-147 0 -272 -154q-125 -155 -125 -395t142 -404t316 -165q125 0 230 79q104 79 166 195h26v-327
q-46 -31 -170 -62t-276 -31z" />
    <glyph glyph-name="acute.ucpl" horiz-adv-x="819" 
d="M342 1436l-27 6l4 391l287 -102z" />
    <glyph glyph-name="acute.pl" horiz-adv-x="819" 
d="M317 1006l-26 6l22 463l260 -74z" />
    <glyph glyph-name="caron.uc" horiz-adv-x="819" 
d="M18 1745l17 22l309 -96l307 96l15 -22l-322 -311z" />
    <glyph glyph-name="dotaccent.uc" horiz-adv-x="819" 
d="M365 1454q-68 0 -114 43t-46 111t46 112t114 43q69 0 115 -44q46 -43 46 -111t-46 -111t-115 -43z" />
    <glyph glyph-name="space_uni0326" horiz-adv-x="819" 
d="M563 -278q0 -88 -73 -172t-164 -123l-37 24q102 112 118 203q-1 -2 -8 -2q-53 -4 -96 28t-43 90q0 60 40 95t106 35t112 -45q45 -45 45 -133z" />
    <glyph glyph-name="caron.alt" horiz-adv-x="819" 
d="M279 1008l26 456h227l-229 -456h-24z" />
    <glyph glyph-name="Nacute.pl" horiz-adv-x="1628" 
d="M811 1436l-27 6l4 391l287 -102zM1587 1356v-25l-155 -125v-1206h-172l-879 971v-821l211 -123v-27h-537v27l156 123v1003l-178 176v27h446l783 -875v725l-197 125v25h522z" />
    <glyph glyph-name="Oacute.pl" horiz-adv-x="1560" 
d="M739 1436l-26 6l4 391l287 -102zM412 674q0 -229 116 -388t262 -159t254 158q108 157 107 391q0 234 -113 396t-257 163q-145 0 -257 -166t-112 -395zM782 -23q-286 1 -504 189t-219 494q0 306 215 514t511 206q296 0 507 -189t211 -495t-217 -513q-218 -206 -504 -206z
" />
    <glyph glyph-name="hungarumlaut.uc" horiz-adv-x="819" 
d="M23 1448l-17 20l287 344l139 -196zM408 1448l-17 20l287 344l137 -196z" />
    <glyph glyph-name="Q.long" horiz-adv-x="1554" 
d="M778 1235q-148 0 -258 -159t-110 -390t112 -396t260 -165q147 -1 256 149t109 400t-111 406q-110 156 -258 155zM57 657q0 311 214 517t509 206t507 -192t212 -494q0 -217 -134 -391t-339 -246q354 -160 576 -231q375 -119 692 -119q209 0 350 37l8 -25
q-98 -72 -290 -130t-418 -58q-330 0 -816 197q-352 139 -684 319q-387 209 -387 610z" />
    <glyph glyph-name="Sacute.pl" horiz-adv-x="1024" 
d="M500 1436l-27 6l4 391l287 -102zM575 1380q164 0 295 -34v-322h-26q-64 90 -148 158t-147 68t-101 -38q-38 -37 -38 -97q0 -59 48 -119t171 -150q88 -68 132 -106q140 -121 174 -219q22 -62 21 -136q0 -178 -130 -293t-353 -115q-158 0 -362 64q-27 111 -27 463h27
q176 -381 362 -381q66 0 120 47t54 128t-49 140q-50 59 -194 163t-217 205t-72 220q0 160 119 257q120 97 341 97z" />
    <glyph glyph-name="Zacute.pl" horiz-adv-x="1286" 
d="M627 1436l-27 6l4 391l287 -102zM1223 461v-461h-1174v29l705 1192h-416l-209 -265h-27v400h1080v-27l-711 -1182h508l217 314h27z" />
    <glyph glyph-name="ampersand.uc" horiz-adv-x="1603" 
d="M514 1147q0 -49 34 -92t128 -133q94 86 94 190q0 74 -40 113t-93 39t-88 -34t-35 -83zM348 463q0 -125 85 -212t219 -87t235 69q-176 233 -424 482q-115 -94 -115 -252zM1489 184q96 0 133 11l6 -27q-66 -74 -170 -130t-196 -56t-156 30q-63 30 -129 105
q-170 -147 -409 -147t-384 116q-145 117 -145 291q0 141 96 245t254 166q-143 150 -143 283t115 221q116 88 276 88t264 -70t105 -175q0 -168 -263 -279q141 -141 338 -387q70 121 144 305l-150 123v27h508v-27q-133 -93 -181 -155t-127 -206t-106 -184q72 -90 148 -129
t172 -39z" />
    <glyph glyph-name="at.uc" horiz-adv-x="1933" 
d="M823 416q29 0 95 47t137 133l71 346q-135 -12 -233 -156t-98 -307q-1 -63 28 -63zM1077 1391q-231 0 -417 -120t-281 -307q-96 -187 -96 -397q0 -319 190 -507t504 -189q369 0 631 235l41 -49q-95 -121 -275 -217t-436 -96q-381 0 -625 218t-243 573q0 268 138 490
t376 348t524 126q370 0 572 -178t202 -432q0 -334 -258 -516t-649 -158l53 260q-80 -109 -180 -185t-170 -77q-70 0 -121 63t-51 166q0 244 191 422t458 187l289 90l-168 -830q168 43 286 175t118 362t-146 386q-145 156 -457 157z" />
    <glyph glyph-name="backslash.uc" horiz-adv-x="745" 
d="M43 1518l133 36l526 -1740l-133 -39z" />
    <glyph glyph-name="slash.uc" horiz-adv-x="745" 
d="M567 1554l133 -36l-526 -1743l-133 39z" />
    <glyph glyph-name="bar.uc" horiz-adv-x="501" 
d="M184 -223v1759h133v-1759h-133z" />
    <glyph glyph-name="braceleft.uc" horiz-adv-x="692" 
d="M141 72q0 68 79 226t79 210q0 125 -238 135v80q238 14 238 133q0 48 -79 196t-79 222q0 116 116 194t390 91l23 -52q-154 -16 -222 -75t-67 -128q0 -69 59 -210q60 -141 60 -211t-60 -125t-202 -74q262 -33 262 -205q0 -59 -60 -209t-59 -224q0 -74 70 -140t219 -76
l-23 -51q-264 6 -385 89t-121 204z" />
    <glyph glyph-name="braceright.uc" horiz-adv-x="692" 
d="M309 1304q0 68 -67 128q-68 59 -222 75l23 52q274 -13 390 -91t116 -194q0 -74 -79 -221t-79 -197q0 -119 238 -133v-80q-238 -10 -238 -135q0 -51 79 -210t79 -226q0 -121 -121 -204t-385 -89l-23 51q150 10 220 77t70 141t-60 222q-59 150 -60 209q0 172 263 205
q-143 18 -203 74t-60 125q0 70 60 211q59 142 59 210z" />
    <glyph glyph-name="bracketleft.uc" horiz-adv-x="645" 
d="M635 1440h-242v-1534h242v-107h-479v1747h479v-106z" />
    <glyph glyph-name="bracketright.uc" horiz-adv-x="645" 
d="M250 1440h-242v106h479v-1747h-479v107h242v1534z" />
    <glyph glyph-name="cacute.pl" horiz-adv-x="940" 
d="M477 1006l-26 6l22 463l260 -74zM600 944q115 0 256 -26v-300h-27q-201 188 -315 189q-60 0 -124 -78t-64 -214t91 -229t228 -93t240 43l18 -25q-51 -82 -161 -158t-234 -76q-193 0 -329 125t-136 338q-1 212 153 358t404 146z" />
    <glyph glyph-name="colon.tab" horiz-adv-x="614" 
d="M477 143q0 -71 -49 -121t-125 -50t-125 48q-49 49 -49 123t49 124t124 50t125 -51t50 -123zM479 737q0 -72 -49 -122t-125 -50t-125 49t-49 123t49 124t124 50t125 -51t50 -123z" />
    <glyph glyph-name="comma.tab" horiz-adv-x="614" 
d="M276 27q-68 0 -112 41q-44 42 -43 110q0 68 49 112t128 44t137 -60t59 -161q0 -154 -104 -271t-238 -174l-39 27q164 188 204 338q-18 -6 -41 -6z" />
    <glyph glyph-name="space_uni0326.alt" horiz-adv-x="819" 
d="M297 1197q0 89 74 174t166 122l34 -25q-92 -106 -118 -202h8q57 4 98 -28t41 -90t-41 -94t-107 -36t-110 45q-45 45 -45 134z" />
    <glyph glyph-name="divide.lin" horiz-adv-x="991" 
d="M86 682h819v-127h-819v127zM338 952q0 66 45 108t113 42t112 -42t43 -108q0 -66 -45 -109q-44 -44 -110 -44t-112 44q-46 43 -46 109zM338 280q0 66 45 108t113 42t112 -42t43 -108q0 -66 -45 -111q-44 -44 -110 -44t-112 44t-46 111z" />
    <glyph glyph-name="divide.lintab" 
d="M211 682h819v-127h-819v127zM463 952q0 66 45 108t113 42q67 0 111 -42t44 -108t-45 -109q-45 -44 -111 -44t-111 44q-46 43 -46 109zM463 280q0 66 45 108t113 42q67 0 111 -42t44 -108t-45 -111q-45 -44 -111 -44t-111 44q-46 44 -46 111z" />
    <glyph glyph-name="divide.tab" 
d="M205 580h819v-127h-819v127zM614 696q-66 0 -112 44t-45 110q0 66 45 108q44 42 112 41q68 0 112 -42t44 -107q0 -66 -45 -110t-111 -44zM614 23q-66 -1 -112 43t-45 111q0 67 45 109q44 42 112 42t112 -42t44 -109t-45 -111t-111 -43z" />
    <glyph glyph-name="eight.lin" horiz-adv-x="1114" 
d="M558 1255q-75 0 -120 -39t-45 -98t46 -109t204 -169q88 109 88 211t-49 153t-124 51zM737 270q0 66 -53 130t-217 182q-125 -121 -125 -271q0 -86 57 -143t147 -57q90 1 140 47q51 46 51 112zM568 1380q198 0 318 -83t120 -197q0 -184 -283 -320q176 -131 251 -227
t75 -213q1 -154 -139 -259t-364 -105t-357 86q-132 87 -132 221q0 109 91 201t233 157q-155 107 -219 201t-64 202q0 150 136 243t334 93z" />
    <glyph glyph-name="eight.lintab" 
d="M614 1255q-76 0 -123 -39t-47 -98t50 -111t208 -169q92 102 92 208t-52 158q-52 51 -128 51zM393 311q1 -88 61 -144t150 -56q90 1 144 47t53 113q0 67 -53 128t-224 183q-131 -117 -131 -271zM626 1380q201 0 323 -82t122 -198q0 -186 -289 -322q180 -135 256 -227
t76 -209q0 -158 -141 -262t-369 -104t-361 84q-134 85 -134 223q0 111 92 203t235 155q-156 111 -222 200t-64 201q0 152 138 245t338 93z" />
    <glyph glyph-name="emdash.uc" horiz-adv-x="1601" 
d="M94 711h1415v-125h-1415v125z" />
    <glyph glyph-name="endash.uc" horiz-adv-x="1075" 
d="M94 711h889v-125h-889v125z" />
    <glyph glyph-name="equal.lin" horiz-adv-x="970" 
d="M102 676v119h766v-119h-766zM102 422v119h766v-119h-766z" />
    <glyph glyph-name="equal.lintab" 
d="M229 676v119h766v-119h-766zM229 422v119h766v-119h-766z" />
    <glyph glyph-name="equal.tab" 
d="M231 573v119h766v-119h-766zM231 319v119h766v-119h-766z" />
    <glyph glyph-name="exclamdown.uc" horiz-adv-x="534" 
d="M92 1212q0 72 50 122t126 50t124 -49t48 -123t-48 -124t-123 -50t-126 51t-51 123zM88 0q14 76 74 469q59 393 74 451h61q13 -58 73 -450t74 -470h-356z" />
    <glyph glyph-name="f.short" horiz-adv-x="720" 
d="M651 0h-631v27l125 96v637h-159v26l159 123v35q0 215 160 372t383 157q106 0 184 -19l-92 -229q-164 111 -207 111t-89 -78q-46 -77 -46 -205v-138h310l-105 -155h-205v-633l213 -100v-27z" />
    <glyph glyph-name="f_f.short" horiz-adv-x="1300" 
d="M727 944q0 166 96 299q-160 96 -219 96q-59 1 -112 -73t-54 -207v-144h289v29zM145 948q0 217 158 371t389 154q131 0 301 -76q129 76 256 76t205 -19l-92 -229q-164 111 -208 111t-89 -78q-45 -77 -45 -205v-138h299l-105 -155h-194v-633l213 -100v-27h-631v27l125 96
v637h-289v-637l119 -96v-27h-537v27l125 96v637h-159v26l159 117v45z" />
    <glyph glyph-name="five.lin" horiz-adv-x="921" 
d="M838 1356l-109 -258h-434l-33 -129q291 -63 435 -185t145 -274q0 -195 -195 -342t-577 -211l-21 41q446 238 447 418q0 68 -68 125q-126 106 -362 153q14 66 82 328q69 262 92 334h598z" />
    <glyph glyph-name="five.lintab" 
d="M1022 504q0 -200 -210 -350t-611 -197l-21 41q496 205 496 416q0 72 -74 129q-128 98 -409 137l176 676h649l-109 -258h-483l-39 -146q635 -113 635 -448z" />
    <glyph glyph-name="four.lin" horiz-adv-x="1173" 
d="M592 545v477l-326 -477h326zM1059 0h-621v27l154 120v199h-569v84l641 932h241v-817h258l-108 -199h-150v-199l154 -120v-27z" />
    <glyph glyph-name="four.lintab" 
d="M621 545v483l-340 -483h340zM1087 0h-620v27l154 120v199h-586v84l657 932h242v-817h264l-108 -199h-156v-199l153 -120v-27z" />
    <glyph glyph-name="greater.lin" horiz-adv-x="905" 
d="M94 270v127l578 219l-578 226v125l725 -285v-131z" />
    <glyph glyph-name="greater.lintab" 
d="M254 270v127l577 219l-577 226v125l725 -285v-131z" />
    <glyph glyph-name="greater.tab" 
d="M979 580v-131l-725 -281v127l577 219l-577 225v125z" />
    <glyph glyph-name="guillemotleft.uc" horiz-adv-x="1003" 
d="M90 600v18l342 361l53 -23l-135 -350l135 -344l-53 -20zM510 600v18l342 361l53 -23l-135 -350l135 -344l-53 -20z" />
    <glyph glyph-name="guillemotright.uc" horiz-adv-x="1003" 
d="M913 618v-18l-342 -358l-53 20l135 344l-135 350l53 23zM494 618v-18l-342 -358l-54 20l135 344l-135 350l54 23z" />
    <glyph glyph-name="guilsinglleft.uc" horiz-adv-x="608" 
d="M90 600v18l367 361l53 -23l-152 -350l152 -344l-53 -20z" />
    <glyph glyph-name="guilsinglright.uc" horiz-adv-x="608" 
d="M516 618v-18l-366 -358l-54 20l152 344l-152 350l54 23z" />
    <glyph glyph-name="hyphen.uc" horiz-adv-x="630" 
d="M94 760h445v-238h-445v238z" />
    <glyph glyph-name="idotaccent" horiz-adv-x="600" 
d="M129 1202q0 68 48 113t118 45t117 -44t47 -113t-48 -116t-117 -47t-117 47t-48 115zM31 0v27l125 96v582l-125 92v26q184 68 422 125v-825l122 -96v-27h-544z" />
    <glyph glyph-name="less.lin" horiz-adv-x="905" 
d="M88 551v131l725 285v-125l-577 -226l577 -219v-127z" />
    <glyph glyph-name="less.lintab" 
d="M248 551v131l725 285v-125l-578 -226l578 -219v-127z" />
    <glyph glyph-name="less.tab" 
d="M250 449v131l725 284v-125l-578 -225l578 -219v-127z" />
    <glyph glyph-name="minus.lin" horiz-adv-x="937" 
d="M86 555v127h766v-127h-766z" />
    <glyph glyph-name="minus.lintab" 
d="M229 555v127h766v-127h-766z" />
    <glyph glyph-name="minus.tab" 
d="M231 453v127h766v-127h-766z" />
    <glyph glyph-name="multiply.lin" horiz-adv-x="827" 
d="M66 348l262 270l-260 271l90 88l256 -268l260 268l90 -86l-264 -273l260 -270l-88 -84l-258 266l-260 -266z" />
    <glyph glyph-name="multiply.lintab" 
d="M264 348l262 270l-260 271l90 88l256 -268l260 268l91 -86l-265 -273l260 -270l-88 -84l-258 266l-260 -266z" />
    <glyph glyph-name="multiply.tab" 
d="M266 246l262 270l-260 270l90 88l256 -268l260 268l91 -86l-265 -272l261 -270l-89 -84l-258 266l-260 -266z" />
    <glyph glyph-name="nacute.pl" horiz-adv-x="1204" 
d="M584 1006l-27 6l23 463l260 -74zM643 0v27l121 96v506q0 43 -41 79t-126 36t-144 -54v-567l120 -96v-27h-542v27l125 96v582l-125 92v26q31 15 171 57t251 68v-164q168 158 306 158t219 -80t81 -141v-598l123 -96v-27h-539z" />
    <glyph glyph-name="nine.lin" horiz-adv-x="1187" 
d="M774 840q0 172 -71 288t-154 117q-57 0 -107 -77q-50 -78 -49 -190t61 -184t152 -71q53 0 86 14l19 -28q-39 -51 -116 -101t-179 -51q-160 0 -259 102t-99 284q0 183 142 309q144 126 360 126t389 -146t173 -413q0 -180 -72 -330q-72 -149 -195 -249q-249 -199 -579 -260
l-14 40q250 166 381 363t131 457z" />
    <glyph glyph-name="nine.lintab" 
d="M797 840q0 172 -72 288t-158 117q-59 0 -109 -77q-50 -78 -50 -190t61 -184t156 -71q53 0 86 14l18 -28q-39 -51 -116 -101t-179 -51q-154 0 -253 102t-99 282q0 181 143 309t350 128t378 -136q185 -148 185 -444q0 -158 -72 -309q-73 -149 -197 -249
q-248 -199 -574 -260l-14 40q254 174 385 367t131 453z" />
    <glyph glyph-name="oacute.pl" horiz-adv-x="1107" 
d="M518 1006l-26 6l22 463l260 -74zM554 817q-73 -1 -130 -105t-57 -250t58 -252t130 -106t131 102t59 251q0 148 -59 254t-132 106zM43 446q0 224 161 360q162 136 356 136t350 -124t155 -349q0 -225 -161 -359t-355 -135q-275 0 -427 209q-80 110 -79 262z" />
    <glyph glyph-name="one.lin" horiz-adv-x="747" 
d="M696 0h-645v27l158 120v969l-160 86v29q11 6 237 80t253 80v-1244l157 -120v-27z" />
    <glyph glyph-name="one.lintab" 
d="M1010 0h-785v33l228 127v921l-213 105v26q28 10 274 92t268 87v-1231l228 -127v-33z" />
    <glyph glyph-name="parenleft.uc" horiz-adv-x="671" 
d="M111 672q0 504 499 887l56 -21q-293 -403 -293 -864q0 -256 82 -464t213 -409l-58 -22q-96 77 -170 151t-156 186q-173 233 -173 556z" />
    <glyph glyph-name="parenright.uc" horiz-adv-x="671" 
d="M561 672q0 -323 -173 -556q-83 -112 -157 -186t-170 -151l-57 22q131 201 213 409t82 464q0 461 -293 864l55 21q500 -383 500 -887z" />
    <glyph glyph-name="percent.tab" horiz-adv-x="1628" 
d="M244 1052q0 -80 50 -136t126 -56t126 55t50 137t-49 136q-49 55 -126 55t-127 -55t-50 -136zM94 1047q0 137 94 231t236 94t233 -90q93 -90 93 -228t-94 -232t-235 -93q-142 0 -235 90q-92 91 -92 228zM1260 1405l112 -80l-997 -1370l-115 76zM1204 496q-78 0 -127 -56
t-49 -136q0 -81 50 -136t126 -55t126 55t50 136q0 80 -49 136t-127 56zM1534 307q0 -137 -93 -230t-237 -93t-235 89q-90 89 -90 227t93 231t234 93t235 -89q93 -91 93 -228z" />
    <glyph glyph-name="period.tab" horiz-adv-x="614" 
d="M481 143q0 -71 -49 -121t-125 -50t-125 48q-49 49 -49 123t49 124t124 50t125 -51t50 -123z" />
    <glyph glyph-name="perthousand.tab" horiz-adv-x="2252" 
d="M184 1052q0 -80 50 -136t126 -56t126 55t50 137t-48 136q-50 55 -127 55t-127 -55t-50 -136zM363 1372q143 0 235 -90t92 -228t-93 -232t-235 -93t-235 91q-92 90 -92 227t93 231t235 94zM1200 1405l113 -80l-998 -1370l-114 76zM1145 496q-78 0 -127 -56t-49 -136
q0 -81 50 -136t126 -55t126 55t50 136q0 80 -49 136t-127 56zM1475 307q1 -137 -93 -230t-238 -93t-235 89q-90 89 -90 227t93 231q92 93 234 93t236 -90t93 -227zM1889 113q75 0 125 54t50 136t-49 137q-49 56 -126 56t-126 -56t-49 -136q0 -81 50 -136t125 -55zM2216 306
q0 -138 -94 -230t-235 -92q-142 0 -232 89t-90 226t93 231t233 94q141 0 233 -89q92 -91 92 -229z" />
    <glyph glyph-name="plus.lin" horiz-adv-x="993" 
d="M86 680h344v350h133v-350h342v-125h-342v-354h-133v354h-344v125z" />
    <glyph glyph-name="plus.lintab" 
d="M203 680h344v350h133v-350h342v-125h-342v-354h-133v354h-344v125z" />
    <glyph glyph-name="plus.tab" 
d="M205 578h344v350h133v-350h342v-125h-342v-355h-133v355h-344v125z" />
    <glyph glyph-name="questiondown.uc" horiz-adv-x="798" 
d="M272 1212q0 72 50 122t126 50t125 -49t49 -123t-48 -124q-50 -50 -125 -50t-126 51t-51 123zM598 647q0 -49 -31 -88q-10 -14 -41 -49l-145 -156q-66 -72 -66 -131t34 -88q35 -29 91 -29t134 67t137 151h26v-312q-154 -31 -276 -30q-201 0 -311 76t-111 214
q0 138 135 258q29 29 107 93l77 63q59 57 60 121l-4 113h61q123 -199 123 -273z" />
    <glyph glyph-name="sacute.pl" horiz-adv-x="788" 
d="M373 1006l-27 6l23 463l260 -74zM426 827q-88 0 -86 -77q0 -37 31 -65t115 -79t126 -85q43 -34 80 -97t37 -143q0 -137 -104 -221q-105 -84 -269 -83q-164 0 -276 60q-16 119 -17 330h29q57 -109 127 -181t127 -72t84 28q27 26 27 68t-30 74t-108 80q-79 48 -121 82
t-79 94t-37 132q0 130 95 200t256 70t241 -27v-245h-27q-53 72 -115 114t-106 43z" />
    <glyph glyph-name="semicolon.tab" horiz-adv-x="614" 
d="M469 737q0 -72 -49 -122t-125 -50t-125 49t-49 123t49 124t124 50t125 -51t50 -123zM274 27q-68 0 -112 41q-44 42 -43 110q0 68 50 112t129 44t136 -60t58 -161q0 -156 -102 -272t-240 -173l-39 27q164 188 204 338q-18 -6 -41 -6z" />
    <glyph glyph-name="seven.lin" horiz-adv-x="993" 
d="M967 1356v-17l-576 -1339h-174l469 1090h-680l117 266h844z" />
    <glyph glyph-name="seven.lintab" 
d="M1135 1356v-17l-615 -1339h-172l504 1090h-739l116 266h906z" />
    <glyph glyph-name="six.lin" horiz-adv-x="1187" 
d="M586 633q-57 0 -90 -15l-19 29q39 51 120 101t187 51q156 -1 251 -97t95 -248t-80 -260q-80 -110 -196 -163q-211 -97 -428 -17t-309 273q-51 109 -51 262t76 304q141 277 496 431q161 70 339 98l16 -41q-580 -319 -579 -835q0 -174 66 -284t151 -109q63 1 113 77t50 192
t-56 184q-58 68 -152 67z" />
    <glyph glyph-name="six.lintab" 
d="M432 506q0 -174 68 -284t153 -109q66 1 117 77t51 193t-58 183t-157 67q-55 0 -88 -15l-18 29q38 51 118 101t187 51q154 -1 248 -97t94 -248t-82 -260q-82 -110 -195 -163t-217 -53q-204 -1 -378 135q-185 147 -185 437q0 154 77 305t206 255q267 215 626 272l17 -41
q-584 -319 -584 -835z" />
    <glyph glyph-name="space.tab" horiz-adv-x="614" 
 />
    <glyph glyph-name="yen.tab" horiz-adv-x="1280" 
d="M786 1356h459v-27l-131 -121l-270 -436h291v-117h-334v-120h334v-117h-334v-264l153 -127v-27h-628v27l151 127v264h-334v117h334v120h-334v117h273l-287 436l-133 121v27h645v-27l-152 -121l228 -368l219 358l-150 131v27z" />
    <glyph glyph-name="three.lin" horiz-adv-x="929" 
d="M270 1182q-78 0 -182 -80l-29 16q41 98 133 178t243 80q149 0 229 -63t79 -166q0 -174 -260 -289q162 0 271 -82t108 -235q0 -215 -202 -372t-607 -204l-16 39q475 242 475 485q0 99 -63 145t-144 46t-141 -16l-23 41q158 113 221 191q64 78 64 144t-39 104t-117 38z" />
    <glyph glyph-name="three.lintab" 
d="M592 1042q0 60 -42 100t-100 40q-110 0 -202 -68l-31 -20l-31 18q46 100 144 182t255 82t239 -63t83 -176q0 -182 -262 -285q180 0 291 -91t111 -247q-1 -231 -227 -382t-644 -167l-16 39q244 80 390 196t146 263q0 104 -70 158q-70 53 -174 53t-161 -21l-21 45
q322 190 322 344z" />
    <glyph glyph-name="two.lin" horiz-adv-x="1048" 
d="M983 465v-465h-946v59q311 387 421 569t110 304t-59 178q-58 56 -155 55q-57 1 -113 -25q-55 -26 -73 -40t-64 -53l-32 18q30 91 127 196q49 52 128 84t173 31q182 0 290 -97t108 -269t-149 -348q-148 -176 -427 -412h481l153 215h27z" />
    <glyph glyph-name="two.lintab" 
d="M662 924q0 241 -246 241q-119 0 -238 -118l-35 16q129 313 447 313q190 0 294 -99t105 -269q0 -170 -136 -336t-458 -422h510l156 215h26v-465h-987v59q330 379 446 561t116 304z" />
    <glyph glyph-name="sterling.tab" horiz-adv-x="1155" 
d="M63 578v120h187l6 242q4 198 158 318t350 120q147 0 258 -35v-321h-29q-170 227 -268 227q-106 0 -125 -178q-8 -61 -21 -189t-20 -184h295v-120h-311l-6 -41q-31 -147 -193 -265q72 25 131 25t178 -30t176 -29q129 0 261 176l24 -8q-33 -193 -123 -311t-211 -118
q-72 0 -222 65t-228 64q-135 0 -291 -145l-27 16q43 86 97 169q53 84 79 136q44 91 58 296h-183z" />
    <glyph glyph-name="zacute.pl" horiz-adv-x="903" 
d="M440 1006l-26 6l22 463l260 -74zM852 356v-356h-825v35l454 768h-229l-162 -213h-24v325h776v-30l-449 -760h256l176 231h27z" />
    <glyph glyph-name="zero.lin" horiz-adv-x="1347" 
d="M677 -25q-243 1 -426 193t-183 494t180 510t429 208t426 -190t177 -498t-180 -513q-180 -204 -423 -204zM416 672q0 -232 82 -390t181 -157q99 0 176 157t77 390t-83 399t-180 166t-175 -166q-78 -167 -78 -399z" />
    <glyph glyph-name="zero.lintab" 
d="M616 -25q-222 1 -388 197t-167 488q0 292 165 506t391 214t389 -196q162 -197 162 -493t-166 -506q-164 -210 -386 -210zM608 1237q-84 -1 -150 -163t-65 -401q0 -239 70 -393q69 -154 155 -155q86 0 152 153q66 154 66 394t-72 402t-156 163z" />
    </font>
</defs>
</svg>
